<svg xmlns="http://www.w3.org/2000/svg" width="1000" height="1000" viewBox="0 0 1000 1000" version="1.1">
	<path d="M 583.500 192.965 C 550.563 197.166, 523.465 217.645, 510.673 248 C 506.795 257.203, 505.557 259.500, 504.475 259.500 C 503.954 259.500, 501.367 256.350, 498.727 252.500 C 482.522 228.866, 455.418 213, 431.247 213 C 417.340 213, 391.355 219.462, 387.973 223.761 C 385.140 227.363, 385.420 228.591, 391.107 237.500 C 399.262 250.275, 402.448 253.599, 411.818 259.105 C 416.593 261.910, 421.850 265.220, 423.500 266.459 C 434.647 274.829, 445.930 277.357, 472.500 277.437 C 484.050 277.472, 494.033 277.846, 494.684 278.268 C 498.370 280.660, 504.409 319.308, 502.474 328.120 C 501.576 332.208, 496.887 333.417, 484.794 332.680 C 465.405 331.499, 454.673 333.093, 424.500 341.634 C 393.723 350.345, 382.009 357.709, 370.122 375.814 C 364.167 384.885, 363.333 390.567, 367.070 396.614 C 369.661 400.806, 369.290 401.374, 362.231 404.013 C 329.040 416.420, 298.379 437.822, 279.162 462 C 269.009 474.773, 261.078 483, 258.916 483 C 256.767 483, 255.151 480.761, 247.007 466.500 C 239.307 453.017, 213.655 412.447, 205.851 401.411 C 197.557 389.682, 190.521 384.126, 181.915 382.512 C 176.846 381.561, 146.045 391.989, 128.703 400.527 C 98.034 415.628, 94.388 426.450, 114.802 441.789 C 130.982 453.947, 138.674 469.963, 143.479 501.500 C 144.401 507.550, 146.885 519.925, 148.999 529 C 151.114 538.075, 153.154 547.525, 153.532 550 C 155.531 563.066, 166.210 609.693, 168.563 615.627 C 170.062 619.407, 173.976 627.887, 177.262 634.470 C 190.625 661.246, 199.315 669.875, 229.877 686.718 C 242.254 693.539, 242.254 693.539, 248.406 705.583 C 256.364 721.161, 262.321 729.523, 272.928 740 C 291.168 758.015, 337.666 787.698, 358.170 794.415 C 383.251 802.631, 401.295 806.618, 419.721 808.017 C 466.566 811.572, 497.292 812.174, 531.500 810.205 C 559.043 808.619, 563.656 807.900, 588.500 801.317 C 600.050 798.257, 612.155 795.123, 615.399 794.353 C 637.165 789.188, 669.096 771.586, 688.500 754.057 C 700.722 743.015, 703.324 739.970, 709.574 729.386 C 714.101 721.720, 721.539 713, 723.551 713 C 723.850 713, 730.037 712.341, 737.298 711.535 C 744.559 710.729, 757.025 709.356, 765 708.483 C 782.142 706.607, 787.525 705.324, 803.500 699.301 C 823.757 691.663, 823.325 692.002, 852.964 660.525 C 873.720 638.481, 878.742 631.512, 890.444 608.512 C 904.753 580.386, 907.584 568.700, 906.557 542 C 904.891 498.682, 895.737 475.161, 873.381 456.752 C 843.568 432.203, 828.589 425.579, 803 425.631 C 787.037 425.663, 776.886 427.111, 764.164 431.170 C 755.396 433.968, 728.169 445.913, 717.853 451.488 C 711.609 454.862, 711.679 454.881, 704.109 447.750 C 682.124 427.037, 659.082 412.157, 638 405.057 C 626.650 401.234, 625.527 400.375, 626.959 396.608 C 629.651 389.527, 626.577 380.166, 617.495 367.791 C 604.379 349.916, 566.439 334.032, 536.799 334.006 C 528.332 333.998, 520.334 332.314, 519.593 330.382 C 517.128 323.957, 515.608 279.379, 517.765 276.781 C 518.789 275.550, 522.712 275.158, 538.265 274.737 C 570.093 273.875, 584.774 268.394, 611.089 247.545 C 621.360 239.409, 625.156 235.013, 630.951 224.547 C 632.763 221.272, 635.766 216.384, 637.623 213.684 C 641.621 207.872, 642.012 203.690, 638.750 201.613 C 629.332 195.617, 599.419 190.934, 583.500 192.965 M 772.691 500.437 C 760.310 504.005, 748.689 512.648, 743.523 522.130 C 739.288 529.902, 738.911 540.564, 742.341 555.500 C 744.969 566.943, 746.288 578.598, 747.973 605.244 C 748.522 613.931, 749.579 622.447, 750.331 624.244 C 753.112 630.888, 764.355 638, 772.076 638 C 775.675 638, 787.322 633.749, 793.265 630.265 C 808.472 621.353, 829.931 591.643, 834.627 573 C 836.767 564.504, 836.021 540.133, 833.387 532.500 C 825.781 510.456, 794.769 494.074, 772.691 500.437 M 493.329 540.482 C 492.155 541.304, 487.803 547.070, 483.658 553.295 C 479.512 559.520, 472.268 568.705, 467.560 573.707 C 462.852 578.708, 459 583.586, 459 584.546 C 459 585.507, 460.913 588.380, 463.250 590.931 C 472.356 600.868, 484.167 614.897, 487.778 620.066 C 493.964 628.920, 495.228 628.373, 506.364 612.022 C 510.289 606.259, 517.663 597.278, 522.750 592.064 C 532.441 582.132, 533.034 581.103, 530.347 578.873 C 528.815 577.602, 524.861 572.905, 505 548.765 C 496.632 538.595, 496.330 538.380, 493.329 540.482" stroke="none" fill="#e1197d" fill-rule="evenodd"/>
</svg>