<svg xmlns="http://www.w3.org/2000/svg" width="1000" height="1000" viewBox="0 0 1000 1000" version="1.1">
	<path d="M 449.263 141.514 C 435.127 144.585, 424.595 153.342, 414.718 170.234 C 401.023 193.656, 381 233.345, 381 237.070 C 381 240.664, 384.341 241.816, 459 263.979 C 474.125 268.468, 499.325 275.962, 515 280.630 C 530.675 285.299, 549.441 290.884, 556.703 293.040 C 574.326 298.274, 576.986 298.655, 579.762 296.342 C 581.261 295.093, 585.472 285.003, 592.843 265 C 606.981 226.630, 608.171 221.421, 605.602 209.141 C 600.835 186.357, 581.993 173.076, 530.204 155.993 C 488.799 142.336, 465.041 138.086, 449.263 141.514 M 384.573 285.570 C 382.291 287.852, 381.877 290.446, 382.206 300.396 C 382.476 308.576, 382.701 309.435, 385 311.078 C 389.758 314.478, 430.481 318.183, 483 319.992 C 524.997 321.439, 534.489 322.501, 532.022 325.474 C 530.375 327.458, 519.786 327.997, 479.500 328.148 C 443.535 328.282, 436 327.919, 400.668 324.352 C 378.908 322.155, 379.738 321.585, 378.459 339.593 C 377.702 350.236, 378.031 349.598, 371.010 354.033 C 353.149 365.314, 340.198 382.328, 335.641 400.500 C 332.001 415.014, 328.001 465.612, 327.419 504.500 C 327.156 522.100, 326.485 547.813, 325.929 561.639 C 324.135 606.202, 325.040 659.357, 328.556 715.941 C 330.177 742.026, 330.029 744.758, 326.841 747.644 C 321.132 752.811, 321.118 753.131, 324.484 802.252 C 327.694 849.082, 328.885 853.483, 340.299 860.689 C 354.500 869.654, 416.911 877.938, 470.500 877.971 C 512.083 877.997, 591.077 868.986, 608.500 862.230 C 617.466 858.753, 623.331 852.682, 626.369 843.735 C 628.724 836.798, 633.245 758.097, 631.653 751.754 C 631.301 750.352, 629.501 747.395, 627.652 745.182 C 624.324 741.199, 624.284 741.031, 623.643 728.329 C 622.526 706.225, 623.699 704.452, 641.655 701.105 C 669.699 695.878, 681.725 687.761, 691.530 667.441 C 700.639 648.565, 704.139 631.300, 706.520 593.500 C 707.385 579.750, 708.968 558.600, 710.037 546.500 C 715.333 486.522, 708.355 445.011, 689.483 424.224 C 674.106 407.287, 655.326 399.306, 628.500 398.306 C 611.798 397.684, 611.159 397.379, 607.556 388.313 C 602.092 374.565, 594.081 364.183, 580.692 353.500 C 576.402 350.077, 576.694 351.882, 575.462 321.218 C 574.895 307.103, 574.454 303.547, 573.055 301.819 C 571.465 299.856, 569.436 299.571, 544.921 297.869 C 491.038 294.126, 451.679 290.787, 422 287.441 C 386.944 283.489, 386.668 283.475, 384.573 285.570 M 625.062 455.643 C 622.841 458.463, 622.819 458.781, 623.400 480 C 624.435 517.771, 624.528 580.460, 623.601 615.029 C 622.757 646.488, 622.811 648.668, 624.474 650.332 C 628.663 654.520, 643.220 647.527, 650.275 637.939 C 657.857 627.634, 658.819 616.045, 659.397 528 C 659.752 474.044, 659.531 471.288, 654.225 463.500 C 650.527 458.072, 641.749 453.706, 633.472 453.179 C 627.676 452.810, 627.180 452.956, 625.062 455.643 M 574.109 782.891 C 571.302 785.698, 570.847 792.242, 571.877 815 C 572.836 836.172, 573.704 840.454, 577.269 841.585 C 580.378 842.572, 582.901 839.127, 584.114 832.242 C 585.486 824.457, 583.847 788.470, 581.958 784.886 C 579.675 780.554, 577.100 779.900, 574.109 782.891 M 370.953 784.837 C 368.719 786.646, 368.557 787.522, 368.172 799.892 C 367.759 813.142, 369.128 831.290, 371.069 838.299 C 372.533 843.587, 376.438 845.412, 379.143 842.072 C 381.871 838.702, 380.922 790.083, 378.048 786 C 375.773 782.769, 373.889 782.460, 370.953 784.837 M 525.573 787.570 C 522.957 790.185, 522.711 793.301, 523.261 816.851 C 523.839 841.585, 524.582 845.606, 528.769 846.657 C 535.037 848.230, 536.544 840.720, 535.742 811.907 C 535.315 796.559, 534.842 791.595, 533.572 789.140 C 531.748 785.612, 528.222 784.920, 525.573 787.570 M 423.072 788.928 C 420.251 791.749, 419.636 798.285, 420.292 818.472 C 421.129 844.250, 422.924 850.428, 429.016 848.495 C 432.577 847.365, 433.235 841.816, 432.856 816.086 C 432.500 791.826, 432.500 791.826, 429.694 789.413 C 426.304 786.498, 425.557 786.443, 423.072 788.928 M 475.025 789.975 C 473.939 791.061, 472.749 793.154, 472.379 794.626 C 471.378 798.613, 472.729 840.913, 473.995 845.242 C 475.404 850.059, 479.113 851.331, 482.341 848.105 C 484.385 846.062, 484.518 844.871, 484.844 825.760 C 485.276 800.372, 484.620 793.529, 481.451 790.360 C 478.578 787.487, 477.573 787.427, 475.025 789.975" stroke="none" fill="#1932e1" fill-rule="evenodd"/>
</svg>