<svg xmlns="http://www.w3.org/2000/svg" width="1000" height="1000" viewBox="0 0 1000 1000" version="1.1">
	<path d="M 417.410 127.417 C 384.669 134.901, 366.477 157.867, 366.647 191.500 C 366.846 230.786, 387.355 258.071, 437.846 286.222 C 462.622 300.035, 470.004 307.199, 469.996 317.421 C 469.990 325.363, 468.696 326.922, 446.107 346.193 C 435.937 354.869, 432.487 361.065, 432.539 370.559 C 432.614 384.132, 440.048 394.115, 460.488 408.089 C 466.531 412.221, 472.900 417.469, 474.642 419.752 C 484.594 432.801, 476.058 447.592, 451.707 459.489 C 440.222 465.101, 428.947 469.437, 429.068 468.196 C 429.105 467.813, 432.551 464.576, 436.725 461.002 C 454.319 445.937, 458.147 432.810, 448.168 421.764 C 443.232 416.301, 441.431 415.828, 426 415.946 C 385.879 416.251, 331.258 428.258, 288.500 446.169 C 239.939 466.512, 212.309 490.419, 202.392 520.676 C 196.037 540.065, 199.550 582.656, 210.396 617.723 C 232.605 689.530, 276.045 742.367, 343.757 779.937 C 355.237 786.306, 358 788.766, 358 792.617 C 358 799.489, 362.217 808.402, 368.389 814.574 C 382.585 828.770, 420.513 841.471, 456 843.911 C 486.403 846.002, 494.137 846.149, 515.500 845.042 C 564.988 842.478, 586.344 838.058, 614.728 824.502 C 629.078 817.648, 634.176 812.777, 639.951 800.398 C 642.234 795.504, 644.648 790.394, 645.315 789.043 C 646.126 787.401, 650.821 784.318, 659.463 779.752 C 713.610 751.144, 753.892 704.819, 781.027 639.950 C 790.845 616.480, 795.698 598.320, 801.115 564.775 C 806.061 534.153, 802.564 519, 785.943 499.027 C 775.177 486.090, 745.490 466, 737.139 466 C 734.375 466, 722.468 477.974, 703.250 500.080 C 697.282 506.945, 698.999 509.282, 713 513.350 C 748.308 523.610, 765.575 538.659, 765.456 559.069 C 765.338 579.317, 747.529 594.952, 706 611.268 C 625.780 642.786, 505.742 654.382, 408.173 640.038 C 323.580 627.602, 252.128 599.129, 241.480 573.611 C 239.857 569.721, 239.857 569.721, 243.840 570.358 C 249.683 571.293, 256.155 574.322, 265.873 580.670 C 297.552 601.363, 345.297 617.110, 407.500 627.379 C 444.378 633.468, 459.050 634.248, 515.500 633.121 C 592.924 631.575, 677.733 612.670, 724.525 586.527 C 762.184 565.487, 749.364 535.564, 698.201 525.085 C 689.774 523.359, 678 523.874, 678 525.969 C 678 527.501, 689.920 535.960, 700.500 541.936 C 717.247 551.394, 722.653 557.594, 719.917 564.201 C 718.534 567.538, 717.032 568.407, 702.899 574.047 C 687.690 580.115, 680.148 578.935, 678.516 570.231 C 676.686 560.477, 670.176 553.489, 655.760 545.805 C 641.425 538.163, 637.500 535.077, 637.500 531.449 C 637.500 526.921, 644.749 524.772, 661.353 524.379 C 674.955 524.057, 675.961 523.736, 679.005 518.743 C 679.930 517.227, 692.345 503.511, 706.593 488.264 C 720.842 473.017, 738.350 454.242, 745.500 446.542 C 752.650 438.842, 766.633 423.983, 776.573 413.521 C 822.955 364.706, 824.559 362.868, 825.592 357.361 C 827.555 346.897, 814.599 333.876, 804.696 336.361 C 799.884 337.569, 793.939 343.266, 779.443 360.562 C 771.224 370.368, 752.403 392.590, 737.617 409.945 C 722.832 427.300, 701.622 452.300, 690.486 465.500 C 645.891 518.356, 641.990 521.182, 666.329 483 C 670.712 476.125, 677.006 466.225, 680.316 461 C 700.667 428.880, 740.341 368.379, 757.041 344 C 772.630 321.241, 774.338 315.227, 767.330 307.762 C 758.749 298.620, 746.328 297.705, 738.821 305.661 C 735.072 309.634, 684.019 396.085, 646.201 462.500 C 619.010 510.252, 616.606 513.940, 614.228 511.561 C 613.387 510.720, 620.176 497.415, 635.830 469.222 C 652.608 439.003, 653.092 437.864, 650.389 434.877 C 646.751 430.857, 626.752 424.583, 601.553 419.555 C 573.162 413.891, 559.670 412.550, 530.828 412.523 C 505.155 412.500, 505.155 412.500, 503.061 408.190 C 500.344 402.595, 493.085 394.881, 485.321 389.338 C 473.782 381.098, 470.363 375.177, 473.464 368.797 C 475.335 364.948, 476.854 363.758, 488.322 357.159 C 505.208 347.442, 512.063 339.426, 515.963 324.834 C 517.189 320.250, 519.575 314.025, 521.267 311 C 525.301 303.786, 540.731 288.481, 554.500 278.035 C 575.598 262.028, 582.049 254.410, 592.083 233.650 C 604.934 207.062, 605.300 188.288, 593.438 164.192 C 574.452 125.625, 529.456 119.829, 494.500 151.446 C 491.750 153.934, 488.646 155.976, 487.602 155.984 C 486.558 155.993, 481.833 152.273, 477.102 147.717 C 458.594 129.897, 437.678 122.784, 417.410 127.417 M 434.703 167.382 C 412.732 175.567, 408.508 202.645, 425.481 226.500 C 432.455 236.302, 440.058 242.701, 465.979 260.582 C 472.292 264.937, 480.892 271.762, 485.090 275.750 C 489.288 279.738, 493.213 283, 493.813 283 C 494.413 283, 496.367 280.863, 498.154 278.250 C 502.815 271.440, 509.555 264.486, 525.634 249.902 C 541.268 235.722, 547.538 228.161, 552.817 217.120 C 567.375 186.673, 542.403 159.860, 512.516 173.846 C 507.291 176.291, 503.734 179.037, 497.394 185.521 C 486.707 196.452, 485.677 196.506, 478.543 186.508 C 469.156 173.353, 458.773 166.882, 446.139 166.312 C 441.212 166.090, 437.152 166.470, 434.703 167.382 M 320.979 453.556 C 319.268 458.056, 317.864 474.272, 318.559 481.500 C 320.757 504.353, 329.838 520.727, 346.492 531.866 C 356.985 538.884, 375.282 544.670, 378.511 541.991 C 380.715 540.162, 380.809 540.358, 369.843 523.819 C 359.700 508.523, 348.316 488.350, 349.282 487.385 C 350.203 486.464, 365.110 500.190, 372.139 508.431 C 375.924 512.869, 380.876 520.100, 383.143 524.500 C 387.715 533.374, 391.579 539, 393.102 539 C 396.548 539, 399.232 518.970, 397.110 509.079 C 392.230 486.322, 369.615 466.098, 335.642 454.107 C 324.719 450.251, 322.270 450.159, 320.979 453.556 M 587.500 459.981 C 582.550 460.418, 565 461.283, 548.500 461.903 C 500.424 463.710, 493.610 465.227, 505.821 471.405 C 528.144 482.700, 576.395 483.164, 605.229 472.362 C 611.748 469.920, 618 465.373, 618 463.074 C 618 460.011, 603.649 458.556, 587.500 459.981 M 454.782 474.553 C 445.823 476.725, 438.142 481.157, 424.566 491.987 C 411.338 502.539, 410.225 504.225, 414 508 C 418.107 512.107, 428.844 509.213, 439.538 501.118 C 454.600 489.715, 467.738 487.092, 483.145 492.410 C 492.510 495.642, 500.140 495.860, 503.023 492.977 C 505.464 490.536, 504.750 488.744, 499.501 484.135 C 488.779 474.721, 470.365 470.775, 454.782 474.553 M 539.500 494.556 C 538.400 494.811, 535.172 495.490, 532.327 496.064 C 525.120 497.520, 524.273 498.914, 528.272 502.735 C 532.376 506.655, 536.786 508.449, 546.084 509.980 C 550.163 510.651, 555.945 511.605, 558.934 512.100 C 576.507 515.010, 601.697 510.160, 597.194 504.734 C 592.808 499.448, 550.546 491.993, 539.500 494.556 M 472.870 504.007 C 455.319 506.785, 444.619 512.935, 420.685 534 C 410.351 543.095, 409.786 544.036, 413.223 546.443 C 419.404 550.773, 430.245 547.515, 442.953 537.507 C 454.590 528.343, 461.565 524.555, 471.686 521.905 C 488.086 517.611, 507.767 522.808, 521.815 535.143 C 529.484 541.876, 540.926 545.189, 543.649 541.465 C 546.218 537.951, 545.220 535.082, 539.250 528.823 C 520.845 509.526, 496.203 500.313, 472.870 504.007 M 278 514.653 C 262.554 517.702, 249.781 522.954, 243.205 528.960 C 238.969 532.829, 239.159 534.778, 244.250 539.658 C 265.024 559.576, 283.850 566.126, 306.792 561.419 C 317.662 559.188, 335 550.895, 335 547.925 C 335 546.589, 325.616 543.983, 317.418 543.042 C 305.156 541.634, 284.017 536.445, 284.005 534.840 C 283.990 532.847, 306.261 532.664, 322.500 534.523 C 325.250 534.838, 328.143 534.660, 328.930 534.128 C 332.211 531.906, 319.844 520.709, 309.719 516.736 C 304.535 514.702, 284.439 513.382, 278 514.653 M 590.500 524.887 C 584.313 526.534, 563.256 537.907, 560.643 541.013 C 553.175 549.888, 559.773 558.601, 580.350 567.039 C 592.982 572.219, 596.778 574.691, 606.708 584.200 C 618.398 595.395, 625.799 598.106, 635 594.565 C 647.396 589.795, 659.867 583.402, 662.867 580.279 C 671.056 571.754, 663.707 561.957, 639.500 549.129 C 636.200 547.381, 629.342 542.435, 624.261 538.140 C 609.776 525.895, 600.454 522.236, 590.500 524.887 M 464.248 538.814 C 449.798 543.987, 454.183 549.499, 474 551.072 C 491.121 552.431, 501.772 556.390, 520.068 568.193 C 532.850 576.438, 549.134 581.829, 557.165 580.472 C 562.130 579.633, 562.022 579.063, 555.750 572.992 C 543.938 561.557, 516.003 544.871, 500.500 539.990 C 490.398 536.810, 471.552 536.199, 464.248 538.814 M 350.492 556.864 C 342.119 559.262, 332.961 563.707, 321.926 570.726 C 316.742 574.024, 309.720 578.125, 306.323 579.839 C 298.640 583.715, 298.110 584.564, 301.350 587.805 C 303.484 589.939, 305.101 590.475, 310.418 590.814 C 318.779 591.346, 323.546 589.697, 336.131 581.919 C 347.787 574.715, 353.368 572.426, 365.295 569.958 C 373.847 568.188, 381.230 564.837, 384.042 561.449 C 388.586 555.974, 364.898 552.737, 350.492 556.864 M 426.500 560.448 C 410.133 563.007, 397.219 568.103, 379.500 578.995 C 372.900 583.052, 362.776 588.875, 357.003 591.936 C 344.802 598.403, 343.764 600.084, 350.174 602.993 C 359.603 607.272, 369.287 605.198, 385.500 595.428 C 411.724 579.626, 427.617 575.020, 451.440 576.316 C 474.541 577.574, 489.904 583.206, 523.641 602.786 C 545.270 615.338, 556.285 619.127, 577.258 621.228 C 597.137 623.218, 617.494 618.581, 618.807 611.763 C 619.289 609.262, 607.957 606.274, 593 604.958 C 570.856 603.010, 555.647 598.736, 538 589.500 C 484.747 561.629, 460.074 555.200, 426.500 560.448 M 435.765 590.025 C 419.093 592.640, 401.364 604.566, 403.968 611.415 C 405.404 615.193, 412.043 615.017, 420.022 610.989 C 437.727 602.051, 459.910 603.272, 478.500 614.206 C 493.775 623.191, 501.146 625.044, 507.840 621.583 C 511.920 619.473, 511.821 618.184, 507.250 613.852 C 488.699 596.272, 459.016 586.378, 435.765 590.025" stroke="none" fill="#fa4b19" fill-rule="evenodd"/>
</svg>