<svg xmlns="http://www.w3.org/2000/svg" width="1000" height="1000" viewBox="0 0 1000 1000" version="1.1">
	<path d="M 541 122.640 C 517.470 124.009, 476.453 130.544, 441.500 138.492 C 414.898 144.541, 410.709 149.659, 412.990 173.322 C 414.591 189.926, 420.487 222.568, 422.418 225.515 C 425.398 230.064, 429.870 230.452, 446 227.561 C 454.475 226.043, 469.741 224.349, 482.739 223.484 C 506.062 221.933, 512.314 221.142, 546.500 215.416 C 589.652 208.189, 588.937 208.823, 583.435 182.686 C 582.024 175.984, 579.527 163.609, 577.886 155.187 C 574.528 137.949, 573.928 136.011, 570.332 130.785 C 565.860 124.285, 556.654 121.728, 541 122.640 M 503.820 241.750 C 495.756 250.430, 487.057 266.252, 487.022 272.300 C 486.935 287.264, 511.159 295.152, 524.005 284.342 C 533.369 276.463, 532.304 268.515, 519.350 249.607 C 511.292 237.844, 508.677 236.521, 503.820 241.750 M 439.673 302.236 C 434.977 306.932, 434.361 326.803, 438.774 331.223 C 441.516 333.969, 449.922 334.423, 519.034 335.560 C 572.078 336.432, 568.304 337.596, 568.836 320.200 C 569.171 309.223, 569.171 309.223, 566.169 305.861 C 563.166 302.500, 563.166 302.500, 521.833 301.877 C 499.100 301.534, 471.885 300.903, 461.357 300.475 C 442.213 299.696, 442.213 299.696, 439.673 302.236 M 437.648 346.092 C 436.355 347.938, 436 350.860, 436 359.650 C 436 387.412, 431.834 399.826, 413.113 427.847 C 402.852 443.204, 386.386 469.374, 383.759 474.500 C 378.285 485.178, 369.455 521.754, 367.099 543.500 C 364.621 566.385, 364.314 614.174, 366.499 637 C 368.532 658.233, 370.678 689.096, 371.992 716 C 374.827 774.020, 379.738 829.199, 383.542 845.771 C 387.968 865.058, 398.569 871.569, 429.500 873.999 C 437.200 874.604, 447.100 875.535, 451.500 876.068 C 464.759 877.675, 522.692 878.352, 543 877.137 C 595.869 873.975, 608.183 869.457, 612.884 851.500 C 615.835 840.224, 621.923 784.908, 624 750.500 C 626.587 707.620, 630.029 670.931, 633.983 644.071 C 642.434 586.677, 635.999 524.737, 616.972 480.316 C 611.012 466.402, 607.159 459.712, 593.399 439.387 C 574.324 411.213, 568.840 394.681, 568.888 365.508 C 568.910 352.418, 567.889 347.417, 565.010 346.503 C 563.984 346.177, 555.349 346.433, 545.822 347.071 C 522.076 348.661, 475.547 347.421, 445.898 344.409 C 439.723 343.782, 439.190 343.890, 437.648 346.092 M 498.400 486.844 C 487.681 494.662, 474.053 512.110, 467.371 526.573 C 460.885 540.610, 458.717 551.240, 458.615 569.500 C 458.482 593.200, 462.663 609.409, 475.597 635.335 C 479.119 642.394, 482 649.111, 482 650.261 C 482 651.412, 479.682 656.211, 476.848 660.927 C 452.677 701.149, 454.777 708.234, 487.785 697.828 C 501.069 693.640, 501.069 693.640, 513.785 697.909 C 529.861 703.306, 535.917 704.083, 538.873 701.127 C 543.484 696.516, 541.240 689.594, 527.103 664.818 C 523.196 657.971, 520 651.650, 520 650.770 C 520 649.891, 523.576 642.270, 527.947 633.836 C 542.950 604.885, 547.864 588.916, 548.669 566.500 C 549.713 537.442, 541.886 516.161, 522.422 495.139 C 511.477 483.317, 505.885 481.386, 498.400 486.844 M 414.402 745.997 C 399.753 748.144, 390.830 754.489, 392.591 761.507 C 394.092 767.488, 400.301 769.168, 413.137 767.065 C 422.002 765.613, 429.139 767.560, 439.857 774.355 C 451.845 781.954, 456.195 783.366, 465.837 782.786 C 473.743 782.310, 473.771 782.299, 491 773.009 C 499.103 768.640, 505.664 768.822, 514.677 773.668 C 528.353 781.019, 530.602 782.006, 536.263 783.133 C 544.183 784.711, 552.924 782.501, 562.588 776.478 C 574.790 768.873, 578.265 767.702, 589.122 767.541 C 599.883 767.381, 603.074 766.095, 604.769 761.233 C 607.391 753.710, 600.191 747.861, 587.486 747.195 C 576.788 746.633, 570.099 748.566, 558.342 755.618 C 543.257 764.666, 541.045 764.703, 526.105 756.162 C 507.713 745.647, 499.247 745.657, 479.026 756.218 C 464.159 763.982, 461.136 763.968, 449.112 756.073 C 435.598 747.202, 425.731 744.337, 414.402 745.997 M 409.355 796.089 C 396.292 799.201, 397.384 812.526, 410.862 814.478 C 422.618 816.182, 425.777 817.258, 435.859 822.996 C 449.468 830.741, 454.921 832.364, 465.409 831.794 C 473.744 831.341, 474.444 831.091, 489.900 823.049 C 498.190 818.736, 504.515 818.466, 511.572 822.124 C 514.283 823.528, 519.387 826.173, 522.916 828 C 535.720 834.630, 546.782 833.387, 563.496 823.440 C 572.033 818.360, 581.356 815.005, 586.960 814.996 C 593.623 814.986, 599.150 808.191, 596.904 802.769 C 595.084 798.375, 590.694 796.540, 582 796.540 C 572.713 796.541, 566.800 798.496, 556.590 804.943 C 548.536 810.029, 540.782 812.619, 536.808 811.552 C 535.539 811.210, 528.989 808.147, 522.253 804.743 C 504.528 795.787, 496.610 796.029, 479.085 806.061 C 465.735 813.704, 459.913 813.557, 445.299 805.208 C 429.565 796.219, 419.514 793.669, 409.355 796.089" stroke="none" fill="#964b32" fill-rule="evenodd"/>
</svg>