<svg xmlns="http://www.w3.org/2000/svg" width="1000" height="1000" viewBox="0 0 1000 1000" version="1.1">
	<path d="M 501 208.992 C 495.225 209.415, 481.500 210.071, 470.500 210.450 C 434.378 211.694, 432.598 212.904, 425.877 240.810 C 421.363 259.554, 421.795 259.158, 403.956 260.936 C 366.832 264.636, 330.481 273.557, 309.768 284.048 C 302.998 287.477, 302.444 287.342, 297.051 280.945 C 288.469 270.768, 279.180 268.265, 261.500 271.365 C 240.822 274.991, 225.653 281.729, 221.834 288.984 C 219.194 294, 219.479 298.202, 224.543 328.931 C 230.684 366.192, 237.217 385.883, 247.379 397.762 C 250.864 401.835, 252.023 404.095, 252.508 407.762 C 254.159 420.241, 257.275 437.414, 259.967 448.860 C 261.602 455.812, 265.001 471.625, 267.521 484 C 270.041 496.375, 273.631 512.575, 275.497 520 C 279.258 534.956, 281.026 544.503, 286.976 582 C 298.395 653.955, 313.393 731.664, 316.982 737.471 C 326.738 753.256, 354.817 766.462, 405.325 779.019 C 477.163 796.880, 531.380 796.069, 617.500 775.843 C 646.140 769.117, 671.513 756.558, 679.927 744.942 C 684.030 739.278, 685.411 734.467, 689.529 711.500 C 691.501 700.500, 695.112 682.837, 697.553 672.248 C 702.376 651.324, 706.376 630.039, 710.472 603.500 C 715.698 569.631, 719.239 549.130, 724.020 525.046 C 726.701 511.546, 729.816 492.850, 730.944 483.500 C 736.826 434.736, 741.085 415.927, 749.359 402.180 C 760.716 383.309, 764.708 369.885, 775.933 312.823 C 780.511 289.549, 780.733 286.210, 778.087 280.384 C 774.640 272.795, 763.415 267.061, 742.628 262.272 C 717.427 256.466, 711.343 258.298, 697.123 275.970 C 694.949 278.673, 693.169 279.997, 692.123 279.688 C 656.946 269.310, 626.213 263.544, 592.500 260.999 C 570.134 259.311, 571.130 260.138, 566.585 239.500 C 559.969 209.457, 559.277 208.878, 529.500 208.469 C 519.600 208.334, 506.775 208.569, 501 208.992 M 427 295.079 C 386.110 298.520, 337.959 312.741, 324.627 325.315 C 321.452 328.310, 321 329.325, 321 333.461 C 321 339.792, 324.715 357.709, 326.738 361.134 C 332.839 371.462, 378.699 381.616, 434.869 385.074 C 453.329 386.210, 535.106 385.803, 549 384.505 C 621.286 377.753, 667.563 369.062, 674.383 360.956 C 678.466 356.104, 681.625 334.338, 679.123 328.297 C 673.244 314.104, 601.919 294, 557.441 294 C 544.893 294, 544.061 294.861, 539.071 313 C 534.395 329.995, 533.329 332.523, 530.224 333.985 C 524.291 336.778, 472.409 336.510, 468.586 333.667 C 467.723 333.025, 464.748 325.075, 461.975 316 C 454.732 292.293, 455.395 292.690, 427 295.079 M 427.821 453.357 C 410.006 458.298, 404.003 480.015, 417.238 491.636 C 433.143 505.601, 459.044 495.162, 458.994 474.807 C 458.960 460.419, 442.698 449.230, 427.821 453.357 M 563.718 453.054 C 552.282 455.860, 545.068 464.629, 545.022 475.782 C 544.916 501.212, 583.316 506.688, 592.531 482.558 C 598.884 465.923, 581.948 448.582, 563.718 453.054 M 368.764 521.996 C 352.805 526.801, 349.810 547.761, 364.044 555.023 C 377.918 562.100, 393.775 551.325, 391.529 536.347 C 390.066 526.587, 378.251 519.139, 368.764 521.996 M 617.164 525.201 C 606.754 530.247, 603.783 544.127, 611.284 552.670 C 618.913 561.360, 634.488 561.145, 640.812 552.263 C 652.366 536.037, 635.241 516.440, 617.164 525.201 M 415.500 560.314 C 395.177 570.156, 400.775 596.692, 423.416 597.836 C 451.893 599.274, 454.758 560.632, 426.343 558.360 C 421.576 557.979, 419.579 558.339, 415.500 560.314 M 563.491 561.865 C 548.133 568.842, 546.843 589.814, 561.264 598.074 C 567.611 601.709, 578.691 601.563, 585.163 597.759 C 599.741 589.189, 598.351 568.044, 582.782 561.551 C 577.750 559.452, 568.470 559.603, 563.491 561.865 M 490.196 575.848 C 467.901 583.757, 471.166 612.433, 494.718 615.557 C 518.860 618.759, 530.189 587.918, 508.895 576.962 C 503.261 574.064, 496.381 573.653, 490.196 575.848 M 479.500 674.600 C 448.828 676.825, 441.200 678.094, 437.997 681.503 C 433.914 685.850, 427.496 730.784, 430.213 736 C 436.042 747.187, 502.730 751.732, 553.500 744.402 C 577.362 740.957, 578.864 739.348, 577.002 719.233 C 575.373 701.635, 572.527 685.453, 570.524 682.396 C 566.612 676.425, 556.236 674.931, 516 674.541 C 498.675 674.374, 482.250 674.400, 479.500 674.600" stroke="none" fill="#961932" fill-rule="evenodd"/>
</svg>