<svg xmlns="http://www.w3.org/2000/svg" width="1000" height="1000" viewBox="0 0 1000 1000" version="1.1">
	<path d="M 429 160.068 C 386.116 164.804, 358.492 179.861, 328.221 215 C 311.458 234.459, 307.216 240.701, 297.980 259.500 C 286.122 283.637, 281.148 299.383, 273.026 338.500 C 265.167 376.353, 263.830 387.270, 263.269 418.120 C 261.869 495.274, 271.878 535.788, 311.587 613.688 C 329.251 648.340, 329.040 647.142, 320.382 663.734 C 310.676 682.334, 304.266 692.566, 293.120 707.257 C 287.176 715.090, 276.750 729.375, 269.952 739 C 263.154 748.625, 253.564 761.900, 248.640 768.500 C 235.917 785.554, 232.659 792.801, 232.163 805.152 C 231.814 813.845, 232.030 815.387, 234.298 820.339 C 244.376 842.353, 269.754 847.472, 287.378 831.046 C 293.852 825.012, 297.677 819.212, 310.491 796 C 337.758 746.604, 355.188 720.408, 371.179 704.789 C 389.126 687.258, 397.917 685.711, 436 693.377 C 531.418 712.587, 611.203 699.758, 685.343 653.285 C 705.209 640.832, 707.960 638.692, 732.274 616.771 C 765.112 587.165, 779.806 569.539, 796.696 539.500 C 806.021 522.916, 807.859 516.629, 813.651 481.500 C 819.854 443.885, 816.739 395.710, 805.978 362.846 C 792.652 322.145, 761.159 280.561, 718.580 247.447 C 654.499 197.609, 586.780 171.258, 497.500 161.418 C 480.593 159.555, 440.754 158.770, 429 160.068 M 485.087 279.704 C 480.313 285.485, 473.861 298.790, 467.241 316.500 C 461.018 333.147, 460.619 334.339, 446.504 378.500 C 441.758 393.350, 433.371 419.450, 427.867 436.500 C 422.363 453.550, 416.122 472.900, 413.998 479.500 C 394.871 538.939, 381 590.009, 381 600.988 C 381 604.177, 383.047 606.303, 385.290 605.442 C 389.172 603.952, 392.604 594.781, 411.472 535.475 C 422.303 501.428, 436.557 456.905, 443.147 436.535 C 470.316 352.551, 477.233 331.220, 479.068 325.750 C 481.426 318.723, 487.171 298.072, 489.473 288.351 C 492.273 276.525, 490.538 273.103, 485.087 279.704 M 573.967 302.727 C 562.380 315.404, 552.170 332.251, 517.741 395.500 C 511.154 407.600, 503.614 421.325, 500.985 426 C 498.356 430.675, 491.375 443.275, 485.473 454 C 475.982 471.244, 444.293 527.116, 415.993 576.500 C 400.975 602.707, 398.133 608.980, 399.949 611.918 C 401.103 613.784, 405.768 611.914, 409.284 608.177 C 414.273 602.875, 432.480 573.254, 464.713 518 C 492.033 471.169, 500.135 457.015, 538.276 389.500 C 556.555 357.144, 568.995 332.773, 575.453 316.669 C 583.324 297.044, 582.889 292.965, 573.967 302.727 M 383.245 299.217 C 377.560 306.127, 375.350 336.310, 366.964 521.500 C 366.391 534.150, 365.468 552.600, 364.912 562.500 C 362.533 604.874, 362.542 602.251, 364.758 604.968 C 368.495 609.549, 371.404 605.250, 372.905 592.930 C 382.217 516.493, 389.919 390.182, 389.364 323 C 389.199 303.100, 387.019 294.628, 383.245 299.217 M 310.994 348.515 C 306.612 360.041, 310.585 397.523, 324.985 480.500 C 332.801 525.542, 337.382 553.489, 341.003 578.220 C 344.856 604.541, 346.322 610, 349.537 610 C 352.966 610, 353.240 603.569, 350.592 585.247 C 349.182 575.486, 347.555 562.325, 346.977 556 C 341.140 492.128, 337.731 466.744, 325.016 392.500 C 317.834 350.558, 314.360 339.662, 310.994 348.515 M 638.946 369.831 C 631.188 374.770, 623.439 382.650, 592.091 417.480 C 575.266 436.173, 556.319 457.100, 549.986 463.984 C 536.920 478.188, 482.529 538.134, 471.034 551 C 454.180 569.864, 420.029 610.470, 416.567 615.762 C 408.753 627.706, 416.045 627.855, 429.228 616.021 C 435.346 610.529, 469.507 574.446, 495.005 546.544 C 503.527 537.218, 524.907 514.043, 542.515 495.044 C 588.942 444.949, 623.111 406.276, 633.361 392.223 C 641.031 381.707, 647.349 367, 644.196 367 C 643.753 367, 641.391 368.274, 638.946 369.831 M 690 459.280 C 676.059 463.825, 653.929 476.333, 608.500 505.340 C 594.750 514.120, 576.750 525.583, 568.500 530.814 C 549.230 543.032, 512.409 567.698, 499.331 577.150 C 433.904 624.439, 420.192 635.525, 423.292 638.625 C 425.144 640.477, 442.367 630.961, 470.500 612.542 C 494.625 596.748, 577.183 543.798, 606.341 525.419 C 647.835 499.264, 691.996 469.706, 697.250 464.572 C 705.176 456.826, 702.815 455.103, 690 459.280 M 292.357 479.513 C 289.078 488.056, 298.232 526.387, 313.249 567 C 321.756 590.008, 327.152 599.248, 330.263 596.137 C 335.256 591.144, 301.404 480.277, 294.251 478.197 C 293.563 477.997, 292.711 478.590, 292.357 479.513 M 675.289 558.077 C 654.804 562.380, 538.041 601.681, 499.500 617.245 C 484.618 623.255, 448.207 639.933, 441.976 643.593 C 437.305 646.337, 435.175 649.746, 437.560 650.661 C 442.542 652.573, 457.354 648.108, 525.500 624.148 C 547.500 616.413, 587.100 602.805, 613.500 593.909 C 665.410 576.416, 678.241 571.666, 687.500 566.513 C 694.204 562.782, 698.550 558.699, 697.546 557.074 C 696.529 555.428, 685.542 555.923, 675.289 558.077 M 600.500 638.480 C 594.450 639.221, 575.325 642.328, 558 645.384 C 527.491 650.765, 508.271 653.598, 472.299 658.016 C 441.046 661.854, 429.675 666.342, 439.668 670.894 C 462.932 681.495, 646.520 651.120, 634.122 638.722 C 632.400 637, 613.671 636.865, 600.500 638.480 M 262 791.656 C 259.152 792.793, 256.054 796.305, 254.951 799.647 C 251.377 810.477, 264.733 818.113, 272.923 809.923 C 276.920 805.926, 277.310 798.635, 273.748 794.494 C 271.474 791.850, 265.268 790.351, 262 791.656" stroke="none" fill="#00964b" fill-rule="evenodd"/>
</svg>