<svg xmlns="http://www.w3.org/2000/svg" width="1000" height="1000" viewBox="0 0 1000 1000" version="1.1">
	<path d="M 206.874 231.362 C 177.878 243.289, 152.913 273.912, 148.949 302.415 C 144.394 335.164, 172.361 364.689, 210.750 367.657 C 220.315 368.397, 222.133 369.621, 219.541 373.579 C 216.678 377.947, 212.433 379, 197.692 379 C 177.142 379, 164.137 383.207, 149.759 394.504 C 135.672 405.573, 135.137 413.498, 148.035 420.015 C 165.224 428.700, 184.901 429.946, 200.491 423.338 C 212.416 418.283, 213.983 418.950, 212.051 428.254 C 210.059 437.851, 205.927 444.853, 196.097 455.292 C 182.569 469.657, 178.525 479.571, 180.917 492.510 C 182.428 500.684, 186.114 508.139, 191.482 513.877 C 196.104 518.819, 196.104 518.819, 192.802 521.277 C 183.573 528.148, 181.391 528.356, 170 523.453 C 160.037 519.164, 149.693 519.373, 140.374 524.050 C 131.405 528.551, 131.251 530.384, 139.500 534.477 C 146 537.702, 158.408 538.587, 169.250 536.599 C 177.004 535.177, 174.293 539.841, 163.566 546.380 C 155.122 551.527, 148.450 562.222, 146.547 573.660 C 144.015 588.878, 172.486 566.822, 175.623 551.134 C 176.227 548.116, 183.568 540.234, 184.711 541.377 C 185.004 541.670, 184.681 544.892, 183.993 548.536 C 181.368 562.450, 185.886 580.500, 191.995 580.500 C 199.233 580.500, 202.253 555.637, 196.534 543.133 C 192.969 535.338, 193.786 533.014, 201.486 529.056 C 210.181 524.586, 221.001 525.308, 238.500 531.526 C 252.500 536.500, 252.500 536.500, 265.500 536.461 C 277.417 536.425, 279.300 536.155, 288.103 533.211 C 304.986 527.566, 311.366 529.141, 317.636 540.500 C 324.518 552.968, 327.420 564.898, 334.966 611.724 C 343.196 662.797, 343.438 665.065, 343.434 691 C 343.431 714.500, 343.431 714.500, 339.716 724.946 C 334.231 740.368, 334.942 746.406, 342.620 749.615 C 351.163 753.184, 385.729 753.229, 394.219 749.682 C 400.632 747.002, 401.327 744.705, 402.136 723.500 C 402.535 713.050, 403.762 696.175, 404.863 686 C 405.963 675.825, 407.380 661.425, 408.011 654 C 409.320 638.600, 410.372 635.995, 415.273 636.010 C 419.302 636.022, 427.769 639.941, 430.734 643.165 C 437.010 649.992, 441.424 672.993, 441.447 699 C 441.465 718.500, 441.465 718.500, 437.732 729.389 C 431.822 746.632, 432.974 753.395, 442.304 756.224 C 449.507 758.408, 484.185 757.848, 490.918 755.439 C 500.338 752.068, 500.394 751.890, 501.163 722.678 C 501.528 708.830, 502.339 691.875, 502.964 685 C 507.201 638.415, 507.216 638.357, 514.351 639.326 C 516.633 639.635, 523.900 641.033, 530.500 642.431 C 562.062 649.118, 589.057 648.510, 621.369 640.386 C 633.755 637.272, 634.154 637.523, 636.412 649.823 C 640.313 671.080, 636.747 697.199, 626.889 719.577 C 615.797 744.756, 619.099 748.269, 654 748.417 C 683.182 748.541, 684.843 747.464, 687.955 726.386 C 689.001 719.299, 691.948 706.300, 694.503 697.501 C 702.191 671.026, 703.057 666.641, 703.682 651 C 704.524 629.953, 705.792 628.878, 713.883 642.356 C 728.566 666.811, 732.651 680.910, 731.791 704.165 C 731.374 715.449, 730.980 717.515, 727.167 728.406 C 719.168 751.261, 721.822 754.578, 749 755.693 C 783.047 757.090, 789.473 752.507, 791.054 725.703 C 791.518 717.838, 793.096 700.625, 794.560 687.451 C 797.522 660.803, 797.436 652.388, 794.001 632.898 C 789.425 606.936, 790.225 595.493, 798.989 561.500 C 807.337 529.124, 809.827 513.755, 811.535 484.061 C 811.897 477.770, 812.611 471.523, 813.122 470.179 C 815.313 464.416, 820.606 474.836, 824.205 492 C 826.023 500.673, 826.138 503.808, 825.524 528 C 824.852 554.500, 824.852 554.500, 822.016 560.036 C 814.153 575.386, 813.797 590.167, 820.942 604.661 C 827.806 618.586, 850.818 640.542, 856.331 638.426 C 859.417 637.242, 864.533 617.873, 865.677 603.038 C 867.139 584.069, 859.761 566.602, 846.027 556.520 C 839.058 551.404, 838.439 548.679, 839.883 529.500 C 843.332 483.708, 838.703 464.181, 815.811 427.964 C 811.118 420.538, 805.433 410.598, 803.179 405.875 C 780.550 358.462, 732.722 333.595, 644.500 323.375 C 621.032 320.657, 575.139 320.897, 556.212 323.837 C 532.819 327.471, 527.984 330.089, 519.102 343.935 C 508.116 361.062, 498.074 371.615, 482.774 382.113 C 472.604 389.091, 472.587 391.408, 482.631 401.121 C 499.183 417.127, 511.010 444.156, 504.170 450.346 C 498.505 455.472, 476.936 460.974, 462.500 460.974 C 433.302 460.974, 403 444.201, 403 428.040 C 403 423.519, 405.984 424.087, 413.291 430 C 427.144 441.209, 440.898 445.690, 458.408 444.701 C 476.515 443.678, 487.025 439.220, 485.515 433.203 C 483.224 424.076, 473.965 412.124, 464.108 405.572 C 452.870 398.101, 448.280 396.910, 427.500 396.073 C 407.742 395.277, 404.265 394.346, 401.568 389.132 C 399.237 384.624, 400.817 384, 414.569 384 C 469.775 384, 520 345.237, 520 302.630 C 520 289.864, 513.769 272.287, 505.174 260.806 C 491.043 241.932, 468.066 228.744, 461.655 235.829 C 458.939 238.830, 459.664 241.098, 466.998 252.562 C 476.072 266.744, 478.490 273.681, 478.495 285.552 C 478.509 311.668, 455.746 329.155, 416.617 333.089 C 395.285 335.233, 382.228 333.151, 366 325.018 C 330.250 307.101, 301.792 304.398, 269 315.804 C 256.023 320.318, 255.093 320.495, 245 320.362 C 209.205 319.892, 190.375 300.452, 198.982 272.855 C 201.333 265.317, 205.397 258.393, 214.383 246.616 C 221.443 237.364, 222.541 233.704, 219.171 230.655 C 216.706 228.424, 213.578 228.604, 206.874 231.362 M 231.328 391.938 C 226.383 394.183, 223.732 397.797, 224.177 401.685 C 224.495 404.457, 224.591 404.496, 230.500 404.236 C 239.476 403.841, 242.325 404.654, 247.290 409.024 C 252.399 413.522, 254.424 413.945, 256.073 410.863 C 258.899 405.582, 253.715 395.136, 246.684 391.943 C 241.380 389.536, 236.623 389.534, 231.328 391.938 M 320.032 407.309 C 314.711 409.005, 307 416.924, 307 420.694 C 307 426.009, 309.017 426.596, 317.052 423.618 C 326.820 419.997, 331.851 420.183, 340.851 424.496 C 348.619 428.218, 351.194 428.115, 352.491 424.027 C 353.903 419.581, 346.691 410.440, 339.355 407.375 C 335.499 405.764, 324.994 405.728, 320.032 407.309 M 201.930 476.250 C 196.196 485.380, 205.660 501.606, 214.844 498.390 C 216.697 497.741, 217.929 496.224, 218.920 493.373 C 223.208 481.029, 208.339 466.044, 201.930 476.250 M 265.764 484.996 C 254.662 488.339, 246.425 501.425, 251.947 506.947 C 258.705 513.705, 274.370 510.510, 280.726 501.078 C 287.569 490.925, 278.488 481.164, 265.764 484.996" stroke="none" fill="#1932c8" fill-rule="evenodd"/>
</svg>