<svg xmlns="http://www.w3.org/2000/svg" width="1000" height="1000" viewBox="0 0 1000 1000" version="1.1">
	<path d="M 433.734 117.584 C 404.098 122.941, 381.833 142.316, 371.443 171.785 C 370.418 174.692, 368.887 177.690, 368.040 178.448 C 365.770 180.478, 332.192 198.300, 261 235.262 C 201.903 265.943, 187.616 274.415, 178.250 284.325 C 172.231 290.694, 171.961 291.643, 175.750 293.125 C 181.165 295.242, 196.186 291.211, 230.952 278.311 C 260.319 267.413, 298.528 253.516, 339 239.013 C 400.638 216.924, 395.234 218.562, 405 219.011 C 415.496 219.493, 422.447 219.477, 441 218.929 C 453.174 218.569, 455.981 218.766, 458.500 220.155 C 465.741 224.150, 468.824 230.932, 467.084 239.043 C 464.357 251.758, 456.353 261.177, 426 287.388 C 416.375 295.700, 404.735 306.325, 400.132 311 C 341.254 370.811, 336.596 444.132, 387.795 505.223 C 403.187 523.589, 425.129 539.277, 457 554.703 C 504.791 577.833, 508.888 579.986, 511.414 583.298 C 519.617 594.054, 536.311 643.112, 533.360 647.791 C 532.052 649.865, 529.314 650.442, 511 652.508 C 442.118 660.278, 437.575 661.837, 432.377 679.500 C 424.825 705.159, 446.349 753, 465.445 753 C 472.010 753, 471.895 746.165, 465.151 735.619 C 456.295 721.770, 452.027 711.713, 452.008 704.651 C 452 701.893, 452.242 702.028, 459.575 708.877 C 474.881 723.171, 495 729.167, 495 719.435 C 495 716.142, 491.654 712.548, 481.550 704.986 C 464.935 692.552, 460.063 683.260, 468.092 679.318 C 473.960 676.437, 502.930 672.129, 526.779 670.592 C 538.055 669.865, 538.330 670.181, 539.829 685.585 C 541.278 700.471, 540.747 779.612, 539.088 796 C 536.150 825.022, 533.811 844.809, 532.912 848.233 C 531.387 854.043, 529.969 854.369, 511.613 853.130 C 479.963 850.994, 474.371 850.849, 464.500 851.904 C 452.658 853.171, 447.986 854.372, 444.830 856.962 C 439.137 861.635, 446.655 864.599, 468 866.095 C 475.975 866.654, 486.325 867.424, 491 867.806 C 499.500 868.500, 499.500 868.500, 490.968 870.786 C 468.108 876.912, 463.154 884.099, 481.285 884.832 C 486.826 885.056, 499.589 883.851, 520.500 881.131 C 537.550 878.912, 554.200 876.817, 557.500 876.475 C 592.647 872.832, 607.500 869.567, 607.500 865.487 C 607.500 862.249, 598.944 860.128, 579.142 858.458 C 569.439 857.640, 560.740 856.731, 559.812 856.438 C 556.388 855.356, 555.663 849.603, 556.361 829.029 C 557.534 794.443, 561.054 768.285, 567.102 749.202 C 571.624 734.936, 571.998 728.757, 569.084 716.500 C 564.655 697.875, 562.804 672.392, 565.690 669.780 C 567.945 667.740, 585.501 666.030, 604.500 666.001 C 623.283 665.972, 649.636 664.196, 655.889 662.537 C 669.870 658.829, 670.615 650.778, 658.393 635.500 C 651.445 626.814, 651.871 626.649, 671.231 630.533 C 701.925 636.692, 719.801 644.734, 757.061 669.149 C 774.176 680.363, 776.414 681.349, 777.275 678.057 C 777.838 675.902, 773.571 662.502, 769.627 654.042 C 768.227 651.040, 767.276 648.391, 767.513 648.154 C 767.750 647.917, 770.769 650.070, 774.222 652.937 C 796.322 671.291, 816.182 685, 820.668 685 C 827.348 685, 823.310 667.440, 809.433 636.145 C 805.731 627.796, 802.912 620.755, 803.168 620.499 C 803.425 620.242, 806.754 621.363, 810.567 622.989 C 817.599 625.988, 825.314 626.919, 826.551 624.918 C 827.309 623.691, 793.488 555.559, 780.426 532 C 746.938 471.604, 733.744 451.993, 710.546 428.142 C 677.314 393.973, 641.677 373.841, 593.500 362.018 C 538.178 348.442, 499.678 352.812, 453 377.967 C 440.148 384.893, 433.342 382.616, 432.228 371.017 C 430.600 354.077, 444.096 335.218, 478 307.057 C 525.107 267.930, 545.459 236.634, 545.341 203.500 C 545.146 148.574, 491.356 107.166, 433.734 117.584 M 419.020 163.752 C 408.689 168.942, 408.954 181.925, 419.473 185.929 C 433.771 191.371, 442.625 169.337, 428.510 163.440 C 424.111 161.602, 423.242 161.630, 419.020 163.752 M 647 472.085 C 647 472.682, 651.849 478.870, 657.776 485.835 C 672.221 502.812, 686.673 520.683, 704.002 543 C 728.240 574.213, 740.083 587.185, 753 596.669 C 762.964 603.985, 764.685 603.010, 761.154 592.047 C 747.813 550.624, 702.739 500.495, 656 475.103 C 647.945 470.727, 647 470.410, 647 472.085 M 610 502.923 C 610 506.176, 645.454 547.511, 661.163 562.572 C 680.743 581.344, 700.069 594.237, 718.798 601.022 C 727.185 604.060, 728.399 602.999, 724.834 595.744 C 711.438 568.489, 666.255 529.673, 622.267 507.629 C 610.258 501.611, 610 501.513, 610 502.923 M 530.442 517.515 C 537.623 534.701, 563.259 561.104, 586.500 575.250 C 614.798 592.473, 653.881 605, 679.319 605 C 691.114 605, 687.522 602.166, 660.305 589.997 C 599.535 562.827, 579.478 551.448, 545 524.578 C 530.118 512.980, 528.148 512.024, 530.442 517.515 M 568.147 606.750 C 566.108 610.616, 564.710 621.178, 564.608 633.500 C 564.500 646.500, 564.500 646.500, 573 646.830 C 582.309 647.192, 609.271 645.405, 615.417 644.019 C 622.195 642.490, 622.798 640.889, 618.420 636.043 C 609.732 626.426, 577.581 605, 571.839 605 C 570.221 605, 568.687 605.727, 568.147 606.750 M 413.616 821.098 C 386.754 823.931, 362.606 831.990, 354.990 840.664 C 344.745 852.333, 361.736 864.458, 393.352 868.040 C 407.362 869.627, 409.133 868.120, 399.177 863.083 C 374.714 850.708, 390.710 839.899, 445.885 831.521 C 471.356 827.653, 475 826.902, 475 825.517 C 475 821.593, 435.730 818.765, 413.616 821.098 M 593.500 832.029 C 575.541 834.792, 579.606 837.411, 610.500 842.984 C 637.575 847.869, 652.702 852.881, 656.430 858.204 C 662.288 866.567, 652.684 873.753, 625.201 881.570 C 603.727 887.677, 603.070 888.596, 619.105 890.105 C 647.292 892.757, 680.698 884.646, 691.975 872.411 C 707.279 855.808, 691.609 839.259, 655.052 833.416 C 643.714 831.604, 602.328 830.672, 593.500 832.029 M 407.573 887.569 C 401.689 893.454, 425.004 905.634, 454 911.824 C 488.257 919.137, 543.832 917.173, 575.500 907.530 C 589.025 903.412, 585.501 902.335, 556.116 901.607 C 510.076 900.468, 486.995 898.246, 449.500 891.346 C 416.883 885.343, 410.385 884.758, 407.573 887.569" stroke="none" fill="#1996fa" fill-rule="evenodd"/>
</svg>