<svg xmlns="http://www.w3.org/2000/svg" width="1000" height="1000" viewBox="0 0 1000 1000" version="1.1">
	<path d="M 690.409 148.377 C 689.177 151.586, 700.074 173.855, 705.646 179.516 C 710.449 184.397, 711 185.401, 711 189.268 C 711 194.649, 708.670 203.767, 705.914 209.168 C 703.819 213.275, 703.819 213.275, 696.492 212.721 C 671.930 210.863, 643.726 223.346, 633.942 240.403 C 629.053 248.927, 630.385 254.641, 638.180 258.591 C 656.331 267.789, 691.394 260.633, 709.277 244.082 C 719.889 234.260, 721.678 226.211, 714.781 219.315 C 711.415 215.948, 711.415 215.948, 714.825 205.724 C 719.905 190.492, 720.878 189.493, 733.479 186.580 C 745.371 183.830, 757.329 174.627, 755.432 169.684 C 752.967 163.260, 732.415 168.358, 723.570 177.588 C 718.241 183.150, 718.235 183.148, 716.924 175.012 C 715.166 164.091, 709.154 154.850, 700.626 149.959 C 695.087 146.782, 691.249 146.188, 690.409 148.377 M 592 225.344 C 566.134 234.504, 543.151 260.680, 543.033 281.114 C 542.984 289.556, 547.229 293, 557.684 293 C 562.791 293, 561.054 294.371, 550.758 298.467 C 495.941 320.273, 448.133 363.690, 411.430 425 C 403.868 437.632, 402.510 437.708, 406.167 425.295 C 409.247 414.843, 409.564 386.377, 406.716 376 C 401.947 358.621, 393.391 347.023, 385.327 347.007 C 375.590 346.986, 366.529 366.688, 365.324 390.500 C 363.543 425.679, 382.445 458.928, 396.014 444.485 C 401.635 438.502, 401.280 442.694, 394.955 457.004 C 361.342 533.040, 353.238 619.934, 372.115 701.892 C 373.179 706.508, 373.866 710.467, 373.644 710.690 C 373.421 710.912, 369.584 700.161, 365.117 686.797 C 343.700 622.725, 332.556 593.569, 309.005 540 C 286.198 488.121, 281.114 476.141, 275.271 460.500 C 265.025 433.076, 260.027 413.921, 256.050 386.834 C 254.021 373.017, 252.644 370, 248.368 370 C 241.358 370, 237.344 396.247, 238.287 435.911 C 240.397 524.683, 270.165 623.255, 322.339 714.244 C 360.252 780.363, 404.819 840.783, 420.718 847.617 C 427.617 850.582, 435.475 848.263, 439.750 842.001 C 442.562 837.880, 442.594 834.581, 439.869 829.485 C 438.697 827.293, 434.601 819.685, 430.767 812.577 C 403.649 762.303, 386.677 710.132, 379.828 656 C 377.773 639.750, 378.081 582.129, 380.313 565.619 C 392.113 478.313, 431.371 401.687, 490.500 350.552 C 519.604 325.383, 553.572 305.852, 536.500 324.103 C 526.239 335.073, 533.160 345.030, 556 352.159 C 567.004 355.594, 595.613 355.626, 607.382 352.217 C 636.925 343.659, 641.475 330.257, 618.667 318.975 C 600.257 309.868, 574.748 308.378, 553.737 315.183 C 545.583 317.824, 542.478 316.613, 547.110 312.599 C 552.054 308.314, 588.058 294, 593.892 294 C 594.870 294, 596.863 295.340, 598.323 296.978 C 607.411 307.178, 626.245 312.672, 648.893 311.731 C 685.621 310.205, 695.799 292.079, 667.556 278.495 C 655.773 272.827, 649.311 271.500, 633.500 271.500 C 614.012 271.500, 600.427 276.524, 596.195 285.296 C 595.187 287.385, 594.164 288.007, 591.695 288.030 C 589.938 288.047, 584.225 288.900, 579 289.927 C 565.576 292.565, 565.556 292.302, 578.663 285.584 C 606.814 271.155, 627.986 234.959, 614.071 225.050 C 610.037 222.178, 600.585 222.304, 592 225.344 M 515.703 236.442 C 488.209 246.250, 463.278 298.023, 474.992 320.984 C 483.172 337.018, 510.982 319.843, 526.377 289.249 C 534.449 273.208, 537.509 251.576, 532.983 242.537 C 529.761 236.101, 523.174 233.777, 515.703 236.442 M 438.230 287.091 C 422.968 294.733, 409.610 330.153, 412.996 354 C 415.657 372.746, 420.633 381, 429.272 381 C 447.516 381, 464.966 336.099, 458.529 305.720 C 455.103 289.554, 447.410 282.494, 438.230 287.091 M 513.500 357.084 C 495.679 360.593, 478.823 369.751, 474.322 378.371 C 468.007 390.468, 488.020 402, 515.327 402 C 552.556 402, 585.106 382.211, 570.514 368.449 C 566.310 364.484, 558.627 360.638, 550.500 358.432 C 543.322 356.483, 520.733 355.661, 513.500 357.084 M 481.522 410.623 C 458.773 414.717, 436.994 427.119, 431.073 439.349 C 426.974 447.817, 429.088 452.725, 438.820 457.335 C 448.394 461.871, 471.263 462.024, 485.464 457.647 C 517.115 447.893, 537.299 427.126, 525.059 416.909 C 517.141 410.298, 498.380 407.590, 481.522 410.623 M 454.500 470.944 C 414.537 480.433, 384.737 517.109, 410.135 525.545 C 418.260 528.244, 434.917 527.161, 446.308 523.193 C 475.515 513.020, 498.879 488.147, 490.803 475.823 C 486.634 469.459, 470.106 467.238, 454.500 470.944 M 437.338 537.931 C 412.552 546.854, 392.221 569.605, 386.610 594.697 C 381.646 616.891, 390.358 624.948, 411.319 617.551 C 437.347 608.366, 461 577.032, 461 551.738 C 461 537.412, 452.521 532.464, 437.338 537.931" stroke="none" fill="#fa6419" fill-rule="evenodd"/>
</svg>