<svg xmlns="http://www.w3.org/2000/svg" width="1000" height="1000" viewBox="0 0 1000 1000" version="1.1">
	<path d="M 534.358 157.147 C 509.946 158.564, 489.800 165.896, 458 184.936 C 433.017 199.894, 425.436 201.716, 383 202.959 C 348.792 203.962, 343.777 204.863, 327.500 212.930 C 308.111 222.539, 297.100 233.354, 277.935 261.614 C 261.505 285.841, 252.065 294.061, 219 312.939 C 190.266 329.344, 178.728 339.823, 165.905 361.158 C 153.383 381.992, 149.866 398.006, 148.038 442.500 C 147.149 464.115, 146.855 466.494, 143.145 482 C 133.417 522.662, 134.849 547.637, 148.488 575.166 C 154.969 588.246, 158.848 593.743, 181 621.236 C 185.675 627.038, 194.309 638.036, 200.186 645.676 C 228.635 682.655, 256.939 700.918, 288.500 702.660 C 302.629 703.440, 312.978 702.032, 335 696.333 C 368.666 687.622, 378.953 686.227, 396.563 687.986 C 414.502 689.779, 434.381 696.107, 436.909 700.830 C 439.647 705.947, 437.359 715.228, 419.981 769.500 C 397.437 839.905, 397.788 838.538, 400.459 845.532 C 404.329 855.666, 418.909 859.866, 430.806 854.273 C 437.045 851.340, 439.025 847.359, 440.494 834.791 C 442.242 819.840, 447.580 799.248, 458.327 766 C 463.287 750.655, 472.808 725.124, 474.270 723.250 C 476.348 720.585, 481.390 722.197, 498.254 730.918 C 529.608 747.131, 551.145 752.108, 580.479 749.919 C 609.003 747.790, 628.542 740.196, 673.067 713.934 C 710.134 692.070, 716.213 689.100, 743.500 679.517 C 779.212 666.975, 796.772 656.283, 813.721 636.761 C 838.604 608.100, 849.977 571.716, 849.996 520.711 C 849.998 514.776, 850.476 505.551, 851.057 500.211 C 852.077 490.836, 852.896 486.424, 858.423 460.500 C 870.080 405.820, 859.774 368.726, 822.027 329.500 C 811.630 318.695, 808.636 314.594, 804.403 305.360 C 788.760 271.232, 781.461 259.370, 767.455 245.310 C 746.879 224.656, 726.312 215.548, 690 211.011 C 660.335 207.304, 653.891 204.822, 630.500 188.096 C 597.294 164.352, 568.715 155.152, 534.358 157.147 M 542.463 211.415 C 540.331 214.670, 526.172 250.807, 521.664 264.500 C 513.476 289.371, 505.539 334.911, 495.555 414.294 C 489.899 459.266, 488.969 463, 483.421 463 C 477.126 463, 470.294 449.264, 459.014 413.929 C 445.223 370.726, 441.736 360.401, 436.747 348 C 422.492 312.562, 408.725 292.098, 384.035 269.648 C 374.019 260.540, 369.251 257.349, 367.811 258.789 C 366.326 260.274, 368.329 263.235, 378.437 274.500 C 407.993 307.441, 418.477 327.618, 444.687 402 C 453.464 426.907, 457.773 438.295, 463.868 452.689 C 469.639 466.316, 470.077 469.248, 466.677 471.476 C 461.316 474.989, 446.882 467.201, 416 444.133 C 372.207 411.421, 343.812 395.611, 309.125 384.627 C 279.988 375.401, 237.500 369.089, 237.500 373.987 C 237.500 376.327, 241.219 377.587, 261.002 381.955 C 315.568 394.001, 354.820 411.781, 403.500 446.502 C 422.558 460.095, 436.105 469.060, 447.500 475.620 C 472.795 490.182, 458.404 494.509, 399.336 490.102 C 344.710 486.025, 305.733 488.002, 271.597 496.580 C 239.440 504.660, 207.648 518.009, 214.395 520.598 C 216.679 521.474, 221.376 520.448, 235.866 515.905 C 260.579 508.158, 277.921 504.305, 303.500 500.879 C 322.979 498.270, 361.071 497.825, 427.265 499.433 C 466.682 500.390, 467.770 500.570, 464.974 505.671 C 461.529 511.958, 451.847 517.661, 419.617 532.387 C 377.029 551.846, 352.251 567.873, 328.997 591 C 307.011 612.867, 287.613 643.629, 299.987 637.007 C 301.008 636.461, 306.933 630.048, 313.154 622.757 C 345.199 585.199, 368.843 567.985, 429.500 538.054 C 442.700 531.540, 458.410 522.974, 464.410 519.017 C 482.515 507.079, 483.721 507.652, 489.372 530.875 C 493.333 547.158, 496.897 557.079, 506.481 578.500 C 526.383 622.985, 532.143 643.142, 534.943 678.107 C 536.048 691.898, 536.530 694, 538.588 694 C 540.913 694, 541.504 689.185, 541.409 671 C 541.241 638.458, 536.155 620.022, 513.682 570.500 C 496.756 533.199, 493.029 517.150, 499.607 509.882 C 500.544 508.847, 502.440 508, 503.821 508 C 505.887 508, 536.864 522.733, 570.500 539.715 C 613.668 561.508, 650.214 592.773, 674.153 628.386 C 683.278 641.962, 685.751 645, 687.674 645 C 690.313 645, 688.917 639.511, 683.882 630.083 C 658.732 582.996, 616.048 547.606, 550.500 519.493 C 525.026 508.568, 512.992 500.750, 514.472 496.089 C 515.448 493.013, 519.384 491.352, 533.712 487.968 C 540.746 486.307, 558.650 480.939, 573.500 476.040 C 614.557 462.496, 632.323 457.773, 678.500 448.129 C 710.147 441.519, 722.484 440.015, 753 439.043 C 779.681 438.193, 785.688 437.259, 782.834 434.406 C 780.353 431.925, 769.939 431.041, 742.924 431.020 C 704.175 430.990, 691.199 432.732, 649 443.631 C 620.005 451.120, 600.137 457.189, 571.031 467.448 C 534.373 480.369, 520.985 483.254, 516.099 479.287 C 512.445 476.320, 513.736 473.688, 525.113 460.907 C 530.697 454.633, 541.362 442.300, 548.813 433.500 C 610.370 360.793, 646.591 330.752, 712.500 297.741 C 728.294 289.830, 732.736 286.604, 729.528 285.372 C 726.038 284.033, 707.292 291.307, 683.500 303.232 C 629.286 330.405, 599.706 355.511, 552.989 414 C 516.545 459.628, 505.020 470.512, 501.035 463.066 C 498.083 457.550, 500.535 436.019, 511.577 370.500 C 520.983 314.685, 524.328 298.984, 535.973 256 C 546.691 216.434, 547.343 213.656, 546.518 211.058 C 545.658 208.347, 544.401 208.458, 542.463 211.415 M 693.870 510.500 C 662.079 520.736, 659.460 564.751, 689.752 579.722 C 697.140 583.374, 697.749 583.500, 707.948 583.492 C 723.502 583.481, 732.960 577.980, 740.052 564.821 C 744.870 555.882, 745.105 541.976, 740.603 532.227 C 732.771 515.268, 710.795 505.050, 693.870 510.500 M 730.461 540.750 C 727.599 554.400, 725.910 558.042, 719.945 563.431 C 715.361 567.572, 709.596 570.456, 703.750 571.532 C 701.688 571.912, 700 572.601, 700 573.064 C 700 573.527, 701.688 574.375, 703.750 574.947 C 722.267 580.090, 741.510 558.744, 734.129 541.250 C 732.452 537.276, 731.225 537.109, 730.461 540.750" stroke="none" fill="#19964b" fill-rule="evenodd"/>
</svg>