<svg xmlns="http://www.w3.org/2000/svg" width="1000" height="1000" viewBox="0 0 1000 1000" version="1.1">
	<path d="M 578 187.968 C 565.447 190.289, 553.219 197.414, 542 208.944 C 524.684 226.739, 514.087 244.826, 475.466 322.500 C 432.035 409.849, 416.266 438.671, 368.505 518 C 338.882 567.204, 298.793 632.756, 266.826 684.263 C 206.818 780.952, 198.140 796.212, 201.555 799.045 C 205.337 802.184, 210.715 797.233, 232.728 770.342 C 262.232 734.301, 328.463 646.816, 382.504 572.500 C 398.902 549.950, 416.452 525.875, 421.503 519 C 426.555 512.125, 443.656 488.725, 459.506 467 C 506.449 402.658, 531.113 370.439, 564.231 330.200 C 570.704 322.334, 576 315.306, 576 314.582 C 576 313.857, 571.730 310.449, 566.511 307.007 C 557.022 300.750, 557.022 300.750, 550.599 306.759 C 537.529 318.985, 524.865 318.459, 522.451 305.591 C 520.562 295.519, 537.749 260.443, 554.235 240.726 C 570.918 220.773, 593.918 231.608, 585.761 255.577 C 582.845 264.146, 582.076 262.853, 594.915 270.965 C 604.940 277.300, 604.645 277.391, 611.217 265.927 C 620.981 248.893, 625.915 231.407, 624.113 220.221 C 620.689 198.958, 599.336 184.022, 578 187.968 M 552.481 265.452 C 546.956 271.309, 543.745 279.523, 545.765 282.630 C 546.169 283.251, 550.550 286.130, 555.500 289.027 C 576.205 301.145, 593.840 314.010, 624.002 338.999 C 633.628 346.975, 644.025 355.468, 647.105 357.872 C 652.707 362.245, 652.707 362.245, 639.603 377.952 C 606.040 418.183, 571.208 466.991, 540.934 516.211 C 536.295 523.753, 532.227 529.940, 531.894 529.961 C 531.560 529.983, 525.290 521.788, 517.960 511.750 C 492.216 476.500, 479.809 460, 479.045 460 C 478.191 460, 463 480.392, 463 481.539 C 463 481.936, 464.506 484.340, 466.346 486.881 C 468.187 489.421, 476.411 500.725, 484.623 512 C 519.551 559.960, 517.202 554.088, 507.922 570.228 C 459.631 654.226, 445.813 708.796, 462.115 751.132 C 473.612 780.987, 505.261 798.894, 536.209 793.055 C 554.358 789.630, 564.767 776.878, 558.320 765.965 C 554.562 759.603, 548.897 758.811, 533.007 762.424 C 515.622 766.377, 498.410 757.758, 490.162 740.967 C 475.430 710.978, 487.761 661.455, 527.316 591.750 C 530.672 585.837, 533.661 581.017, 533.958 581.038 C 534.256 581.059, 535.673 582.746, 537.108 584.788 C 568.384 629.312, 606.448 678.531, 628.813 703.369 C 662.597 740.890, 697.199 763.293, 729.445 768.523 C 778.334 776.453, 819.714 750.274, 824.468 708.408 C 826.398 691.413, 817.261 677.448, 806.530 680.990 C 800.600 682.947, 798.863 685.898, 797.875 695.690 C 796.392 710.383, 792.179 719.992, 783.966 727.412 C 764.995 744.551, 735.359 746.259, 706.726 731.862 C 669.945 713.369, 635.064 675.116, 561.660 572.776 C 548.947 555.052, 548.947 555.052, 553.647 547.276 C 584.741 495.831, 618.502 446.566, 647.382 410.500 C 656.173 399.522, 673.914 379, 674.613 379 C 674.856 379, 679.755 381.742, 685.500 385.093 C 753.851 424.965, 834.222 410.072, 850.588 354.500 C 852.972 346.403, 852.973 330.600, 850.589 322.500 C 839.447 284.645, 794.475 268.499, 749.296 286.133 C 728.380 294.297, 698.382 315.523, 677.538 336.909 C 674.808 339.709, 672.136 342, 671.600 342 C 670.330 342, 662.839 336.137, 639 316.482 C 607.652 290.635, 587.689 276.231, 569.918 266.634 C 559.475 260.995, 556.852 260.817, 552.481 265.452 M 215.500 263.921 C 156.971 273.400, 129.742 328.047, 161.425 372.447 C 185.577 406.293, 245.077 422.701, 293.917 408.983 C 314.788 403.122, 326.092 392.318, 321.493 382.627 C 318.541 376.406, 312.094 375.472, 299.562 379.449 C 283.536 384.535, 277.426 385.460, 260 385.439 C 224.150 385.395, 195.485 372.526, 184.338 351.472 C 167.718 320.077, 194.568 288.818, 236 291.328 C 286.329 294.377, 340.035 331.170, 404.549 406.798 C 411.915 415.433, 413.551 416.878, 414.681 415.748 C 416.637 413.792, 427.001 393.821, 426.993 392.023 C 426.982 389.476, 403.889 363.649, 383.118 342.956 C 337.847 297.855, 299.797 274.598, 256.347 265.473 C 247.513 263.618, 223.100 262.690, 215.500 263.921 M 772 308.554 C 751.420 312.971, 725.880 328.567, 700.533 352.197 C 693.565 358.692, 693.565 358.692, 701.033 362.843 C 721.664 374.313, 740.580 379.362, 763 379.384 C 791.550 379.412, 810.739 370.300, 819.028 352.779 C 831.802 325.777, 805.778 301.304, 772 308.554" stroke="none" fill="#e1197d" fill-rule="evenodd"/>
</svg>