<svg xmlns="http://www.w3.org/2000/svg" width="1000" height="1000" viewBox="0 0 1000 1000" version="1.1">
	<path d="M 302.500 148.649 C 266.112 156.227, 242.096 183.805, 242.017 218.101 C 242.008 222.281, 241.511 227.104, 240.914 228.817 C 239.255 233.575, 235.746 230.751, 232.976 222.428 C 224.589 197.225, 202.939 183, 172.967 183 C 155.899 183, 154.630 185.257, 162.738 201.190 C 174.156 223.629, 192.526 235.346, 219.839 237.611 C 228.179 238.302, 228.179 238.302, 233.089 244.203 C 237.526 249.534, 238 250.586, 238 255.094 C 238 263.615, 242.254 280.380, 247.367 292.012 C 247.882 293.183, 245.152 294.836, 235.266 299.336 C 221.480 305.613, 202.486 315.777, 197.250 319.679 C 190.651 324.598, 193.600 328.018, 205.190 328.888 C 213.343 329.500, 213.343 329.500, 203.828 334.216 C 187.177 342.468, 177.675 350.656, 179.908 354.828 C 181.604 357.997, 186.590 359.086, 202.267 359.714 C 217.034 360.305, 217.034 360.305, 210.267 364.325 C 195.700 372.978, 187.532 380.709, 188.181 385.227 C 188.811 389.615, 191.937 390.167, 213.250 389.659 C 224.113 389.400, 233 389.302, 233 389.440 C 233 389.579, 232.317 391.062, 231.482 392.735 C 228.120 399.476, 232.711 403.159, 247.089 405.254 C 251.440 405.888, 255 406.744, 255 407.156 C 255 407.567, 253.088 409.235, 250.750 410.862 C 240.003 418.342, 234.549 426.549, 238.018 430.018 C 239.812 431.812, 241.377 432, 254.496 432 C 268.992 432, 268.992 432, 264.045 438.139 C 258.256 445.323, 256.997 449.234, 259.561 452.067 C 262.132 454.908, 268.506 454.567, 289.254 450.477 C 360.319 436.470, 415.323 437.926, 459.633 454.988 C 468.103 458.250, 471.003 458.700, 470.994 456.750 C 470.849 426.288, 473.310 411.850, 481.433 395.500 C 491.409 375.422, 504.017 365.957, 520.816 365.939 C 525.042 365.934, 544.475 367.980, 564 370.486 C 599.886 375.092, 620.946 377.778, 693.500 387.002 C 764.298 396.003, 766.160 396.386, 777.243 404.194 C 780.839 406.727, 782 405.832, 782 400.529 C 782 386.388, 774.968 368.063, 766.162 359.257 C 755.613 348.708, 748.246 346.526, 704.500 340.989 C 633.435 331.995, 619.058 328.043, 565.517 302.788 C 460.056 253.041, 384.934 246.900, 284.129 279.784 C 269.758 284.472, 269.758 284.472, 266.801 280.986 C 259.794 272.724, 254.199 257.386, 253.303 243.983 C 252.646 234.146, 252.563 234.271, 261.500 231.570 C 289.144 223.216, 307.647 200.326, 317.542 162.242 C 320.828 149.593, 320.032 147.943, 310.727 148.116 C 307.302 148.180, 303.600 148.419, 302.500 148.649 M 520.326 377.044 C 491.036 382.836, 473.881 441.992, 490.891 478.547 C 494.486 486.272, 498.589 490.914, 504.820 494.305 C 509.466 496.834, 549.397 503.535, 616.500 513.045 C 620.350 513.591, 646.225 517.415, 674 521.544 C 701.775 525.673, 726.417 529.316, 728.759 529.640 C 735.326 530.549, 736.811 528.688, 732.990 524.336 C 710.513 498.736, 718.271 430.924, 745.914 411.361 C 749.961 408.497, 750.905 406.678, 748.966 405.479 C 747.452 404.544, 736.986 403.149, 606.500 386.494 C 591.100 384.529, 566.350 381.364, 551.500 379.461 C 536.650 377.558, 524.500 376.050, 524.500 376.110 C 524.500 376.170, 522.622 376.590, 520.326 377.044 M 762.753 419.517 C 751.915 423.498, 742.428 437.330, 737.390 456.500 C 734.566 467.244, 734.741 490.087, 737.719 499.554 C 742.098 513.474, 748.895 519.986, 759.054 519.995 C 770.597 520.006, 779.435 510.723, 787.853 489.750 C 789.267 486.229, 790.442 486.288, 794.222 490.068 C 797.290 493.136, 797.290 493.136, 796.671 501.860 C 795.299 521.178, 787.999 542.025, 781.014 546.571 C 772.005 552.433, 751.058 554.388, 658.500 558.006 C 602.876 560.180, 598.743 562.244, 587.019 593.692 C 582.244 606.500, 582.244 606.500, 576.540 606.234 C 559.255 605.426, 552.147 613.536, 549.517 637.066 C 547.851 651.963, 546.741 655.531, 535.532 682 C 493.167 782.038, 489.314 793.001, 490.246 810.873 C 491.551 835.897, 506.608 849.500, 533 849.500 C 546.105 849.500, 553.899 846.354, 562.424 837.622 C 574.941 824.801, 574.283 827.111, 603.640 693 C 607.851 673.764, 610.430 666.354, 616.545 655.924 C 628.077 636.253, 626.004 625.048, 609.120 615.802 C 606.019 614.104, 606.019 614.104, 609.105 605.302 C 616.396 584.502, 613.756 585.630, 659 583.979 C 768.808 579.972, 784.799 578.330, 797.652 569.740 C 809.437 561.864, 817.908 539.175, 822.074 504.327 C 824.849 481.120, 817.130 467.899, 797.353 461.985 C 793.206 460.745, 793.206 460.745, 792.541 454.123 C 789.873 427.560, 778.099 413.881, 762.753 419.517 M 764.698 453.023 C 755.219 460.479, 755.728 489, 765.341 489 C 770.102 489, 771.845 485.503, 771.270 477.108 C 770.826 470.633, 771.086 468.594, 772.870 464.561 C 775.532 458.543, 775.553 455.970, 772.961 453.189 C 770.422 450.463, 768.014 450.415, 764.698 453.023 M 541.291 744.509 C 538.862 746.210, 537.472 749.663, 528.414 776.500 C 521.269 797.672, 520.813 800.904, 524.455 804.545 C 527.783 807.874, 532.120 807.763, 536.024 804.250 C 538.674 801.866, 540.074 798.270, 546.540 777.235 C 550.643 763.890, 554 751.832, 554 750.440 C 554 744.696, 546.212 741.062, 541.291 744.509" stroke="none" fill="#0032e1" fill-rule="evenodd"/>
</svg>