<svg xmlns="http://www.w3.org/2000/svg" width="1000" height="1000" viewBox="0 0 1000 1000" version="1.1">
	<path d="M 617.335 93.096 C 593.438 97.088, 570.501 114.446, 561.818 135.111 C 558.441 143.148, 555 159.494, 555 167.498 C 555 172.406, 552.530 181.101, 550.028 185 C 548.220 187.819, 544.955 182.984, 543.496 175.325 C 537.488 143.793, 513.631 125.042, 480.936 126.155 C 466.415 126.650, 464.333 130.078, 469.099 145.645 C 477.226 172.193, 497.118 189.520, 523.500 193.031 C 540.913 195.348, 543.988 200.112, 542.865 223.039 C 542.230 236.007, 542.230 236.007, 538.162 242.254 C 535.925 245.689, 524.436 264.250, 512.631 283.500 C 500.825 302.750, 482.692 331.942, 472.333 348.371 C 425.643 422.424, 431.045 411.111, 425.474 446.500 C 420.958 475.182, 409.923 531.340, 396.882 592 C 384.014 651.856, 360.625 766.563, 353.042 807 C 342.578 862.799, 341.878 872.096, 347.532 880.141 C 359.657 897.394, 441.342 917.156, 494.500 915.698 C 525.316 914.853, 528.719 911.968, 534.434 881.842 C 542.240 840.697, 546.371 817.927, 550.008 796 C 552.242 782.525, 555.619 762.950, 557.511 752.500 C 561.137 732.476, 580.212 619.514, 593.901 537 C 596.683 520.225, 600.543 498.175, 602.478 488 C 608.124 458.304, 608.794 446.315, 605.663 431 C 597.842 392.735, 583.327 328.903, 570.898 278.109 C 561.994 241.717, 561.994 241.717, 561.853 220.109 C 561.635 186.582, 563.614 182.048, 580.262 177.937 C 608.563 170.948, 626.903 153.651, 636.388 125 C 643.234 104.319, 643.973 95.662, 639.114 93.061 C 636.810 91.828, 624.812 91.848, 617.335 93.096 M 505.953 324.250 C 498.625 336.069, 473.039 375.868, 459.286 396.840 C 448.581 413.164, 446.464 417.160, 447.327 419.409 C 448.242 421.795, 450.524 421.364, 457.434 417.500 C 469.005 411.029, 474.670 413.014, 480.662 425.639 C 485.639 436.124, 489.133 436.670, 499 428.508 C 513.550 416.472, 527.577 417.192, 536.985 430.456 C 546.714 444.173, 549.685 444.958, 558.059 436.019 C 567.316 426.140, 574.379 424.769, 581.810 431.412 C 594.116 442.414, 594.063 441.015, 580.073 385.204 C 574.599 363.367, 568.962 340.347, 567.546 334.050 C 566.129 327.752, 564.414 322.247, 563.735 321.815 C 563.056 321.384, 558.377 321.024, 553.338 321.015 C 543.117 320.998, 532.489 319.244, 523.531 316.095 C 513.341 312.514, 513.185 312.586, 505.953 324.250 M 471 445.391 C 471 452.057, 467.772 473.825, 462.975 499.500 C 454.628 544.178, 435.307 645.484, 425.975 693.500 C 407.240 789.904, 392.921 865.732, 392.338 871.639 C 391.765 877.438, 391.874 877.871, 394.299 879.460 C 396.297 880.769, 397.319 880.900, 398.910 880.048 C 402.825 877.953, 403.929 874.030, 410.915 837.408 C 413.633 823.158, 420.404 787.650, 425.963 758.500 C 431.521 729.350, 437.835 696.275, 439.993 685 C 442.152 673.725, 445.544 655.950, 447.532 645.500 C 449.519 635.050, 455.856 602.200, 461.614 572.500 C 476.210 497.207, 481.923 461.983, 480.718 454.724 C 480.386 452.727, 478.435 449.686, 475.591 446.732 C 471 441.965, 471 441.965, 471 445.391 M 561.858 454.277 C 559.855 456.050, 557.015 458.329, 555.548 459.342 C 550.194 463.038, 549.053 468.150, 530.514 571.500 C 526.864 591.850, 522.337 616.825, 520.454 627 C 512.532 669.815, 497.622 748.945, 493.981 767.500 C 476.179 858.200, 470.886 889.010, 472.630 891.776 C 477.657 899.744, 482.612 893.661, 485.889 875.500 C 487.833 864.725, 500.951 795.093, 508.872 753.500 C 516.613 712.848, 529.029 645.390, 551.572 521.500 C 558.616 482.787, 561.998 466.732, 565.423 455.750 C 567.166 450.160, 566.719 449.975, 561.858 454.277" stroke="none" fill="#fa4b19" fill-rule="evenodd"/>
</svg>