<svg xmlns="http://www.w3.org/2000/svg" width="1000" height="1000" viewBox="0 0 1000 1000" version="1.1">
	<path d="M 692 95.569 C 681.093 99.175, 669.105 101.513, 643.876 104.956 C 588.804 112.471, 567.472 120.613, 544.784 142.780 C 524.411 162.685, 515.514 183.239, 510.563 221.836 C 506.610 252.649, 507.301 251.990, 477.818 253.066 C 437.927 254.522, 426.581 258.071, 422.869 270.254 C 422.325 272.039, 421.468 284.904, 420.966 298.843 C 419.551 338.043, 418.691 339.803, 395.430 351.101 C 377.706 359.710, 374.059 361.006, 367.624 360.978 C 360.123 360.946, 356.218 358.720, 337.972 344.078 C 308.914 320.760, 304.502 320.369, 283 339.212 C 264.802 355.158, 248.233 375.045, 246.106 383.493 C 243.800 392.649, 246.426 397.434, 270.535 428 C 283.166 444.015, 283.713 449.336, 275.053 472 C 264.764 498.928, 264.051 499.441, 232 502.973 C 221.825 504.094, 211.237 505.668, 208.472 506.469 C 195.427 510.251, 192.293 521.790, 193.291 562.380 C 194.291 603.115, 195.966 605.551, 227.699 612.433 C 262.525 619.987, 266.433 622.925, 281.111 652.592 C 295.437 681.547, 295.377 682.507, 277.486 710.575 C 262.235 734.500, 260.597 739.313, 264.514 748.688 C 269.459 760.522, 302.778 791.852, 318.706 799.645 C 331.073 805.695, 335.405 804.048, 360.847 783.623 C 386.434 763.082, 388.914 762.529, 414 771.777 C 444.739 783.110, 445.392 783.889, 450.651 815.489 C 456.401 850.032, 458.076 851.813, 486.938 854.059 C 509.301 855.799, 539.583 853.169, 549.511 848.624 C 559.450 844.074, 561.205 839.868, 564.588 812.500 C 568.859 777.955, 569.460 777.114, 599 764.438 C 617.739 756.396, 619.009 755.995, 626.084 755.880 C 633.131 755.766, 636.058 757.225, 655.720 770.656 C 680.144 787.340, 685.208 788.930, 696.283 783.391 C 707.538 777.763, 739.115 742.376, 746.158 727.500 C 752.041 715.074, 750.076 709.785, 730.924 686.483 C 709.218 660.077, 708.734 658.120, 717.423 632 C 727.004 603.197, 728.821 601.595, 758.778 595.541 C 790.192 589.193, 792.642 588.138, 796.843 579.148 C 799.441 573.588, 799.480 573.187, 799.316 553.500 C 799.099 527.363, 796.225 504.015, 792.237 496 C 787.369 486.216, 784.220 485.112, 752.166 481.941 C 717.931 478.554, 716.554 477.733, 704.315 453.418 C 696.853 438.593, 696.502 437.590, 696.534 431.196 C 696.575 423.055, 696.751 422.699, 711.978 400 C 734.268 366.774, 734.232 365.886, 709.640 341.449 C 687.228 319.178, 672.294 309, 662.030 309 C 653.292 309, 650.480 310.674, 630 328.066 C 611.319 343.931, 605.849 347.682, 599.461 349.008 C 592.751 350.401, 591.452 350.154, 572 343.791 C 541.484 333.808, 539.691 331.775, 534.456 301.190 C 528.627 267.138, 527.972 253.198, 531.623 240.893 C 538.762 216.830, 563.310 192.416, 597.087 175.785 C 609.055 169.892, 627.500 162.667, 629.162 163.221 C 629.697 163.399, 624.817 167.131, 618.318 171.514 C 580.967 196.700, 556.386 221.321, 548.887 241.056 C 545.483 250.015, 546.199 250.403, 564.863 249.712 C 591.242 248.736, 616.686 243.994, 633.285 236.959 C 673.108 220.083, 697.552 179.040, 702.943 120 C 704.604 101.809, 704.383 95.276, 702.066 94.035 C 699.736 92.788, 700.989 92.597, 692 95.569 M 475.625 450.554 C 434.407 458.744, 403.142 487.696, 390.375 529.500 C 386.411 542.479, 386.172 571.804, 389.922 585 C 417.688 682.706, 544.674 699.685, 591.851 612 C 627.069 546.542, 588.109 464.361, 515.250 450.421 C 505.996 448.650, 484.848 448.721, 475.625 450.554" stroke="none" fill="#966432" fill-rule="evenodd"/>
</svg>