<svg xmlns="http://www.w3.org/2000/svg" width="1000" height="1000" viewBox="0 0 1000 1000" version="1.1">
	<path d="M 482.174 151.038 C 465.612 153.126, 449.766 158.126, 438.500 164.821 C 387.303 195.242, 363.885 242.466, 353.519 336.194 C 347.979 386.280, 348.555 384.997, 331.615 385.005 C 295.007 385.021, 229.120 392.495, 203.111 399.580 C 178.076 406.401, 172.127 415.641, 180.632 434.500 C 195.791 468.116, 198.125 475.099, 220.910 555 C 228.046 580.025, 238.651 616.700, 244.477 636.500 C 250.303 656.300, 257.307 680.150, 260.041 689.500 C 270.275 724.491, 287.921 776.291, 293.475 787.646 C 308.659 818.690, 335.239 829.970, 405.500 835.190 C 429.921 837.004, 591.043 836.990, 615 835.172 C 661.435 831.647, 696.126 820.087, 709.075 803.825 C 715.419 795.858, 722.320 780.401, 726.855 764 C 729.060 756.025, 735.180 733.874, 740.456 714.775 C 745.731 695.676, 752.706 668.676, 755.955 654.775 C 771.183 589.634, 788.348 524.231, 810.617 446.500 C 823.462 401.662, 824 399.175, 821.639 395.572 C 819.453 392.236, 807.342 388.462, 792.739 386.566 C 764.196 382.861, 740.130 383.560, 691 389.522 C 649.056 394.611, 652.683 394.374, 650.009 392.208 C 647.703 390.341, 647.661 389.951, 646.873 363.408 C 644.579 286.067, 630.730 242.281, 592.983 193.029 C 585.062 182.694, 582.616 180.597, 566.009 169.918 C 543.407 155.383, 530.440 151.299, 504.500 150.548 C 496.250 150.309, 486.203 150.530, 482.174 151.038 M 486.500 192.077 C 470.110 195.327, 461.558 199.880, 445.689 213.801 C 421.038 235.428, 411.792 255.200, 402.342 306.500 C 398.834 325.546, 400.282 380.711, 404.399 384.827 C 405.580 386.009, 409.416 386.575, 420.229 387.165 C 440.587 388.275, 468.128 390.667, 501 394.181 C 529.256 397.201, 581.842 399.260, 588.436 397.605 C 593.774 396.266, 595.771 386.438, 596.688 357 C 599.256 274.577, 566.546 206.764, 517.768 193.384 C 511.050 191.541, 493.007 190.787, 486.500 192.077 M 367.651 591.459 C 357.725 594.962, 350.518 599.558, 342.500 607.500 C 331.663 618.234, 330.780 622.430, 337.737 630.130 C 342.536 635.443, 345.115 636.396, 349.607 634.520 C 360.404 630.009, 385.612 597.654, 383.504 591.013 C 382.610 588.196, 376.403 588.371, 367.651 591.459 M 474.500 590.404 C 456.396 596.154, 435 615.347, 435 625.837 C 435 634.607, 446.337 638.963, 454.610 633.371 C 469.801 623.105, 489.867 597.030, 487.442 590.709 C 486.645 588.633, 480.531 588.489, 474.500 590.404 M 565.844 591.368 C 547.224 598.007, 529 615.772, 529 627.283 C 529 632.199, 533.751 637, 538.617 637 C 548.033 637, 566.186 620.009, 576.528 601.517 C 583.121 589.726, 579.662 586.440, 565.844 591.368 M 652.842 592.350 C 634.908 599.804, 619 616.347, 619 627.544 C 619 635.855, 627.916 639.538, 635.610 634.405 C 648.166 626.030, 667.816 599.739, 666.808 592.663 C 666.356 589.491, 660.062 589.350, 652.842 592.350 M 257.516 592.363 C 246.448 600.465, 319.186 675.351, 340.451 677.747 C 345.701 678.339, 347.095 675.847, 345.024 669.572 C 341.268 658.191, 311.482 621.873, 294.586 608.073 C 279.109 595.431, 262.779 588.511, 257.516 592.363 M 732.214 593.891 C 717.561 598.953, 700 617.968, 700 628.773 C 700 632.860, 704.597 638, 708.252 638 C 714.043 638, 727.287 625.835, 736.360 612.181 C 748.486 593.932, 747.296 588.682, 732.214 593.891 M 386.094 623.906 C 381.016 628.984, 387.374 641.329, 403.266 657.254 C 425.850 679.884, 456.384 691.217, 450.853 674.916 C 443.193 652.343, 395.346 614.654, 386.094 623.906 M 484.135 626.615 C 474.426 633.428, 499.910 665.366, 525.807 678.839 C 536.066 684.176, 541.614 684.812, 543.850 680.906 C 548.676 672.477, 521.915 641.407, 500.150 630.169 C 490.463 625.167, 487.223 624.448, 484.135 626.615 M 575.992 627.510 C 570.460 634.175, 588.399 659.827, 607.448 672.488 C 625.744 684.650, 635.725 684.938, 631.677 673.187 C 624.077 651.129, 583.806 618.095, 575.992 627.510 M 660.998 630.004 C 658.995 633.746, 662.862 643.838, 670.002 653.503 C 678.698 665.274, 698.192 680, 705.078 680 C 708.215 680, 709.939 676.373, 708.800 672.173 C 703.061 651.013, 666.850 619.070, 660.998 630.004 M 293 675.121 C 289.806 676.391, 285.225 680.728, 283.411 684.200 C 280.103 690.531, 283.441 710.053, 288.082 711.526 C 294.573 713.586, 311.963 694.527, 311.991 685.323 C 312.010 678.825, 299.962 672.353, 293 675.121 M 383.944 676.844 C 370.810 683.506, 356.047 695.414, 347.034 706.616 C 337.203 718.834, 335.808 723.962, 340.923 729.077 C 347.662 735.816, 358.315 731.323, 376.064 714.256 C 387.661 703.105, 398.366 689.067, 400.054 682.799 C 402.424 673.997, 394.980 671.246, 383.944 676.844 M 659 678.112 C 639.609 689.199, 619 713.299, 619 724.888 C 619 730.014, 622.838 733.482, 627.484 732.553 C 641.708 729.710, 675.937 688.298, 672.408 678.202 C 670.988 674.139, 666.006 674.106, 659 678.112 M 483.300 677.951 C 463.417 686.977, 436 714.667, 436 725.721 C 436 732.894, 440.706 735.896, 448.346 733.596 C 463.907 728.913, 498 693.469, 498 681.974 C 498 675.802, 491.782 674.100, 483.300 677.951 M 574.384 679.480 C 550.794 691.405, 526.396 719.232, 530.133 729.951 C 534.194 741.601, 554.415 731.085, 575.910 706.146 C 594.921 684.089, 594.087 669.520, 574.384 679.480 M 722 685.727 C 716.224 688.502, 704.727 700.751, 701.178 707.910 C 692.996 724.414, 702.005 731.056, 714.635 717.830 C 724.753 707.234, 732.682 686.627, 727.418 684.607 C 725.492 683.868, 726.155 683.731, 722 685.727 M 662.462 722.417 C 655.863 732.488, 687.573 767.211, 702.102 765.824 C 710.489 765.024, 704.427 749.505, 689.990 734.815 C 677.575 722.184, 666.024 716.981, 662.462 722.417 M 387.120 724.880 C 384.123 727.877, 384.463 730.618, 388.750 738.023 C 403.568 763.617, 452 792.718, 452 776.027 C 452 768.865, 435.723 749.183, 420.092 737.444 C 403.616 725.071, 391.533 720.467, 387.120 724.880 M 298.750 726.067 C 291.833 730.147, 307.531 754.013, 326.183 767.772 C 346.365 782.660, 362.058 784.647, 356.617 771.626 C 348.116 751.280, 308.665 720.220, 298.750 726.067 M 483.571 726.571 C 475.738 734.405, 500.539 763.746, 525.410 776.070 C 536.261 781.447, 541.194 782.160, 543.474 778.680 C 551.837 765.917, 494.288 715.855, 483.571 726.571 M 576.200 726.200 C 569.513 732.887, 589.491 759.129, 610.500 771.254 C 629.225 782.061, 636.091 779.391, 628.423 764.283 C 617.871 743.494, 583.772 718.628, 576.200 726.200 M 662.500 768.355 C 651.591 773.450, 637.328 788.509, 630.973 801.643 C 626.022 811.874, 627.123 814.130, 636.027 811.994 C 654.655 807.525, 680.555 774.405, 670.777 767.557 C 668.006 765.615, 668.459 765.572, 662.500 768.355 M 576.795 773.502 C 562.883 778.615, 538.952 804.606, 540.183 813.266 C 540.472 815.306, 541.022 815.493, 546.506 815.417 C 560.997 815.218, 579.774 800.656, 587.610 783.540 C 592.034 773.878, 587.421 769.597, 576.795 773.502 M 386.198 776.059 C 369.480 784.413, 350.779 809.400, 359.589 811.612 C 371.375 814.570, 388.745 805.409, 398.978 790.837 C 409.336 776.089, 402.336 767.995, 386.198 776.059 M 480.589 776.023 C 468.578 782.114, 455.609 795.020, 449.908 806.557 C 446.136 814.191, 446.659 816, 452.639 816 C 466.346 816, 483.907 804.494, 493.975 788.918 C 502.726 775.379, 495.530 768.446, 480.589 776.023" stroke="none" fill="#197dfa" fill-rule="evenodd"/>
</svg>