<svg xmlns="http://www.w3.org/2000/svg" width="1000" height="1000" viewBox="0 0 1000 1000" version="1.1">
	<path d="M 477.920 150.015 C 402.376 154.693, 332.986 176.881, 306.990 204.670 C 293.930 218.631, 291.505 231.048, 297.093 255.360 C 299.194 264.500, 299.194 264.500, 306.486 271.623 C 321.435 286.223, 353.821 298.536, 403.316 308.436 C 418.749 311.523, 419.493 311.544, 422.750 308.982 C 434.193 299.981, 458.299 302.455, 481.532 315.017 C 490.585 319.912, 490.585 319.912, 493.439 318.040 C 497.744 315.216, 502.216 314.726, 507.156 316.539 C 509.545 317.415, 512.288 318.380, 513.251 318.683 C 514.312 319.017, 517.465 317.635, 521.251 315.178 C 546.518 298.777, 570.809 295.342, 585.731 306.058 C 591.056 309.882, 591.740 309.825, 616.500 303.479 C 668.055 290.266, 696.084 274.811, 701.543 256.586 C 706.631 239.602, 706.777 221.364, 701.901 211.806 C 694.919 198.120, 673.280 183.645, 645.337 173.968 C 633.015 169.701, 612.231 164, 608.999 164 C 607.972 164, 602.940 167.418, 597.816 171.596 C 592.692 175.774, 584.453 181.977, 579.507 185.379 C 574.561 188.782, 570.383 192.250, 570.222 193.087 C 570.008 194.199, 572.561 195.498, 579.712 197.917 C 608.511 207.659, 630.612 225.082, 638.486 244.250 C 640.637 249.485, 639.821 249.064, 630.529 240.143 C 619.642 229.692, 569.196 196.883, 564.298 197.068 C 562.118 197.151, 533.783 214.152, 533.272 215.683 C 533.074 216.279, 535.968 218.435, 539.705 220.473 C 560.455 231.788, 577.880 252.292, 580.519 268.500 C 581.170 272.500, 581.170 272.500, 578.335 269.014 C 572.199 261.468, 563.107 251.895, 555 244.445 C 550.325 240.149, 542.393 232.618, 537.374 227.710 C 526.929 217.497, 528.320 217.680, 515.809 224.878 C 511.239 227.508, 502.212 232.510, 495.750 235.994 C 483.313 242.699, 482.454 243.753, 485.865 248.115 C 491.988 255.945, 495.331 267.418, 494.825 278.865 C 494.500 286.231, 494.500 286.231, 487.829 271.365 C 484.160 263.189, 480.587 254.541, 479.889 252.146 C 479.192 249.751, 478.069 247.580, 477.394 247.321 C 476.018 246.793, 454.112 258.278, 422.210 276.255 C 410.500 282.854, 400.676 288.009, 400.379 287.712 C 398.353 285.686, 409.177 275.759, 424.722 265.388 C 430.894 261.270, 436.188 257.506, 436.486 257.022 C 437.229 255.820, 435.762 255.467, 418 252.579 C 392.878 248.493, 378.568 246.939, 360.150 246.296 C 341.676 245.652, 340.880 245.190, 353.500 242.437 C 372.839 238.219, 407.072 240.625, 433.571 248.066 C 439.319 249.680, 444.760 251, 445.664 251 C 447.243 251, 477.728 234.447, 481.610 231.481 C 484.655 229.156, 482.729 228.576, 452.080 222.592 C 423.034 216.921, 408.011 214.655, 391.060 213.389 C 379.880 212.554, 381.175 211.675, 396.152 209.933 C 418.797 207.299, 458.127 213.004, 483.773 222.642 C 492.411 225.889, 491.786 226.050, 509.057 216.130 C 525.994 206.402, 527.490 204.729, 520.813 202.984 C 518.441 202.364, 509.525 199.656, 501 196.966 C 492.475 194.276, 479.875 190.473, 473 188.516 C 460.500 184.958, 460.500 184.958, 471.500 185.382 C 488.785 186.048, 506.942 190.631, 524.218 198.686 C 531.935 202.285, 531.935 202.285, 541.218 196.732 C 546.323 193.677, 552.300 189.795, 554.500 188.105 C 556.700 186.415, 560.975 183.392, 564 181.389 C 571.322 176.538, 585.709 164.412, 586.997 162.005 C 588.511 159.178, 586.193 158.309, 569.764 155.544 C 540.152 150.560, 504.131 148.392, 477.920 150.015 M 519.500 170.727 C 520.600 170.999, 528.250 173.396, 536.500 176.054 C 550.762 180.649, 553.707 181.381, 556.872 181.115 C 561.906 180.693, 547.616 173.662, 537.266 171.468 C 531.250 170.194, 514.520 169.495, 519.500 170.727 M 596 180.425 C 596 181.418, 601.549 183.766, 617.224 189.404 C 635.441 195.957, 642.768 199.134, 652.882 204.865 C 661.595 209.802, 661.725 209.826, 659.003 206.004 C 653.593 198.406, 633.587 187.533, 617.706 183.559 C 608.462 181.245, 596 179.446, 596 180.425 M 703.107 279.016 C 695.281 288.755, 673.806 300.467, 648.370 308.870 C 633.351 313.831, 604.598 321, 599.717 321 C 596.511 321, 595.003 323.451, 594.991 328.684 C 594.979 333.450, 590.276 341.925, 585.711 345.407 C 578.046 351.253, 573.503 352.502, 560 352.474 C 547.728 352.449, 547.255 352.363, 534.073 347.775 C 526.687 345.204, 520.312 343.307, 519.905 343.559 C 518.928 344.163, 538.029 381.565, 543.827 390.402 C 546.894 395.077, 549.892 398.259, 553.119 400.265 C 558.762 403.772, 560.374 407.205, 558.488 411.692 C 556.001 417.605, 548.491 420.009, 544.245 416.250 C 537.691 410.447, 528.110 394.451, 520.636 376.835 C 510.544 353.050, 507.363 348, 502.467 348 C 498.267 348, 497.727 348.750, 490.996 363.925 C 481.179 386.060, 476.310 393.596, 462.131 408.603 C 454.164 417.036, 453.863 417.240, 450.229 416.661 C 443.973 415.665, 439.498 408.592, 441.853 403.423 C 442.512 401.976, 445.210 399.928, 448.519 398.361 C 458.319 393.721, 469.175 379.564, 480.996 356.008 C 484.238 349.547, 485.795 345.395, 485.199 344.799 C 484.602 344.202, 481.250 345.360, 476.150 347.925 C 453.648 359.238, 436.396 360.788, 422.919 352.707 C 415.047 347.986, 411.711 342.081, 411.030 331.657 C 410.500 323.562, 410.500 323.562, 397.074 321.326 C 352.075 313.835, 310.316 297.702, 297.664 282.921 C 293.324 277.850, 292.548 278.190, 285.113 288.424 C 276.838 299.813, 268.982 306.774, 258.003 312.444 C 247.142 318.054, 241.917 322.474, 238.982 328.536 C 235.301 336.141, 238.413 338.995, 250.399 339.006 C 266.206 339.020, 273.002 345.426, 278.007 365.029 C 284.697 391.228, 296.416 397.069, 327.757 389.823 C 358.835 382.638, 368.952 385.275, 394.698 407.275 C 413.853 423.644, 425.875 428.836, 446.500 429.647 C 460.842 430.211, 463 430.584, 463 432.499 C 463 436.625, 444.772 441.580, 433.546 440.505 C 418.612 439.074, 405.550 433.127, 386.500 419.085 C 365.049 403.273, 355.986 400.668, 331.701 403.334 C 307.909 405.946, 300.094 405.390, 289.252 400.314 C 277.808 394.956, 270.482 385.579, 263.997 367.993 C 258.977 354.376, 257.966 354.070, 251.628 364.250 C 228.209 401.863, 216.358 454.302, 219.931 504.500 C 225.887 588.165, 260.545 683.970, 323.754 791.500 C 336.860 813.795, 337.802 814.584, 357 819.307 C 417.628 834.225, 487.985 842.132, 534.500 839.256 C 552.194 838.162, 555.575 838.815, 548.618 841.985 C 535.792 847.831, 511.617 850.428, 476.651 849.717 C 442.964 849.031, 418.288 845.964, 385.500 838.387 C 366.974 834.105, 363.258 834.115, 367.575 838.432 C 379.900 850.757, 413.702 860.789, 461 866.159 C 478.614 868.159, 530.822 867.859, 549 865.653 C 597.448 859.774, 634.007 846.604, 652.340 828.424 C 669.337 811.570, 718.843 719.151, 741.523 661.936 C 783.056 557.159, 791.675 465.316, 766.371 397.136 C 759.875 379.633, 746.823 355.356, 743.314 354.250 C 741.430 353.656, 739.267 357.853, 736.472 367.524 C 729.070 393.143, 716.283 400.292, 683.789 396.978 C 662.234 394.781, 653.257 397.843, 632.858 414.354 C 619.479 425.184, 611.986 429.830, 602.216 433.354 C 589.556 437.921, 573.596 437.760, 567.781 433.007 C 564.436 430.272, 566.393 428.999, 575.632 427.897 C 596.603 425.397, 605.260 420.775, 628.364 399.744 C 651.285 378.878, 661.289 375.750, 686.322 381.622 C 712.603 387.786, 722.566 382.350, 725.953 360 C 728.835 340.981, 735.426 335.659, 755.392 336.228 C 766.951 336.558, 768.962 335.444, 767.082 329.748 C 765.014 323.484, 759.665 318.527, 749.131 313.116 C 732.469 304.558, 726.830 299.612, 715.664 283.763 C 711.650 278.066, 708.525 275, 706.733 275 C 706.514 275, 704.882 276.807, 703.107 279.016 M 551.107 316.046 C 543.297 318.091, 523.797 326.902, 522.525 328.960 C 521.255 331.015, 523.314 332.022, 535.116 335.118 C 555.863 340.562, 569.689 340.086, 576.615 333.690 C 581.711 328.984, 582.172 324.404, 578.023 319.679 C 572.753 313.677, 564.439 312.555, 551.107 316.046 M 433.458 319.880 C 423.167 324.554, 422.597 336.734, 432.450 341.409 C 440.941 345.438, 453.096 344.022, 472.494 336.745 C 486.048 331.660, 486.049 330.335, 472.500 324.972 C 455.032 318.058, 441.387 316.278, 433.458 319.880 M 279.104 426.718 C 262.879 434.711, 256.531 483.314, 265.091 534 C 272.755 579.380, 296.663 645.035, 303.896 640.564 C 305.662 639.473, 305.304 637.307, 299.463 613.793 C 281.905 543.102, 278.869 499.916, 288.548 458.500 C 293.249 438.383, 293.702 435.616, 292.887 432 C 291.413 425.457, 285.930 423.356, 279.104 426.718 M 683.795 696.750 C 680.682 700.068, 678.436 704.514, 669.016 726 C 665.038 735.075, 658.232 749.289, 653.891 757.586 C 645.701 773.243, 644.342 778, 648.060 778 C 657.780 778, 684.025 733.839, 690.610 706.405 C 693.386 694.834, 690.040 690.093, 683.795 696.750" stroke="none" fill="#640019" fill-rule="evenodd"/>
</svg>