<svg xmlns="http://www.w3.org/2000/svg" width="1000" height="1000" viewBox="0 0 1000 1000" version="1.1">
	<path d="M 471 119.435 C 341.616 134.687, 253.205 216.495, 237.495 335.500 C 232.708 371.760, 235.299 412.035, 244.469 443.892 C 256.932 487.194, 275.836 519.254, 312.274 558.886 C 348.731 598.539, 365.444 627.308, 374.073 665.266 C 381.161 696.444, 385.256 698.432, 441.132 697.828 C 481.261 697.395, 478.620 698.864, 485.029 673.407 C 492.651 643.133, 493.990 614.723, 489.054 588 C 485.861 570.717, 486.021 570.893, 477.744 575.519 C 455.029 588.215, 426.802 586.357, 412.876 571.250 C 398.559 555.718, 398.659 530.530, 413.095 516.095 C 420.606 508.583, 428.581 505.500, 440.500 505.500 C 456.470 505.500, 467.135 510.594, 480.500 524.607 C 487.500 531.945, 487.500 531.945, 487.377 504.223 C 487.240 473.039, 486.493 468.888, 477.983 452 C 471.918 439.964, 468.718 438.140, 453.500 438.042 C 402.453 437.715, 365.719 400.994, 359.819 344.397 C 357.967 326.628, 359.986 325.122, 383.214 326.947 C 448.397 332.069, 482.552 360.706, 484.655 412 C 485.167 424.500, 485.167 424.500, 490.724 435.810 C 493.780 442.030, 496.628 446.755, 497.051 446.310 C 497.475 445.864, 499.379 441.444, 501.281 436.487 C 503.183 431.529, 506.614 423.745, 508.906 419.187 C 513.072 410.901, 513.072 410.901, 513.395 393.700 C 513.868 368.498, 518.758 353.164, 531.084 338.233 C 548.728 316.861, 587.899 302, 626.589 302 C 640.907 302, 642.392 305.807, 638.029 331.328 C 628.139 389.182, 597.818 418.921, 545.749 421.840 C 534.314 422.481, 531.535 422.951, 529.249 424.629 C 521.823 430.079, 512.314 456.484, 508.588 482 C 507.085 492.295, 506.220 527.553, 507.441 528.774 C 507.774 529.107, 510.173 527.322, 512.773 524.806 C 545.322 493.318, 591.385 501.155, 593.788 538.591 C 596.315 577.980, 551.039 597.897, 514.569 573.438 C 510.836 570.934, 507.601 569.065, 507.381 569.286 C 507.161 569.506, 507.887 574.988, 508.994 581.467 C 514.919 616.123, 514.143 639.626, 505.878 675.848 C 500.649 698.764, 497.914 697.412, 550.322 697.812 C 595.531 698.156, 605.466 697.475, 613.653 693.469 C 624.010 688.402, 628.801 679.927, 634.915 655.856 C 643.550 621.864, 656.513 597.369, 685.171 560.895 C 716.984 520.406, 727.629 504.875, 738.531 483.047 C 766.362 427.323, 772.756 367.818, 756.896 312.129 C 730.999 221.198, 653.805 147.670, 561 125.539 C 533.877 119.071, 495.925 116.497, 471 119.435 M 585.163 346.992 C 562.838 355.024, 537.526 377.964, 530.400 396.623 C 528.855 400.667, 528.838 401.267, 530.226 402.654 C 532.471 404.900, 534.693 403.356, 542.292 394.270 C 554.324 379.883, 568.374 367.540, 585.097 356.664 C 594.717 350.408, 596.485 348.706, 595.643 346.513 C 594.874 344.508, 591.659 344.655, 585.163 346.992 M 413.627 371.794 C 412.346 373.867, 414.321 375.852, 424.300 382.523 C 431.809 387.541, 438.670 393.534, 450.303 405.236 C 465.931 420.954, 467.359 421.963, 469.403 418.723 C 471.996 414.612, 458.796 395.978, 446.085 385.808 C 433.200 375.499, 415.943 368.048, 413.627 371.794 M 432.020 528.752 C 426.778 531.385, 424 536.216, 424 542.698 C 424 561.195, 445.588 567.848, 468.297 556.348 C 470.935 555.012, 473.342 553.273, 473.644 552.485 C 475.072 548.765, 460.708 533.634, 451.825 529.498 C 445.346 526.482, 437.152 526.173, 432.020 528.752 M 545 528.865 C 536.314 532.284, 519 545.356, 519 548.496 C 519 550.561, 524.861 555.019, 531.955 558.350 C 550.991 567.287, 570.849 559.945, 571.765 543.630 C 572.537 529.874, 560.003 522.960, 545 528.865 M 410 714.053 C 400.083 714.955, 396.558 716.127, 392.661 719.814 C 382.481 729.445, 385.673 747.057, 398.500 752.038 C 404.366 754.316, 443.652 755.178, 518.500 754.672 C 597.602 754.137, 599.250 754.038, 606.329 749.385 C 613.145 744.903, 615.905 734.495, 612.462 726.254 C 608.771 717.420, 603.771 715.041, 586.568 713.930 C 570.403 712.887, 421.675 712.990, 410 714.053 M 420 769.963 C 409.949 770.847, 405.367 772.587, 401.742 776.895 C 393.102 787.163, 396.910 802.216, 409.514 807.611 C 417.980 811.236, 572.575 812.151, 587.144 808.663 C 607.351 803.825, 609.017 777.702, 589.527 771.292 C 585.049 769.819, 575.990 769.615, 506.500 769.427 C 463.600 769.311, 424.675 769.552, 420 769.963 M 450.500 825.938 C 435.652 826.933, 430.983 829.739, 431.010 837.654 C 431.044 847.606, 447.258 864.576, 465.500 873.752 C 486.238 884.184, 516.248 884.941, 537.445 875.567 C 550.446 869.817, 567.614 855.340, 572.694 845.842 C 577.175 837.465, 574.418 829.454, 566.186 826.928 C 561.823 825.589, 467.733 824.784, 450.500 825.938" stroke="none" fill="#0032e1" fill-rule="evenodd"/>
</svg>