<svg xmlns="http://www.w3.org/2000/svg" width="1000" height="1000" viewBox="0 0 1000 1000" version="1.1">
	<path d="M 472.500 160.073 C 423.347 165.929, 381.639 195.716, 347.987 249 C 331.036 275.839, 303.858 325.547, 301.961 333.179 C 299.224 344.191, 301.825 346.576, 339.500 367.595 C 389.104 395.270, 388.737 395.117, 396.535 391.417 C 401.317 389.147, 404.658 383.626, 424.018 346 C 457.257 281.402, 467.279 266.466, 482.593 258.706 C 499.475 250.152, 521.936 254.525, 540.692 270.020 C 550.006 277.714, 551.551 277.272, 560.484 264.358 C 569.501 251.322, 576.951 242.931, 586.126 235.472 C 605.322 219.868, 605.595 218.928, 594.404 206.962 C 578.584 190.046, 568.473 181.990, 553.303 174.216 C 530.730 162.649, 498.392 156.989, 472.500 160.073 M 732.500 206.603 C 728.100 207.962, 715.950 210.610, 705.500 212.488 C 641.736 223.945, 616.348 234.809, 591.280 261.362 C 566.362 287.757, 558.594 320.108, 567.036 362.320 C 570.625 380.264, 570.654 379.737, 564.299 412.019 C 560.086 433.425, 559.797 435.799, 561.085 438.429 C 563.222 442.795, 567.075 445.167, 572.155 445.244 C 577.942 445.331, 581.026 443.211, 584.536 436.733 C 590.052 426.553, 594.426 420.428, 600.598 414.237 C 609.583 405.223, 612.729 404.050, 628 404.018 C 695.636 403.877, 740.824 355.316, 748.987 274 C 749.566 268.225, 750.313 251.350, 750.646 236.500 C 751.440 201.142, 751.241 200.814, 732.500 206.603 M 669.982 273.840 C 635.395 290.984, 604.305 333.098, 592.507 378.785 C 588.711 393.485, 590.016 394.929, 600.160 387.250 C 607.749 381.505, 609.965 378.357, 613.529 368.256 C 624.087 338.332, 644.536 305.903, 668.397 281.244 C 673.855 275.603, 678.129 270.795, 677.893 270.560 C 677.657 270.324, 674.097 271.800, 669.982 273.840 M 328 401.736 C 320.203 403.182, 255.063 419.898, 235.613 425.444 C 205.598 434.003, 199.109 437.977, 200.408 447 C 201.072 451.611, 204.610 454.611, 220.738 464.239 C 237.556 474.279, 239 475.449, 239 479.052 C 239 480.896, 235.487 488.085, 229.383 498.729 C 190.717 566.157, 180.180 608.975, 191.385 653.145 C 206.369 712.214, 254.296 752.274, 324.500 764.409 C 345.113 767.972, 414.931 772.430, 440.719 771.829 C 464.857 771.267, 463.728 773.964, 464.165 715.833 C 464.495 671.831, 464.469 671.124, 462.410 668.333 C 458.013 662.373, 459.885 662.548, 394.500 661.964 C 341.199 661.488, 333.663 661.226, 327 659.617 C 295.156 651.927, 280.833 627.777, 290.081 597.368 C 293.687 585.512, 320.005 537.261, 325.599 532.250 C 329.195 529.030, 330.058 529.253, 343.435 536.870 C 366.408 549.951, 370.051 551.108, 375.293 546.984 C 381.707 541.939, 381.586 540.275, 370.966 487.500 C 357.129 418.738, 356.289 415.126, 352.909 409.859 C 348.037 402.265, 339.738 399.559, 328 401.736 M 720.988 433.316 C 701.082 441.506, 657.204 468.640, 651.682 476.176 C 648.283 480.813, 648.296 487.900, 651.715 495.192 C 654.780 501.728, 677.333 541.465, 691.287 564.914 C 713.729 602.627, 717.580 619.810, 707.740 638.321 C 698.781 655.173, 683.523 660.935, 645.717 661.742 C 615.400 662.389, 618 664.218, 618 642.246 C 618 623.840, 617.067 620.099, 611.949 617.979 C 605.514 615.313, 605.772 615.142, 554.003 656.561 C 497.458 701.802, 496 703.244, 496 713.915 C 496 722.534, 498.257 725.359, 520.511 744.589 C 528.205 751.237, 543.904 765.100, 555.397 775.395 C 598.458 813.964, 604.093 817.648, 611.331 811.955 C 615.143 808.956, 615.988 804.325, 615.994 786.405 C 615.999 772.328, 616.219 770.119, 617.750 768.786 C 619.147 767.569, 623.735 767.144, 640.500 766.677 C 700.988 764.990, 743.163 750.114, 775.392 719.095 C 806.590 689.069, 820.741 642.712, 813.884 593 C 809.604 561.965, 798.559 537.223, 754.764 460.557 C 741.815 437.890, 739.956 435.338, 734.616 432.913 C 729.331 430.513, 727.681 430.562, 720.988 433.316" stroke="none" fill="#009632" fill-rule="evenodd"/>
</svg>