<svg xmlns="http://www.w3.org/2000/svg" width="1000" height="1000" viewBox="0 0 1000 1000" version="1.1">
	<path d="M 158.764 177.996 C 149.040 180.924, 141.814 191.213, 110.299 247 C 74.190 310.918, 47.984 366.206, 46.358 381.894 C 44.975 395.245, 48.432 399.844, 73.134 417.518 C 118.787 450.183, 159.256 481.503, 173.877 495.488 C 188.423 509.402, 195.537 520.651, 200.020 536.831 C 202.456 545.619, 204.149 548.405, 208.032 550.013 C 214.492 552.689, 216.816 551.210, 236.842 531.677 C 260.719 508.389, 270.368 503, 288.184 503 C 316.121 503, 341.883 528.642, 341.985 556.550 C 342.008 562.815, 342.682 563.075, 357.038 562.348 C 377.340 561.320, 388.474 565.198, 401.202 577.729 C 410.906 587.282, 416 599.599, 416 613.510 C 416 622.930, 416.100 622.998, 429.950 623.012 C 436.567 623.019, 443.717 623.614, 446.690 624.406 C 470.434 630.727, 486.822 653.127, 484.553 676.156 C 483.681 685.005, 484.415 685.994, 491.872 686.017 C 530.386 686.136, 552.162 721.003, 534.980 755.040 C 531.393 762.145, 522.450 773.339, 513.041 782.500 C 498.977 796.194, 499.379 801.835, 515.160 812.266 C 548.677 834.418, 582.065 835.648, 603.794 815.530 C 614.152 805.941, 617.491 796.162, 614.642 783.765 C 613.783 780.030, 613.783 780.030, 621.324 783.514 C 648.084 795.878, 674.320 792.749, 691.982 775.087 C 706.031 761.037, 710.039 744.798, 702.907 730.817 C 700.248 725.606, 700.543 725.462, 708.653 728.017 C 727.990 734.110, 746.678 730.459, 760.414 717.904 C 776.786 702.941, 780.540 682.425, 769.931 665.892 C 765.327 658.717, 700.806 597.182, 694.771 594.210 C 684.674 589.238, 677.250 590.090, 657.033 598.545 C 624.019 612.350, 602.262 615.143, 579.500 608.496 C 561.966 603.377, 551.030 596.673, 522.952 573.833 C 513.353 566.026, 492.450 549.079, 476.500 536.173 C 421.340 491.541, 407.437 477.938, 394.604 456.041 C 362.940 402.015, 388.526 342.129, 444.500 339.257 C 471.193 337.888, 491.718 348.260, 511.600 373.165 C 520.438 384.236, 521.361 385, 525.891 385 C 529.480 385, 530.965 383.753, 536.615 376 C 561.278 342.152, 598.501 330.057, 631.163 345.278 C 667.973 362.433, 680.090 404.494, 660.054 445.566 C 645.388 475.633, 617.855 500.843, 568.500 529.399 C 546.658 542.036, 543.051 546.785, 546.441 558.444 C 548.723 566.294, 557.644 575.332, 568.028 580.314 C 591.972 591.802, 616.500 590.028, 657.945 573.808 C 677.578 566.125, 681.738 565.021, 691 565.036 C 706.589 565.060, 709.455 567.120, 753.500 609.955 C 771.650 627.606, 788.490 643.388, 790.921 645.024 C 802.295 652.679, 815.315 645.419, 821.529 627.957 C 825.666 616.330, 826.170 611.828, 827.011 579 C 828.550 518.880, 830.860 514.001, 878.556 470.114 C 888.486 460.976, 908.876 442.700, 923.866 429.500 C 966.771 391.720, 966.694 392.504, 934.162 324.725 C 909.866 274.103, 860.009 188.591, 850.767 181.688 C 837.325 171.648, 832.072 174.317, 744.104 235.890 C 704.752 263.434, 698.525 266.462, 681.500 266.334 C 666.377 266.220, 652.995 261.895, 607 242.261 C 550.776 218.260, 533.382 212.689, 506.171 209.972 C 478.262 207.185, 454.960 213.451, 413 235.026 C 361.798 261.354, 346.191 267.030, 325.140 266.983 C 305.732 266.939, 295.760 262.279, 256.500 234.909 C 175.526 178.460, 169.288 174.827, 158.764 177.996 M 279 528.353 C 268.802 530.690, 265.372 533.274, 245.178 553.831 C 207.513 592.172, 204.500 596.554, 204.500 613 C 204.500 640.328, 228.510 656.169, 252.196 644.468 C 257.413 641.891, 303.001 597.129, 313.014 584.752 C 323.015 572.389, 324.083 555.627, 315.651 543.337 C 307.393 531.300, 292.577 525.242, 279 528.353 M 350.184 585.500 C 340.050 588.346, 336.240 591.515, 304.655 623.381 C 272.684 655.636, 269.026 659.865, 265.713 668.406 C 259.590 684.193, 267.400 703.593, 282.969 711.267 C 290.626 715.041, 303.627 714.515, 311.764 710.103 C 321.250 704.959, 385.231 641.797, 389.978 632.889 C 396.825 620.044, 395.167 606.614, 385.436 596.104 C 376.194 586.122, 362.568 582.023, 350.184 585.500 M 415.287 645.866 C 406.293 648.974, 400.362 654.026, 367.951 686.191 C 331.191 722.672, 330.554 723.554, 330.520 738 C 330.451 767.074, 361.853 782.054, 385.360 764.162 C 388.187 762.010, 404.772 746.217, 422.216 729.067 C 457.778 694.104, 460.012 691.171, 460.825 678.410 C 462.301 655.224, 438.153 637.966, 415.287 645.866 M 478.746 708.027 C 469.191 710.429, 464.932 713.810, 438.634 739.869 C 408.856 769.376, 407.002 771.995, 407.001 784.554 C 406.998 810.013, 436.382 822.763, 459.606 807.379 C 462.415 805.519, 475.120 793.837, 487.840 781.419 C 508.694 761.063, 511.324 758.124, 514.579 751.537 C 522.683 735.141, 517.417 718.761, 501.528 710.939 C 494.482 707.470, 485.516 706.324, 478.746 708.027" stroke="none" fill="#fa4b19" fill-rule="evenodd"/>
</svg>