<svg xmlns="http://www.w3.org/2000/svg" width="1000" height="1000" viewBox="0 0 1000 1000" version="1.1">
	<path d="M 757.069 195.088 C 731.903 200.025, 715.880 215.278, 711.821 238.164 C 709.060 253.733, 717.664 272.630, 731.858 282.174 C 743.142 289.760, 746.394 294.996, 746.347 305.500 C 746.291 318.149, 739.130 330.637, 725.188 342.403 C 713.163 352.551, 711.616 359.165, 720.228 363.618 C 729.174 368.244, 761.172 358.889, 781.065 345.830 C 823.774 317.795, 842.357 263.919, 822.410 225.961 C 810.694 203.666, 782.134 190.172, 757.069 195.088 M 475.500 279.095 C 436.028 283.350, 421.151 301.784, 434.861 329.452 C 443.447 346.779, 443.469 346.745, 421.937 349.855 C 369.782 357.390, 342.232 364.455, 307.500 379.203 C 269.787 395.216, 235.527 417.954, 229.796 430.774 C 225.637 440.076, 228.873 452.876, 236.761 458.327 C 255.286 471.128, 300.027 480.096, 360.500 483.128 C 391.498 484.683, 549.040 482.730, 568.500 480.550 C 575.650 479.749, 591.625 478.613, 604 478.025 C 638.968 476.363, 652.120 475.171, 693.500 469.909 C 750.940 462.606, 766.382 456.509, 769.373 439.955 C 771.631 427.461, 761.442 416.659, 723.500 391.318 C 686.317 366.484, 646.558 354.715, 587.500 351.062 C 578.700 350.517, 566.155 349.502, 559.622 348.805 C 542.807 347.013, 542.850 347.114, 551.692 329.995 C 558.399 317.011, 558.500 316.699, 558.500 308.994 C 558.500 301.894, 558.219 300.773, 555.458 296.844 C 549.694 288.643, 538.061 282.598, 523 279.978 C 514.706 278.536, 485.695 277.996, 475.500 279.095 M 788.500 469.624 C 778.742 470.585, 770.579 472.435, 758 476.537 C 744.198 481.039, 733.691 482.993, 712.500 485.004 C 705.900 485.630, 682.500 488.377, 660.500 491.108 C 638.500 493.840, 609.700 496.755, 596.500 497.587 C 583.300 498.419, 565.075 499.767, 556 500.582 C 545.346 501.539, 513.988 502.460, 467.500 503.180 C 395.500 504.296, 395.500 504.296, 360.780 501.620 C 311.877 497.851, 271.871 490.655, 238 479.533 C 221.641 474.162, 215.465 473, 203.274 473 C 168.612 473, 139.572 493.371, 128.343 525.563 C 124.323 537.088, 124.265 556.783, 128.217 568 C 137.435 594.157, 150.836 607.192, 186.114 624.317 C 211.567 636.672, 215.344 640.799, 218.623 659.837 C 224.674 694.972, 247.341 734.113, 272.728 753.266 C 304.434 777.186, 335.669 791.295, 374 799.012 C 406.346 805.524, 422.225 806.553, 467.500 805.068 C 543.370 802.580, 558.014 801.933, 571.500 800.475 C 579.200 799.642, 592.925 798.536, 602 798.017 C 624.456 796.732, 674.871 788.736, 687.455 784.464 C 706.761 777.909, 727.214 767.913, 738.297 759.615 C 749.160 751.481, 761.188 740.603, 765.464 735.046 C 778.071 718.661, 788.528 687.141, 792.411 653.819 C 794.685 634.307, 796.614 631.658, 815.964 621.479 C 839.719 608.983, 852.887 598.557, 862.017 585.019 C 880.982 556.898, 878.790 517.976, 857 495.922 C 838.998 477.701, 811.947 467.316, 788.500 469.624 M 776.108 519.993 C 762.010 523.786, 759.518 526.992, 762.435 537.584 C 763.786 542.489, 765.689 551.475, 768.616 566.775 C 769.640 572.130, 772.443 573.329, 782.215 572.591 C 813.172 570.254, 831.622 551.878, 821.966 533 C 815.287 519.944, 796.306 514.560, 776.108 519.993 M 191.385 523.617 C 181.624 527.079, 175.054 536.071, 175.031 546 C 175 559.599, 187.009 569.568, 210.665 575.578 C 224.154 579.006, 225.744 576.411, 226.191 550.251 C 226.482 533.192, 226.380 531.994, 224.406 529.328 C 219.810 523.120, 201.646 519.978, 191.385 523.617" stroke="none" fill="#640032" fill-rule="evenodd"/>
</svg>