<svg xmlns="http://www.w3.org/2000/svg" width="1000" height="1000" viewBox="0 0 1000 1000" version="1.1">
	<path d="M 733.753 199.946 C 725.922 202.453, 715.016 213.312, 694.031 239.497 C 686.262 249.190, 676.812 260.906, 673.029 265.533 C 669.247 270.161, 661.577 280.665, 655.986 288.876 C 650.394 297.087, 640.889 309.811, 634.864 317.152 C 628.839 324.494, 621.117 334.514, 617.704 339.419 C 614.292 344.325, 607.450 353.695, 602.500 360.242 C 597.550 366.789, 587.735 380.100, 580.688 389.823 C 532.727 455.996, 527.355 463, 524.559 463 C 521.772 463, 516.551 457.066, 495.965 430.500 C 489.145 421.700, 477.026 406.690, 469.033 397.144 C 461.040 387.598, 448.875 372.897, 442 364.475 C 435.125 356.052, 425 343.794, 419.500 337.234 C 414 330.674, 405.821 320.850, 401.325 315.403 C 396.828 309.957, 387.909 299.875, 381.505 293 C 375.100 286.125, 363.198 272.625, 355.056 263 C 323.537 225.739, 311.625 216.628, 298.870 220.021 C 282.526 224.368, 263.964 243.068, 262.334 256.826 C 261.350 265.138, 263.093 268.247, 276.450 282 C 283.127 288.875, 293.254 300.125, 298.954 307 C 304.654 313.875, 313.428 324.225, 318.451 330 C 323.474 335.775, 331.165 344.775, 335.542 350 C 339.919 355.225, 354.300 370.539, 367.500 384.030 C 392.202 409.278, 409.002 427.152, 421.987 442 C 426.075 446.675, 438.233 459.500, 449.003 470.500 C 476.796 498.884, 486.004 509.246, 485.983 512.116 C 485.971 513.677, 480.583 521.228, 470.364 534 C 461.784 544.725, 450.654 559.048, 445.632 565.830 C 430.220 586.639, 401.153 624.579, 386.460 643.063 C 378.782 652.723, 367.100 667.958, 360.500 676.919 C 324.205 726.197, 322.031 729, 320.093 729 C 317.427 729, 316.690 726.087, 317.075 717.072 C 318.190 690.958, 314.256 677.736, 302.168 666.962 C 291.534 657.484, 280.884 653.259, 260.500 650.429 C 239.890 647.568, 238.849 647.981, 240.846 658.224 C 241.519 661.676, 242.474 670.800, 242.967 678.500 C 243.461 686.200, 244.613 694.975, 245.528 698 C 251.301 717.092, 265.585 729.602, 284.322 731.977 C 295.243 733.362, 301.700 737.530, 304.076 744.731 C 305.726 749.731, 304.710 752.165, 295.232 765.918 C 285.601 779.891, 284.730 782.944, 289.050 787.568 C 298.132 797.289, 302.628 795.321, 318.954 774.478 C 325.680 765.891, 338.245 750.683, 346.877 740.682 C 355.508 730.682, 365.929 718.450, 370.033 713.500 C 377.985 703.911, 394.971 685.427, 421.956 657 C 431.092 647.375, 444.831 632.300, 452.487 623.500 C 460.142 614.700, 470.520 603, 475.549 597.500 C 480.577 592, 491.808 579.175, 500.506 569 C 509.204 558.825, 516.932 550.135, 517.680 549.689 C 520.032 548.286, 522.669 549.896, 527.662 555.782 C 530.323 558.918, 537.596 566.888, 543.824 573.492 C 550.052 580.097, 562.731 594.725, 572 606 C 581.270 617.275, 592.376 630.325, 596.681 635 C 603.866 642.802, 615.788 656.945, 644.304 691.500 C 650.205 698.650, 657.999 707.875, 661.625 712 C 665.251 716.125, 677.469 731.425, 688.777 746 C 716.934 782.291, 715.636 780.761, 718.853 781.468 C 727.770 783.426, 747 769.125, 747 760.535 C 747 758.014, 742.520 751.083, 724.957 726.436 C 695.185 684.654, 694.841 684.183, 683.965 670.500 C 678.720 663.900, 670.230 652.674, 665.099 645.554 C 659.968 638.434, 651.624 627.409, 646.555 621.054 C 641.487 614.699, 633.130 603.875, 627.983 597 C 622.837 590.125, 614.974 580, 610.510 574.500 C 606.046 569, 598.191 558.650, 593.053 551.500 C 587.916 544.350, 580.290 534.301, 576.106 529.169 C 562.060 511.938, 557 504.905, 557 502.616 C 557 500.171, 557.397 499.702, 587.993 466 C 598.728 454.175, 612.212 439.100, 617.957 432.500 C 623.702 425.900, 634.956 413.300, 642.965 404.500 C 650.975 395.700, 661.797 383.557, 667.014 377.515 C 672.231 371.474, 683.973 358.577, 693.106 348.855 C 702.239 339.134, 717.530 321.802, 727.087 310.340 C 736.643 298.878, 749.213 284.100, 755.020 277.500 C 781.205 247.737, 784.235 240.254, 776.512 224.415 C 768.815 208.630, 746.505 195.862, 733.753 199.946 M 279.250 690.051 C 283.953 701.113, 289.429 712.958, 291.056 715.590 C 293.095 718.889, 298.607 723, 300.993 723 C 304.661 723, 297.461 707.135, 290.001 698.780 C 284.603 692.734, 278.169 687.511, 279.250 690.051" stroke="none" fill="#fa4b19" fill-rule="evenodd"/>
</svg>