<svg xmlns="http://www.w3.org/2000/svg" width="1000" height="1000" viewBox="0 0 1000 1000" version="1.1">
	<path d="M 460.246 199.540 C 457.149 201.709, 456.347 209.429, 454.427 255.500 C 452.277 307.112, 452.825 355.773, 455.983 393.500 C 457.180 407.800, 458.236 423.312, 458.330 427.970 C 458.523 437.570, 458.372 437.733, 450.385 436.535 C 445.181 435.755, 444.888 435.304, 441.083 422.242 C 428.488 379.002, 423.950 363.176, 415.492 333 C 389.904 241.706, 375.568 200.968, 368.750 200.184 C 364.164 199.656, 363.761 202.629, 365.538 223.847 C 369.331 269.123, 384.529 342.047, 402.945 403.338 C 407.381 418.099, 410.756 430.586, 410.446 431.088 C 409.706 432.285, 404.399 432.242, 400 431.004 C 396.651 430.061, 395.993 429.012, 384.780 406.759 C 365.695 368.882, 337.259 319.138, 320.646 294.566 C 310.653 279.788, 291.876 260, 287.844 260 C 281.459 260, 281.650 262.190, 289.901 283.500 C 293.096 291.750, 298.343 305.475, 301.562 314 C 307.994 331.035, 325.539 367.159, 344.207 401.802 C 353.431 418.920, 355.974 424.426, 355.074 425.325 C 354.243 426.157, 349.303 426.398, 338.180 426.150 C 320.019 425.745, 316.580 426.415, 308.344 431.964 C 293.765 441.789, 293.461 450.222, 306.940 470.908 C 320.865 492.278, 320.392 497.987, 302.698 522.093 C 281.079 551.546, 266.466 581.667, 262.590 604.767 C 259.267 624.572, 257.571 650.744, 258.808 663.121 C 264.027 715.312, 298.003 762.384, 344.962 782.484 C 369.614 793.035, 398.340 800.058, 432.999 804.006 C 452.496 806.228, 533.879 806.904, 553 805.004 C 616.302 798.714, 618.562 798.287, 648.698 786.899 C 677.064 776.179, 684.686 771.977, 697.257 760.120 C 716.027 742.419, 731.060 718.571, 737.450 696.362 C 742.167 679.963, 743.020 673.272, 744.220 643.230 C 745.596 608.793, 745.152 603.570, 738.448 575.334 C 732.808 551.581, 728.101 541.422, 714.290 523.200 C 698.431 502.276, 697.110 496.819, 704.607 483.202 C 712.912 468.120, 713.448 466.763, 713.840 459.823 C 714.309 451.534, 711.712 446.287, 704.625 441.197 C 692.431 432.440, 681.454 430.119, 662.579 432.308 C 650.053 433.760, 647 433.691, 647 431.956 C 647 431.500, 651.995 420.411, 658.100 407.313 C 664.206 394.216, 670.007 381.475, 670.992 379 C 671.977 376.525, 678.292 361.900, 685.026 346.500 C 691.760 331.100, 700.594 309.744, 704.656 299.042 C 712.887 277.360, 713.728 276.096, 721.921 273.109 C 734.520 268.515, 740.106 261.333, 740.832 248.794 C 741.451 238.119, 736.597 230.406, 725.795 224.895 C 703.763 213.655, 682.417 236.808, 692.920 260.552 C 696.651 268.987, 696.317 270.019, 680.461 299 C 664.920 327.408, 634.914 386.569, 620.423 417.376 C 610.927 437.564, 609.963 438.762, 603 439.019 C 594.319 439.340, 594.428 440.500, 601.452 422.500 C 625.657 360.473, 650.822 274.518, 647.393 265.582 C 646.113 262.246, 641.611 263.735, 637.814 268.750 C 621.330 290.517, 589.168 362.323, 570.517 419 C 566.806 430.275, 563.061 440.063, 562.194 440.750 C 561.218 441.524, 557.442 442, 552.277 442 C 542.447 442, 542.224 441.755, 543.802 432.676 C 552.638 381.821, 558.594 339.098, 561.112 308.500 C 562.431 292.476, 561.727 259.187, 559.964 254.250 C 558.713 250.743, 555.260 249.777, 553.134 252.339 C 549.304 256.954, 523.339 367.085, 511.249 430 C 509.423 439.500, 509.423 439.500, 500.820 439.787 C 487.928 440.218, 489 444.265, 489 395.162 C 489 341.216, 487.807 322.263, 481.435 275 C 476.079 235.271, 475.084 230.180, 468.407 208.287 C 465.639 199.215, 463.692 197.127, 460.246 199.540" stroke="none" fill="#00964b" fill-rule="evenodd"/>
</svg>