<svg xmlns="http://www.w3.org/2000/svg" width="1000" height="1000" viewBox="0 0 1000 1000" version="1.1">
	<path d="M 245 296.542 C 203.575 302.258, 181.076 310.974, 150 333.350 C 112.777 360.151, 93.935 401.168, 101.563 438.792 C 108.315 472.096, 126.937 502.921, 151.685 521.760 C 168.732 534.737, 214.403 562.218, 241.417 575.753 C 253.479 581.796, 310.225 606.491, 335.500 616.696 C 362.808 627.722, 446.804 655.260, 470.500 660.956 C 482.050 663.732, 498.475 667.785, 507 669.963 C 515.525 672.141, 533.975 676.394, 548 679.414 C 562.025 682.434, 580.475 686.486, 589 688.419 C 614.870 694.285, 632.068 695.848, 690.500 697.645 C 732.404 698.934, 770.652 691.512, 816.500 673.195 C 856.445 657.236, 883.962 632.750, 892.873 605.233 C 895.951 595.731, 900.242 564.319, 900.214 551.500 C 900.160 526.908, 890.182 497.558, 874.843 476.869 C 841.885 432.418, 788.624 406.817, 683.500 384.893 C 634.525 374.680, 599.561 365.768, 556.500 352.523 C 548.800 350.155, 536.425 346.761, 529 344.982 C 521.575 343.203, 507.400 339.542, 497.500 336.846 C 487.600 334.151, 472.975 330.597, 465 328.950 C 457.025 327.303, 442.175 323.737, 432 321.025 C 370.908 304.746, 357.029 301.703, 326.500 297.893 C 304.193 295.109, 260.622 294.387, 245 296.542 M 321.157 327.566 C 302.890 332.397, 284.650 340.162, 272.500 348.280 C 250.608 362.908, 222.253 405.110, 229.469 412.326 C 233.352 416.209, 237.556 413.857, 255 398.041 C 275.126 379.792, 292.884 366.886, 318 352.256 C 326.525 347.289, 337.838 340.703, 343.141 337.619 C 352.648 332.089, 354.469 330.377, 353.137 328.222 C 350.678 324.243, 334.944 323.920, 321.157 327.566 M 464.757 358.984 C 430.430 365.124, 396.821 392.196, 379.417 427.726 C 368.696 449.612, 367.079 462.014, 374.950 461.993 C 378.876 461.983, 381.507 459.792, 399.641 441.427 C 424.948 415.797, 437.849 406.047, 476 383.714 C 499.268 370.094, 502.299 367.943, 501.426 365.669 C 499.877 361.630, 475.156 357.124, 464.757 358.984 M 591 400.553 C 558.343 407.556, 527.671 434.503, 509.521 472.137 C 499.788 492.318, 498.804 502, 506.486 502 C 510.450 502, 512.439 500.513, 526.776 486.828 C 557.405 457.593, 571.389 447.400, 609.781 426.332 C 636.912 411.443, 641 408.790, 641 406.070 C 641 400.805, 607.213 397.076, 591 400.553 M 776 467.560 C 754.078 472.284, 736.367 485.355, 726.534 504.067 C 722.142 512.425, 719.683 514.443, 710.590 517.152 C 680.621 526.080, 664.068 546.327, 661.496 577.203 C 659.945 595.821, 665.554 605.912, 680.794 611.919 C 683.514 612.991, 693.763 615.942, 703.571 618.477 C 730.291 625.382, 735.510 628.414, 742.469 641.073 C 746.405 648.233, 746.696 648.511, 750.559 648.797 C 755.154 649.137, 760.657 646.048, 762.721 641.970 C 763.546 640.338, 763.976 634.600, 763.985 625.066 C 764.009 602.102, 761.683 599.197, 744.190 600.340 C 719.468 601.955, 707.077 594.971, 696.383 573.394 C 688.088 556.656, 688.424 556.107, 708.500 553.566 C 733.526 550.398, 747.723 555.349, 759.352 571.297 C 764.500 578.358, 764.500 578.358, 765.654 573.429 C 766.289 570.718, 766.851 564.544, 766.904 559.708 C 767.218 530.973, 777.463 516.304, 805.735 504.108 C 820.187 497.874, 820.535 498.145, 821.512 516.383 C 822.907 542.427, 815.880 555.858, 795 567.060 C 782.545 573.742, 782.778 573.044, 783.306 602.132 C 783.543 615.129, 784.047 626.267, 784.427 626.882 C 785.612 628.799, 787.271 628.165, 795.509 622.650 C 799.904 619.708, 812.050 612.451, 822.500 606.523 C 868.267 580.562, 876.951 570.276, 873.894 545.652 C 867.603 494.978, 821.059 457.849, 776 467.560" stroke="none" fill="#fa4b19" fill-rule="evenodd"/>
</svg>