<svg xmlns="http://www.w3.org/2000/svg" width="1000" height="1000" viewBox="0 0 1000 1000" version="1.1">
	<path d="M 689 265.448 C 658.111 269.884, 641.485 276.074, 634.952 285.570 C 630.093 292.632, 629.126 293, 615.423 293 C 592.511 293, 552.423 297.033, 547.605 299.823 C 542.074 303.026, 540.567 306.234, 540.725 314.474 C 540.972 327.410, 545.586 334, 554.395 334 C 557.848 334, 565.605 332.919, 604.260 327.055 C 631.384 322.939, 631.507 323.006, 634.533 343.288 C 635.289 348.355, 636.834 357.900, 637.967 364.500 C 642.614 391.580, 646.796 432.906, 647.682 460.500 C 649.258 509.603, 640.048 541.469, 621.683 550.454 C 612.004 555.190, 571.103 559.697, 546.334 558.759 C 525.907 557.985, 521.997 555.261, 519.908 540.353 C 517.094 520.271, 522.814 503.034, 538.383 484.681 C 551.873 468.780, 556.593 454.800, 553.998 438.435 C 550.909 418.954, 541.781 410.980, 518.635 407.543 C 474.008 400.917, 311.371 398.414, 291.645 404.050 C 285.953 405.677, 279.463 412.138, 277.307 418.327 C 273.581 429.019, 275.143 453.314, 280.644 470.245 C 282.342 475.471, 282.945 478.976, 282.496 481.020 C 281.811 484.137, 281.332 484.577, 267.298 494.990 C 244.470 511.930, 224.319 543.976, 218.559 572.500 C 215.360 588.345, 210.631 588.228, 195 571.914 C 185.500 561.999, 185.500 561.999, 178.273 561.999 C 169.273 562, 168.590 561.175, 166.868 548.233 C 165.266 536.191, 166.159 534.740, 177.118 531.580 C 195.359 526.318, 208.440 511.723, 212.504 492.096 C 214.892 480.563, 213.111 478.287, 202.605 479.451 C 180.533 481.896, 166.384 492.192, 158.995 511.183 C 155.618 519.862, 155.413 520.017, 153.435 515.374 C 145.988 497.898, 140.371 490.599, 130.223 485.212 C 121.628 480.650, 105.115 478.285, 102.200 481.200 C 100.591 482.809, 100.689 486.567, 102.581 495.792 C 106.692 515.834, 119.520 530.345, 136.659 534.343 C 147.897 536.965, 148.095 537.226, 150.541 552.627 C 152.618 565.703, 152.487 566.249, 146.644 568.833 C 140.662 571.479, 138.599 574.752, 139.254 580.558 C 140.840 594.633, 159.400 616.434, 179.669 628.031 C 193.721 636.071, 204.234 639.164, 222.299 640.572 C 232.943 641.402, 234.434 642.793, 237.555 654.809 C 247.442 692.873, 278.523 719.299, 321.919 726.539 C 334.636 728.661, 362.954 728.087, 375 725.464 C 401.737 719.641, 428.485 698.031, 442.470 670.953 C 449.228 657.868, 445.935 658.628, 489.837 660.027 C 536.652 661.520, 606.286 659.834, 639.867 656.395 C 661.165 654.214, 664.307 655.282, 667.866 665.912 C 678.548 697.811, 725.329 727.017, 765.708 726.995 C 776.808 726.989, 795.939 724.050, 805.247 720.921 C 856.562 703.673, 888.398 652.783, 883.241 596.249 C 879.103 550.889, 860.048 523.388, 817 500.646 C 807.301 495.522, 790.607 489.485, 783.389 488.491 C 769.633 486.596, 768.431 485.470, 764.904 471.163 C 757.714 442.007, 736.964 398.570, 713.840 364.269 C 707.623 355.048, 706.724 352.700, 708.182 349.499 C 709.541 346.517, 714.169 345.014, 722.016 345.006 C 732.067 344.995, 736.788 340.545, 739.026 328.969 C 740.849 319.543, 741.344 301.104, 740.072 290 C 737.604 268.457, 733.574 264.834, 711.565 264.363 C 704.202 264.205, 694.353 264.679, 689 265.448 M 754.512 561.614 C 721.839 569.513, 703.409 601.509, 714.372 631.305 C 730.682 675.638, 789.934 679.414, 814.043 637.658 C 837.127 597.676, 800.242 550.559, 754.512 561.614 M 340.470 562.053 C 299.632 567.318, 278.521 605.376, 297.497 639.524 C 314.349 669.847, 359.352 676.324, 383.675 651.925 C 420.732 614.754, 392.191 555.386, 340.470 562.053" stroke="none" fill="#1932e1" fill-rule="evenodd"/>
</svg>