<svg xmlns="http://www.w3.org/2000/svg" width="1000" height="1000" viewBox="0 0 1000 1000" version="1.1">
	<path d="M 490.263 182.671 C 477.452 184.467, 486.033 211.064, 504.011 225.281 C 509.170 229.362, 521.852 235.694, 526.678 236.599 C 528.471 236.936, 531.133 238.401, 532.594 239.856 C 535.205 242.456, 535.238 242.658, 534.598 252 C 532.491 282.713, 534.612 280.503, 506.474 281.299 C 479.127 282.072, 462.484 284.627, 427 293.501 C 387.271 303.436, 358.179 318.581, 318.808 349.824 C 294.874 368.817, 287.714 376.713, 267.561 406.346 C 253.944 426.367, 249.390 434.920, 244.606 449.457 C 240.474 462.012, 240.049 467.602, 242.986 470.755 C 247.946 476.078, 278.512 490.470, 300.755 497.955 C 328.481 507.285, 399.735 520.120, 456.500 526.010 C 500.358 530.561, 511.449 533.188, 520.551 541.179 C 537.519 556.077, 532.918 599.489, 511.385 627.674 C 497.179 646.269, 474.681 657.455, 441 662.667 C 427.259 664.794, 385.475 665.042, 364.500 663.122 C 323.631 659.381, 283.472 649.932, 247.005 635.476 C 236.632 631.364, 226.794 628, 225.144 628 C 218.621 628, 217.242 632.409, 216.389 656 C 214.623 704.848, 225.938 741.566, 249.208 762.500 C 285.398 795.056, 366.554 810.282, 435.500 797.450 C 442.650 796.119, 460.875 792.968, 476 790.447 C 491.125 787.925, 511.731 783.855, 521.790 781.401 C 551.090 774.253, 581.576 771.050, 607.500 772.395 C 636.369 773.892, 664.621 768.824, 697.500 756.250 C 725.620 745.496, 733.324 738.593, 751.938 707.476 C 791.337 641.613, 801.502 598.859, 796.536 519.902 C 793.483 471.362, 785.096 445.106, 757.002 396.129 C 744.561 374.440, 736.218 364.993, 711 344.037 C 689.021 325.772, 676.378 317.936, 649.780 306.093 C 622.669 294.021, 605.097 289.239, 572.450 285.050 C 549.711 282.132, 551.044 284.409, 553.684 253 C 554.372 244.805, 558.212 239, 562.942 239 C 567.977 239, 580.970 235.615, 586.699 232.810 C 599.019 226.779, 609.861 211.929, 612.942 196.863 C 615.260 185.529, 611.974 182.715, 596.500 182.785 C 576.499 182.875, 563.904 191.942, 554.001 213.377 C 549.023 224.151, 546.790 224.774, 543.883 216.196 C 536.126 193.311, 513.827 179.368, 490.263 182.671" stroke="none" fill="#19affa" fill-rule="evenodd"/>
</svg>