<svg xmlns="http://www.w3.org/2000/svg" width="1000" height="1000" viewBox="0 0 1000 1000" version="1.1">
	<path d="M 694 220 C 666.412 227.380, 653.334 246.338, 658.519 271.437 C 661.622 286.462, 668.499 296.278, 681.976 304.924 C 689.803 309.945, 692 312.260, 692 315.487 C 692 316.377, 687.008 327.249, 680.906 339.646 C 671.243 359.280, 669.082 362.918, 664.153 367.844 C 654.505 377.487, 635.637 385.573, 612.500 389.982 C 588.765 394.505, 587.092 395.282, 583.471 403.471 C 580.488 410.216, 579.184 410.908, 567.183 412.119 C 546.563 414.200, 543.999 417.868, 539.520 451.678 C 536.139 477.204, 532.343 495.466, 525.527 519 C 516.866 548.906, 518.214 547.732, 490.997 549.077 C 469.748 550.127, 468 549.813, 468 544.940 C 468 541.958, 475.879 514.361, 482.686 493.500 C 487.941 477.397, 492.220 467.422, 501.560 449.500 C 517.871 418.204, 521.582 398.528, 512.711 390.381 C 502.855 381.329, 487.556 379.102, 427 377.904 C 364.119 376.661, 352.140 377.470, 338.425 383.888 C 321.668 391.730, 318.714 400.178, 316.993 445.189 C 315.692 479.236, 314.113 485.620, 304.435 495.966 C 293.312 507.857, 279.633 509.914, 241.500 505.429 C 218.360 502.707, 196.522 504.022, 185.756 508.784 C 180.333 511.182, 175.411 516.778, 173.920 522.237 C 172.532 527.322, 173.349 543.364, 175.487 553 C 178.485 566.508, 177.090 568.688, 163.771 571.305 C 130.909 577.760, 117.140 587.691, 112.889 608 C 111.269 615.741, 112.389 643.610, 114.918 658.500 C 121.397 696.645, 133.732 716.293, 159.256 729.128 C 170.910 734.988, 176.271 736.108, 195.500 736.702 C 228.287 737.714, 250.030 730.482, 269.285 712.160 C 280.306 701.674, 290.375 684.534, 292.946 671.882 C 294.966 661.936, 292.992 662.542, 323.658 662.446 C 361.361 662.328, 379.925 659.165, 399.639 649.502 C 412.550 643.175, 416.687 638.347, 427.434 617.074 C 436.381 599.362, 439.383 595.582, 445.398 594.453 C 454.271 592.789, 455.771 595.548, 451.063 604.876 C 441.484 623.851, 438.563 636.261, 439.267 654.986 C 440.448 686.395, 452.372 709.457, 475.319 724.712 C 499.310 740.661, 543.444 741.481, 572.951 726.525 C 581.153 722.368, 583.679 720.199, 589.864 712 C 602.844 694.793, 607.536 680.048, 606.712 659.050 C 605.909 638.579, 601.827 625.672, 588.883 602.683 C 587.263 599.805, 587.017 598.583, 587.885 597.715 C 589.593 596.007, 593.396 598.376, 610.910 612.059 C 640.156 634.908, 654.615 642.778, 678.743 648.982 C 683.991 650.332, 685.481 652.934, 686.480 662.500 C 689.883 695.075, 712.782 725.853, 740 734.436 C 773.063 744.862, 816.348 740.058, 839.738 723.367 C 881.894 693.286, 895.153 638.256, 871.849 590.097 C 858.629 562.778, 828.040 546.146, 790.809 546.035 C 774.022 545.985, 773.838 544.093, 789.497 532.526 C 800.272 524.566, 805.806 519.209, 808.363 514.265 C 812.326 506.601, 821 463.120, 821 450.916 C 821 424.748, 811.444 386.620, 798.023 359.240 C 787.267 337.296, 779.404 326.814, 763.261 312.897 C 757.637 308.050, 753.766 303.915, 753.369 302.333 C 753.010 300.904, 753.775 294.057, 755.070 287.117 C 761.720 251.455, 753.851 229.663, 731.153 220.885 C 722.845 217.672, 704.351 217.232, 694 220 M 686 409.887 C 672.540 416.024, 660.906 420.021, 643.546 424.470 C 633.482 427.050, 628.704 428.787, 626.231 430.766 C 618.313 437.106, 617.775 437.264, 601.643 437.999 C 574.878 439.219, 574.010 440.294, 566.085 482.012 C 563.317 496.581, 559.249 515.804, 557.044 524.731 C 551.511 547.132, 551.192 546.559, 569.774 547.609 C 582.950 548.354, 582.654 548.477, 586.500 540.677 C 589.510 534.572, 592.586 532.818, 601.159 532.317 C 615.030 531.506, 614.847 531.705, 618.508 513.500 C 624.516 483.625, 628.109 472.805, 635.432 462.543 C 645.344 448.652, 662.432 440.616, 692 435.938 C 711.432 432.864, 711.004 433.432, 705.866 417.557 C 701.122 402.902, 701.228 402.943, 686 409.887 M 678.909 501.282 C 673.981 504.603, 670.778 512.001, 664.950 533.519 C 656.719 563.915, 656.175 565.553, 653.364 568.364 C 649.257 572.470, 644.113 573.402, 632.689 572.107 C 622.031 570.898, 619 571.552, 619 575.058 C 619 582.903, 660.131 609.998, 668.168 607.447 C 670.995 606.549, 671.884 604.043, 674.444 589.749 C 680.462 556.148, 686.079 536.821, 695.149 518.514 C 701.575 505.544, 702.076 502.340, 698 500.288 C 693.629 498.088, 682.814 498.651, 678.909 501.282 M 762.500 590.870 C 738.040 597.910, 721 619.521, 721 643.500 C 721 684.298, 765.506 711.239, 802.713 692.963 C 835.825 676.698, 844.636 633.551, 820.134 607.653 C 805 591.657, 782.513 585.109, 762.500 590.870 M 513.251 608.545 C 483.457 616.568, 470.284 650.951, 487.015 677.023 C 503 701.934, 542.812 702.327, 559.612 677.739 C 582.766 643.850, 552.101 598.084, 513.251 608.545 M 185 611.046 C 164.863 618.274, 153.388 638.493, 156.833 660.676 C 164.365 709.173, 230.272 712.359, 241.492 664.769 C 247.069 641.115, 235.169 618.455, 213.200 610.897 C 205.649 608.299, 192.459 608.369, 185 611.046" stroke="none" fill="#c8197d" fill-rule="evenodd"/>
</svg>