<svg xmlns="http://www.w3.org/2000/svg" width="1000" height="1000" viewBox="0 0 1000 1000" version="1.1">
	<path d="M 740.500 289.400 C 733.653 292.418, 717.281 314.682, 692.078 355.250 C 688.063 361.712, 684.399 367, 683.934 367 C 683.470 367, 678.992 365.197, 673.983 362.992 C 643.467 349.564, 607.069 340.206, 571 336.515 C 562.475 335.643, 554.375 334.711, 553 334.445 C 547.351 333.350, 455.981 332.236, 445 333.128 C 426.105 334.662, 368.147 342.729, 351.500 346.141 C 307.197 355.222, 262.931 380.669, 248.243 405.500 C 239.378 420.487, 234.775 441.647, 234.756 467.500 C 234.733 499.242, 242.243 546.251, 250.915 568.655 C 259.463 590.736, 291.173 630.108, 314.325 647.386 C 379.021 695.666, 460.412 712.287, 557 696.943 C 598.994 690.272, 639.473 674.567, 670.238 653.010 C 706.413 627.662, 738.032 577.031, 745.945 531.782 C 756.457 471.671, 751.283 429.127, 730.107 401.546 C 722.981 392.265, 722.489 389.435, 726.740 382.178 C 730.638 375.524, 742.102 360.293, 758.622 339.819 C 777.658 316.227, 780.584 309.966, 776.248 302.105 C 771.022 292.631, 750.067 285.184, 740.500 289.400 M 451.500 374.624 C 363.803 379.685, 320.131 389.481, 292.500 410.289 C 277.159 421.842, 272.673 438.724, 282.092 449.452 C 288.290 456.511, 294.588 456.513, 311.500 449.458 C 341.029 437.141, 378.147 429.673, 423 427.024 C 433.175 426.424, 448.432 425.497, 456.905 424.966 C 510.695 421.593, 567.121 425.893, 622.723 437.603 C 632.196 439.598, 640.971 440.971, 642.223 440.655 C 643.886 440.234, 647.551 434.974, 655.815 421.148 C 668.142 400.525, 668.853 398.953, 666.670 397.141 C 663.416 394.440, 624.964 384.220, 608 381.548 C 575.672 376.454, 487.432 372.551, 451.500 374.624 M 702.250 421.750 C 696.952 429.475, 685 449.956, 685 451.311 C 685 454.900, 696.623 455.329, 703.512 451.994 C 714.487 446.681, 717.411 431.584, 709.325 421.975 C 706.219 418.283, 704.662 418.233, 702.250 421.750 M 468.757 449.965 C 459.656 451.629, 450.639 455.302, 443.142 460.401 C 429.207 469.879, 429.006 474.846, 442.200 483.671 C 463.722 498.066, 492.624 498.440, 518.492 484.659 C 525.252 481.058, 526.497 481.238, 534.314 486.937 C 547.966 496.889, 556.883 496.196, 552.743 485.503 C 551.784 483.026, 550.216 478.975, 549.258 476.500 C 547.592 472.198, 547.596 471.791, 549.343 467.250 C 553.627 456.114, 554.036 454.689, 553.466 452.893 C 551.981 448.215, 541.597 450.992, 532.402 458.527 C 527.100 462.872, 524.710 462.885, 516.225 458.618 C 501.065 450.995, 482.071 447.532, 468.757 449.965 M 454.655 467.829 C 451.185 471.663, 453.862 477.388, 458.853 476.804 C 462.208 476.412, 464.331 472.502, 462.786 469.563 C 460.689 465.577, 457.340 464.862, 454.655 467.829" stroke="none" fill="#964b19" fill-rule="evenodd"/>
</svg>