<svg xmlns="http://www.w3.org/2000/svg" width="1000" height="1000" viewBox="0 0 1000 1000" version="1.1">
	<path d="M 475 290.079 C 441.303 293.161, 409.503 312.183, 386.532 343 C 375.566 357.711, 372.129 359.988, 352.590 365.494 C 302.163 379.703, 273.272 401.087, 230.888 455.572 C 217.580 472.680, 213.132 477.083, 203.436 482.746 C 193.538 488.526, 190 493.302, 190 500.885 C 190 507.026, 191.601 509.976, 198.569 516.675 C 205.943 523.765, 206.255 525.166, 201.655 530.570 C 192.282 541.582, 194.083 550.295, 207.289 557.824 C 214.338 561.843, 218.049 565.951, 225.868 578.390 C 243.611 606.617, 263.791 625.114, 292.500 639.460 C 305.012 645.713, 314.335 649.145, 342.610 657.909 C 357.352 662.478, 361.091 665.324, 366.580 676.160 C 380.600 703.832, 402.736 718.765, 424.177 715.013 C 439.737 712.290, 445.390 704.422, 444.868 686.219 C 444.534 674.594, 445.432 671.398, 449.279 670.513 C 452.482 669.776, 491.463 668.006, 505 667.984 C 511.325 667.973, 520.775 667.305, 526 666.500 C 541.586 664.098, 543.439 664.332, 558.263 670.576 C 579.800 679.648, 596.346 682.224, 612.758 679.062 C 627.915 676.141, 636.971 667.402, 636.994 655.673 C 637.003 651.528, 641.511 647.573, 648.542 645.543 C 666.476 640.367, 672.861 630.594, 668.952 614.302 C 667.266 607.273, 668.754 604.222, 676.783 598.243 C 685.718 591.590, 692.572 588.556, 698.449 588.654 C 708.325 588.819, 710.492 590.514, 736.320 618.279 C 765.011 649.122, 790.399 663.191, 817.500 663.264 C 835.425 663.312, 846.562 658.534, 851.467 648.691 C 856.083 639.427, 854.300 631.195, 844.500 616.537 C 835.967 603.775, 835.873 601.669, 843.197 587.142 C 851.827 570.024, 851.260 562.940, 839.880 545.700 C 830.838 532.001, 830.821 527.087, 839.770 512.091 C 851.976 491.636, 852.020 482.009, 839.991 463.583 C 828.716 446.312, 828.715 443.782, 839.974 421.500 C 848.823 403.989, 850.623 397.741, 848.958 390.315 C 844.097 368.621, 809.318 362.027, 778.500 376.956 C 765.287 383.357, 754.895 391.935, 729.877 417.091 C 710.449 436.626, 705.521 441.063, 702.127 442.080 C 693.907 444.543, 688.502 441.227, 664.771 419.159 C 647.014 402.646, 646.352 401.495, 648.005 389.967 C 651.702 364.169, 643.877 354.379, 614.836 348.471 C 601.894 345.838, 597.452 342.937, 593.107 334.278 C 586.843 321.796, 570.388 314, 550.311 314 C 543.686 314, 531.902 311.982, 528.500 310.265 C 526.850 309.433, 522.575 305.949, 519 302.524 C 507.340 291.351, 496.038 288.155, 475 290.079 M 150.173 346.425 C 121.474 355.774, 120.589 396.398, 148.853 407.065 C 175.370 417.072, 201.675 389.450, 189.864 364 C 183.028 349.270, 165.401 341.464, 150.173 346.425 M 163.558 434.492 C 148.409 439.889, 145.455 459.938, 158.611 468.069 C 178.660 480.460, 199.323 453.783, 181.676 438.289 C 176 433.305, 170.265 432.103, 163.558 434.492 M 302.450 477.351 C 292.240 481.984, 289.933 495.441, 298.029 503.143 C 308.430 513.037, 325 506.015, 325 491.714 C 325 480.858, 312.404 472.835, 302.450 477.351" stroke="none" fill="#19964b" fill-rule="evenodd"/>
</svg>