<svg xmlns="http://www.w3.org/2000/svg" width="1000" height="1000" viewBox="0 0 1000 1000" version="1.1">
	<path d="M 567 239.032 C 526.460 244.538, 518.602 246.862, 485 263.281 C 444.186 283.225, 430.515 295.192, 406.330 332.145 C 391.663 354.555, 385.373 369.368, 379.617 395.061 C 369.903 438.418, 369.898 470.355, 379.597 513.788 C 384.416 535.371, 389.879 549.500, 400.553 567.992 C 409.823 584.053, 404.638 592.222, 390.369 584.038 C 376.900 576.313, 371.751 565.094, 361.054 520.167 C 351.965 481.992, 340.240 461.188, 321.343 449.709 C 311.319 443.619, 310.235 437.675, 313.501 406.722 C 316.632 377.045, 318.258 371.014, 324.235 366.922 C 335.244 359.383, 339.155 352.959, 339.792 341.367 C 340.836 322.355, 329.868 309.877, 312.015 309.765 C 284.070 309.590, 268.711 341.304, 286.973 361.470 C 289.668 364.446, 292.288 368.383, 292.795 370.220 C 294.783 377.419, 288.820 426.610, 285.003 434.493 C 282.330 440.015, 278.167 442.041, 268.066 442.733 C 256.482 443.527, 255.973 442.935, 239.449 409.450 C 224.957 380.084, 224.644 379.041, 227.511 369.591 C 229.550 362.868, 229.378 356.085, 227.006 349.747 C 220.429 332.166, 196.756 327.314, 181.308 340.380 C 169.967 349.973, 168.657 372.525, 178.809 383.376 C 182.057 386.848, 190.447 390.977, 194.282 390.990 C 202.485 391.019, 205.854 394.637, 215.713 414 C 225.243 432.719, 230.344 446.091, 230.825 453.614 C 231.266 460.511, 231.069 460.995, 223.559 471.462 C 210.556 489.586, 205.320 515.926, 209.544 541.973 C 211.686 555.179, 215.776 566.684, 224.415 583.798 C 237.310 609.346, 238.678 618.759, 232.873 642 C 227.817 662.237, 227.929 676.209, 233.235 687.322 C 241.348 704.314, 260.117 715.180, 289.500 719.897 C 296.978 721.097, 337.512 723.564, 365.500 724.523 C 374.850 724.843, 388.575 725.869, 396 726.803 C 412.210 728.841, 443.587 728.963, 492.500 727.178 C 510.650 726.516, 539.225 725.530, 556 724.986 C 627.170 722.680, 678.634 719.192, 703.563 714.987 C 713.532 713.306, 729.051 711.515, 738.500 710.957 C 781.941 708.388, 797.246 704.881, 805.878 695.516 C 812.756 688.054, 813.735 679.792, 808.890 670.096 C 802.284 656.877, 787.398 649.580, 760.802 646.524 C 753.769 645.716, 750 643.053, 750 638.892 C 750 634.326, 752.436 631.539, 763.444 623.517 C 776.042 614.337, 788.638 601.376, 796.710 589.288 C 805.031 576.827, 807.125 572.294, 825.027 528 C 834.597 504.321, 837.307 462.959, 831.478 429.533 C 824.583 389.997, 820.722 377.810, 808.677 357.576 C 804.068 349.834, 798.584 340.350, 796.491 336.500 C 788.582 321.958, 782.805 314.971, 767.847 301.856 C 762.706 297.348, 755.800 291.178, 752.500 288.145 C 737.327 274.200, 719.143 263.533, 698 256.175 C 691.675 253.973, 682 250.525, 676.500 248.511 C 654.877 240.593, 638.139 237.968, 606 237.455 C 585.624 237.129, 579.059 237.394, 567 239.032 M 568.661 331.520 C 537.540 336.532, 507.440 349.753, 491.464 365.430 C 479.342 377.325, 459.496 411.372, 452.510 432.258 C 444.198 457.111, 445.707 498.051, 455.698 518.707 C 459.926 527.448, 467.624 535, 472.307 535 C 480.148 535, 481.518 529.776, 478.400 511.750 C 474.972 491.928, 477.413 460.507, 483.819 441.996 C 490.800 421.821, 510.034 395.449, 525.047 385.469 C 562.260 360.730, 615.258 360.173, 660.892 384.043 C 680.126 394.103, 703.606 419.199, 713.538 440.309 C 730.085 475.484, 728.103 519.832, 708.263 558.334 C 702.545 569.430, 695.527 578.610, 682.484 592.054 C 669.743 605.187, 667.873 610.814, 675.021 614.511 C 686.773 620.588, 711.903 604.801, 730.748 579.500 C 740.198 566.814, 753.035 536.023, 756.179 518.500 C 758.179 507.353, 757.912 468.401, 755.767 458.500 C 749.459 429.384, 739.140 410.107, 716.208 384.600 C 699.090 365.558, 693.124 361.085, 668.217 348.614 C 637.862 333.414, 598.679 326.686, 568.661 331.520 M 575.500 437.102 C 553.717 442.433, 539.853 453.285, 530.534 472.298 C 518.307 497.246, 519.321 527.282, 532.502 530.590 C 538.316 532.049, 541.285 527.568, 544.488 512.500 C 551.304 480.431, 576.635 462.284, 604.465 469.533 C 634.815 477.438, 647.856 508.918, 634.485 542 C 630.203 552.596, 629.714 556.921, 632.455 559.950 C 638.537 566.671, 653.483 556.821, 661.645 540.713 C 667.658 528.849, 670.099 507.191, 667.079 492.500 C 663.135 473.305, 646.823 452.925, 627.979 443.647 C 610.356 434.970, 593.039 432.811, 575.500 437.102" stroke="none" fill="#c8197d" fill-rule="evenodd"/>
</svg>