<svg xmlns="http://www.w3.org/2000/svg" width="1000" height="1000" viewBox="0 0 1000 1000" version="1.1">
	<path d="M 454.500 163.715 C 423.286 168.031, 415.629 182.048, 421.842 223.500 C 426.615 255.350, 426.659 283.489, 421.985 316 C 416.554 353.780, 419.333 361.902, 438.760 365.027 C 475.857 370.993, 479.248 371.222, 520 370.517 C 606.317 369.025, 611.452 365.909, 604.923 319 C 600.759 289.090, 601.820 261.311, 608.703 220 C 614.292 186.453, 611.305 170.561, 598.333 164.823 C 594.291 163.035, 592.043 162.993, 548.800 163.894 C 522.853 164.434, 498.587 164.470, 492 163.977 C 480.319 163.102, 459.959 162.960, 454.500 163.715 M 431.169 379.089 C 426.971 379.960, 422.424 384.261, 420.779 388.915 C 419.037 393.845, 419.295 412.129, 421.288 425 C 423.627 440.106, 426.264 472.751, 425.538 477.598 C 423.873 488.695, 420.357 486.983, 411.511 470.770 C 387.568 426.887, 362.390 407.022, 316.149 395.531 C 287.969 388.528, 255.128 388.704, 235.810 395.961 C 226.175 399.581, 220.807 408.095, 223.047 416.208 C 226.411 428.392, 267.026 467.777, 299.396 490.247 C 332.412 513.164, 351.035 520.533, 393.399 527.444 C 419.818 531.754, 421.915 533.595, 420.020 550.820 C 418.084 568.431, 421.485 576.963, 432.230 581.452 C 434.281 582.309, 444.406 584.549, 454.730 586.431 C 504.005 595.411, 525.868 595.620, 568 587.511 C 577.625 585.658, 587.525 583.837, 590 583.464 C 609.626 580.508, 614.859 569.028, 610.042 539.500 C 604.197 503.677, 604.749 491.811, 614.966 433.500 C 621.184 398.019, 617.854 383.612, 603.122 382.257 C 600.378 382.004, 593.420 382.894, 586 384.446 C 536.776 394.744, 486.015 393.631, 448.866 381.437 C 442.187 379.245, 435.007 378.292, 431.169 379.089 M 761.500 554.535 C 699.733 565.978, 660.794 596.959, 631.948 657.610 C 624.376 673.530, 621.725 676.547, 618.619 672.781 C 616.849 670.636, 616.786 669.276, 617.558 650 C 618.876 617.071, 618.679 611.344, 616.021 605.222 C 610.974 593.596, 605.476 592.793, 582.839 600.372 C 556.369 609.234, 545.864 611.083, 518.401 611.715 C 491.766 612.328, 481.931 611.463, 458.397 606.438 C 428.686 600.095, 423.444 602.310, 420.819 622.315 C 419.855 629.665, 420.021 632.080, 422.449 646 C 423.935 654.525, 425.888 665.775, 426.788 671 C 429.365 685.956, 429.070 723.847, 426.215 744.500 C 420.069 788.969, 425.775 802.370, 453.744 809.160 C 466.987 812.375, 576.148 812.407, 588 809.199 C 622.591 799.837, 628.836 791.460, 624.562 760.153 C 621.543 738.046, 622.378 732.332, 629.226 728.233 C 632.769 726.112, 644.170 721.638, 664.215 714.502 C 731.611 690.507, 774.511 652.058, 790.855 601 C 798.097 578.376, 799.283 568.934, 795.750 562.020 C 791.606 553.908, 779.346 551.229, 761.500 554.535" stroke="none" fill="#197d4b" fill-rule="evenodd"/>
</svg>