<svg xmlns="http://www.w3.org/2000/svg" width="1000" height="1000" viewBox="0 0 1000 1000" version="1.1">
	<path d="M 473.500 201.638 C 456.306 204.346, 438.108 212.925, 431.680 221.353 C 419.912 236.782, 417.770 264.421, 426.384 289.679 C 431.573 304.892, 442.448 317.649, 454.188 322.295 C 472.440 329.518, 507.891 329.156, 522.814 321.594 C 544.038 310.839, 557.760 273.757, 551.509 244.043 C 549.425 234.136, 546.812 229.565, 538.592 221.453 C 525.268 208.302, 509.651 202.014, 489 201.486 C 482.125 201.310, 475.150 201.378, 473.500 201.638 M 402.190 300.026 C 400.335 301.157, 398.189 303.683, 397.307 305.772 C 395.323 310.476, 386 365.631, 386 372.663 C 386 385.379, 390.508 395.978, 400.527 406.818 C 408.549 415.496, 410.122 418.748, 411.136 428.755 C 412.223 439.481, 416.554 456.405, 419.515 461.500 C 423.998 469.212, 430.256 474.141, 442.164 479.339 C 451.458 483.395, 452.098 488.888, 443.936 494.544 C 434.941 500.778, 428.430 509.923, 424.552 521.769 C 422.189 528.987, 420.021 529.973, 406.645 529.918 C 397.234 529.879, 387.682 531.110, 374 534.125 C 367.030 535.661, 362.202 539.370, 359.434 545.314 C 355.751 553.225, 356.229 557.033, 361.229 559.618 C 365.159 561.651, 367.327 561.068, 380.500 554.442 C 391.500 548.910, 391.500 548.910, 404.063 548.310 C 416.627 547.710, 416.627 547.710, 418.813 550.490 C 420.235 552.298, 421.012 554.709, 421.036 557.385 C 421.055 559.648, 421.680 564.046, 422.424 567.158 C 424.684 576.611, 423.945 577.252, 409.093 578.725 C 389.595 580.658, 369.803 587.252, 362.128 594.372 C 350.699 604.974, 353.797 622.830, 366.245 618.097 C 367.551 617.600, 372.331 613.787, 376.866 609.623 C 386.687 600.606, 393.319 598.020, 413.282 595.423 C 429.065 593.370, 430.989 593.902, 438.433 602.381 C 445.195 610.083, 445.355 611.911, 439.750 617.507 C 435.189 622.061, 436.484 621.644, 413.892 625.853 C 402.431 627.989, 384.634 634.431, 378.151 638.791 C 370.926 643.649, 356.181 656.972, 353.844 660.752 C 350.309 666.472, 350.538 675.341, 354.306 678.585 C 360.875 684.240, 370.414 679.558, 376.534 667.674 C 382.120 656.829, 391.999 649.825, 409.254 644.476 C 421.613 640.644, 422.866 641.978, 419.045 654.892 C 407.162 695.055, 413.741 730.069, 439.206 762.204 C 454.071 780.962, 465.541 788.072, 492.500 795.239 C 503.238 798.094, 505.973 798.432, 518.500 798.451 C 540.793 798.485, 550.350 794.933, 568.156 779.992 C 581.516 768.782, 584.051 765.738, 589.630 754.209 C 602.462 727.684, 600.082 687.851, 583.397 649.901 C 578.166 638.004, 580.157 636.642, 594.908 642.026 C 610.444 647.696, 616.247 651.649, 623.572 661.554 C 636.346 678.827, 651.175 677.686, 648.468 659.637 C 647.413 652.597, 644.982 649.834, 632.583 641.577 C 613.957 629.173, 597.604 623.130, 575.816 620.598 C 562.858 619.093, 560.224 617.938, 552.089 610.200 C 547.076 605.431, 547.004 603.593, 551.591 597.584 C 555.994 591.818, 558.040 590.991, 567.815 591.031 C 586.949 591.110, 607.848 597.417, 617.382 605.991 C 626.079 613.813, 628.016 615, 632.078 615 C 641.292 615, 641.781 599.771, 632.839 591.267 C 625.317 584.113, 597.090 575.609, 576.240 574.216 C 563.683 573.377, 562.411 572.313, 564.034 564 C 564.518 561.525, 564.932 556.913, 564.956 553.750 C 565.025 544.633, 566.645 543.587, 579.370 544.433 C 591.385 545.233, 593.595 545.840, 605.930 551.733 C 618.089 557.543, 621.965 558.126, 625.424 554.667 C 633.358 546.733, 622.312 530.056, 609.071 529.979 C 607.107 529.968, 602.575 529.285, 599 528.463 C 595.425 527.640, 586.200 526.701, 578.500 526.376 C 561.698 525.666, 561.024 525.338, 556.592 515.694 C 552.036 505.779, 546.886 499.845, 537.512 493.709 C 525.657 485.948, 525.773 482.422, 538.095 476.011 C 547.537 471.099, 552.882 466.139, 556.564 458.873 C 559.853 452.384, 564 436.291, 564 430.021 C 564 421.257, 567.483 414.826, 578.625 403.014 C 586.898 394.245, 588.206 391.011, 588.740 378 C 589.189 367.088, 587.226 351.649, 582.957 332.500 C 581.853 327.550, 580.297 320.398, 579.499 316.607 C 576.159 300.741, 567.126 293.967, 557.299 299.960 C 549.387 304.784, 549.084 313.247, 556.370 325.880 C 568.128 346.264, 572.436 370.333, 566.448 382.175 C 561.112 392.725, 555.993 392.395, 549.980 381.114 C 534.270 351.638, 496.002 334.121, 468.596 343.859 C 452.879 349.444, 435.249 364.135, 426.661 378.805 C 418.030 393.547, 412.509 393.342, 407.509 378.094 C 403.898 367.083, 408.032 345.893, 417.520 326.782 C 420.925 319.923, 423 314.456, 423 312.340 C 423 304.082, 417.279 298.007, 409.500 298.007 C 407.248 298.007, 404.053 298.889, 402.190 300.026" stroke="none" fill="#1932e1" fill-rule="evenodd"/>
</svg>