<svg xmlns="http://www.w3.org/2000/svg" width="1000" height="1000" viewBox="0 0 1000 1000" version="1.1">
	<path d="M 486.500 256.644 C 467.789 259.669, 451.727 268.935, 441.385 282.671 C 425.420 303.873, 426.823 333.924, 444.671 353.065 C 450.521 359.339, 450.862 360.716, 449.202 371.362 C 446.270 390.171, 444.290 391.554, 432.498 383.032 C 399.556 359.222, 385.742 350.700, 358 337.069 C 326.633 321.657, 297.642 311.722, 262.500 304.341 C 245.911 300.857, 211.954 300.275, 199.056 303.254 C 177.254 308.290, 166.236 316.202, 158.071 332.688 C 144.558 359.970, 154.210 390.743, 182.706 411.234 C 211.617 432.024, 250.525 445.423, 292 448.872 C 336.266 452.554, 364.962 450.972, 409 442.423 C 426.185 439.087, 437.899 438.713, 440.886 441.405 C 444.047 444.253, 444.015 459.439, 440.841 463.475 C 438.379 466.605, 437.044 466.621, 403.245 463.919 C 370.308 461.287, 335.544 465.778, 297 477.645 C 212.292 503.725, 174.452 533.750, 180.891 569.777 C 185.821 597.364, 209.793 612.241, 249.500 612.358 C 266.167 612.407, 275.011 610.861, 295.261 604.359 C 348.993 587.104, 391.784 563.524, 426.500 532.038 C 438.459 521.192, 442.838 520.022, 445.752 526.896 C 447.026 529.903, 447.261 535.963, 447.169 563.500 C 447.096 585.072, 447.600 603.599, 448.623 617 C 449.484 628.275, 450.543 655.050, 450.977 676.500 C 451.680 711.216, 451.998 716.406, 453.868 723.747 C 459.218 744.752, 470.321 757.691, 486.398 761.658 C 507.952 766.977, 529.454 750.663, 537.381 722.975 C 540.041 713.685, 541.877 700.910, 543.963 677.181 C 545.065 664.646, 547.138 644.290, 548.570 631.945 C 550.493 615.372, 551.390 601.129, 551.998 577.500 C 553.146 532.869, 554.655 523.944, 560.793 525.484 C 562.103 525.813, 568.422 530.699, 574.837 536.343 C 609.466 566.808, 642.397 585.755, 688 601.451 C 736.291 618.071, 768.627 619.873, 794.731 607.399 C 824.328 593.255, 828.291 554.280, 802.575 530.263 C 776.978 506.358, 728.518 485.245, 677 475.551 C 648.047 470.103, 644.373 469.790, 601.777 469.130 C 553.195 468.378, 556.882 469.493, 556.725 455.507 C 556.641 447.945, 556.892 446.545, 558.564 445.277 C 561.382 443.139, 572.946 444.167, 593.730 448.404 C 618.866 453.528, 629.474 454.776, 659 456.079 C 740.007 459.656, 801.408 444.509, 831.210 413.595 C 855.518 388.380, 854.062 343.428, 828.452 328.419 C 814.658 320.335, 785.696 315.699, 763 317.942 C 717.880 322.401, 626.959 352.805, 576.116 380.437 C 554.926 391.953, 553.160 391.760, 551.127 377.709 C 549.279 364.934, 549.312 364.799, 556.101 357.308 C 567.494 344.736, 572 333.695, 572 318.352 C 572 282.257, 544.061 257.931, 501 256.533 C 494.675 256.328, 488.150 256.378, 486.500 256.644 M 464.500 296.801 C 450.761 305.560, 455.604 325.297, 471.529 325.449 C 486.517 325.593, 492.460 306.598, 480.252 297.567 C 476.465 294.766, 468.315 294.369, 464.500 296.801 M 527 298.211 C 517.915 300.681, 513.398 311.314, 517.752 319.980 C 524.793 333.996, 546.385 328.792, 546.385 313.079 C 546.385 302.507, 537.177 295.445, 527 298.211" stroke="none" fill="#32affa" fill-rule="evenodd"/>
</svg>