<svg xmlns="http://www.w3.org/2000/svg" width="1000" height="1000" viewBox="0 0 1000 1000" version="1.1">
	<path d="M 648.500 157.402 C 634.328 161.896, 619.665 177.117, 613.908 193.313 C 611.448 200.233, 610.490 199.906, 606.069 190.644 C 598.823 175.462, 587.577 166.937, 573.766 166.157 C 560.187 165.389, 555.617 174.569, 562.689 188.401 C 567.625 198.054, 575.615 203.625, 590 207.442 C 601.535 210.503, 603.010 211.914, 602.976 219.861 C 602.924 232.099, 601.079 235.306, 593.490 236.346 C 578.445 238.409, 571.261 249.118, 566.892 276 C 564.157 292.825, 563.487 295.872, 558.320 315 C 552.517 336.485, 549.843 349.002, 545.602 374.543 C 541.549 398.949, 539.128 407.802, 530.867 428.406 C 522.919 448.229, 518.553 463.656, 514.886 484.873 C 513.234 494.429, 510.300 507.704, 508.364 514.373 C 506.429 521.043, 502.859 533.378, 500.431 541.784 C 494.063 563.828, 494.065 563.825, 483.423 567.067 C 466.964 572.080, 457.674 582.187, 454.092 598.977 C 451.698 610.201, 443.303 619.535, 428.500 627.430 C 402.747 641.166, 394.561 646.709, 374.500 663.988 C 367.350 670.147, 357.556 677.732, 352.735 680.843 C 299.586 715.145, 297.203 717.023, 296.265 725.341 C 295.186 734.917, 302.010 741.432, 317.357 745.474 C 325.809 747.700, 329.751 751.313, 332.892 759.712 C 337.216 771.274, 343.819 776.388, 358.261 779.362 C 370.316 781.844, 370.869 782.256, 383.283 798 C 391.908 808.939, 398.357 811.293, 417.094 810.345 C 433.641 809.508, 436.442 810.316, 449.114 819.583 C 465.155 831.315, 474.171 832.979, 492 827.496 C 506.286 823.102, 511.869 823.413, 524.721 829.315 C 545.599 838.903, 553.299 838.178, 565.524 825.475 C 573.827 816.848, 576.580 816.096, 591.366 818.415 C 607.708 820.978, 613.446 818.973, 618.541 808.919 C 621.765 802.558, 623.897 801.363, 633.345 800.623 C 650.725 799.263, 660 790.765, 660 776.200 C 660 766.328, 656.402 759.645, 644.116 746.696 C 629.697 731.498, 607.267 701.517, 598.709 686 C 596.737 682.425, 592.867 674.221, 590.108 667.769 C 587.350 661.318, 582.141 651.443, 578.532 645.825 C 570.345 633.078, 570.032 631.850, 570.280 613.500 C 570.546 593.879, 569.322 589.555, 560.975 580.632 C 555.670 574.961, 555 573.782, 555 570.113 C 555 564.067, 561.998 535.203, 568.483 514.500 C 575.083 493.432, 579.700 476.100, 584.041 456.100 C 585.761 448.180, 588.894 436.878, 591.006 430.984 C 595.168 419.365, 597.278 409.357, 599.013 393 C 600.407 379.857, 601.910 373.950, 608.154 357.083 C 610.892 349.689, 614.949 336.877, 617.170 328.610 C 619.391 320.344, 623.194 308.274, 625.620 301.787 C 638.633 267.001, 636.795 247.393, 619.841 240.142 C 614.132 237.700, 613.589 236.188, 614.938 226.490 C 616.538 214.987, 619.537 211, 626.589 211 C 632.200 211, 644.953 207.637, 651.858 204.337 C 674.203 193.659, 687.375 163.651, 672.454 157.416 C 668.242 155.657, 654.032 155.648, 648.500 157.402" stroke="none" fill="#966432" fill-rule="evenodd"/>
</svg>