<svg xmlns="http://www.w3.org/2000/svg" width="1000" height="1000" viewBox="0 0 1000 1000" version="1.1">
	<path d="M 430.750 287.993 C 399.420 290.050, 364.901 298.362, 344.777 308.696 C 333.324 314.576, 326.736 321.582, 320.646 334.354 C 313.538 349.263, 312.152 349.763, 291 345.048 C 263.677 338.958, 238.354 342.396, 212.898 355.654 C 201.325 361.681, 186.115 377.416, 175.681 394.157 C 166.663 408.627, 164.135 417.334, 158.540 453.197 C 151.804 496.383, 154.575 517.906, 171.126 550.952 C 185.293 579.237, 200.737 593.165, 238.234 611.468 C 261.399 622.776, 263.541 624.700, 269.125 639.209 C 278.849 664.475, 291.143 676.581, 323.500 692.749 C 353.895 707.938, 359.808 709.225, 410.011 711.588 C 458.796 713.885, 504.700 712.082, 525 707.071 C 547.621 701.488, 574.318 686.088, 585.559 672.138 C 595.481 659.824, 606.662 631.050, 610.076 609.041 C 614.796 578.611, 614.567 579.056, 638.329 554.266 C 645.059 547.245, 655.240 535.690, 660.952 528.589 C 680.522 504.264, 739.067 443.584, 744.015 442.497 C 747.666 441.695, 750.280 443.060, 756.500 449.019 C 781.396 472.870, 816.299 476.920, 833.364 457.940 C 841.264 449.153, 844.533 437.004, 843.706 419.500 C 842.481 393.554, 829.934 369.234, 809.539 353.276 C 773.624 325.175, 739.159 335.883, 729.962 378 C 727.299 390.197, 726.686 390.808, 706.626 401.270 C 697.747 405.901, 682.837 414.416, 673.492 420.194 C 664.146 425.972, 651.550 433.339, 645.500 436.566 C 639.450 439.793, 629.358 445.486, 623.073 449.217 C 609.954 457.005, 605.330 457.959, 602.397 453.484 C 600.756 450.979, 594.715 422.805, 588.910 390.585 C 583.804 362.243, 578.322 348.600, 564.736 330.428 C 551.438 312.641, 544.668 307.760, 526 302.504 C 520.775 301.033, 510.338 297.842, 502.806 295.413 C 478.675 287.630, 462.171 285.931, 430.750 287.993 M 420 317.007 C 382.235 319.857, 370.678 322.509, 365.095 329.607 C 360.729 335.157, 363.221 341.252, 371.686 345.726 C 396.158 358.660, 460.469 361.510, 500.500 351.434 C 530.817 343.803, 516.960 326.115, 475.020 318.908 C 461.538 316.591, 436.821 315.737, 420 317.007 M 253.763 392.456 C 245.663 395.557, 241.153 399.900, 228.757 416.538 C 208.988 443.073, 206.472 449.641, 206.551 474.500 C 206.598 489.325, 206.655 489.699, 211.399 506.500 C 217.131 526.797, 221.258 535.933, 228.057 543.372 C 237.582 553.794, 251.420 557.639, 260.077 552.269 C 268.201 547.230, 270.930 536.591, 272.972 502 C 274.651 473.542, 275.806 466.230, 283.156 437.500 C 291.965 403.070, 287.868 392.038, 266.001 391.308 C 260.402 391.121, 256.224 391.513, 253.763 392.456 M 813.401 499.905 C 797.964 506.916, 802.884 530.231, 819.800 530.231 C 834.155 530.231, 841.840 514.721, 832.664 504.270 C 827.159 498.001, 820.779 496.555, 813.401 499.905 M 847.684 558.416 C 840.468 561.051, 837 566.214, 837 574.320 C 837 593.605, 866.920 594.291, 868.769 575.049 C 869.884 563.449, 858.497 554.467, 847.684 558.416 M 793 595.722 C 782.650 599.611, 778.950 613.317, 786.063 621.419 C 799.828 637.096, 823.921 617.153, 811.024 600.757 C 807.384 596.131, 798.510 593.651, 793 595.722" stroke="none" fill="#fa4b19" fill-rule="evenodd"/>
</svg>