<svg xmlns="http://www.w3.org/2000/svg" width="1000" height="1000" viewBox="0 0 1000 1000" version="1.1">
	<path d="M 546.500 150.558 C 545.400 150.812, 542.025 151.516, 539 152.123 C 532.025 153.522, 507.849 162.544, 497.931 167.449 C 467.177 182.658, 450.169 219.523, 458.841 252.175 C 465.714 278.051, 479.433 296.904, 502.090 311.607 C 507.394 315.049, 512.019 318.608, 512.367 319.515 C 513.571 322.653, 512.972 325.959, 506.625 351.173 C 503.118 365.103, 499.461 380.908, 498.498 386.295 C 495.717 401.857, 495.225 402.049, 484.218 391.862 C 479.203 387.221, 471.875 381.416, 467.935 378.962 C 454.215 370.416, 454.692 371.182, 453.877 356.370 C 452.451 330.452, 443.593 313.501, 425.507 302.078 C 399.710 285.786, 370.487 284.200, 343.719 297.640 C 320.556 309.269, 308.934 322.340, 299.523 347.343 C 287.848 378.359, 303.972 410.863, 339.309 427.550 C 350.773 432.965, 357.794 434.435, 372 434.396 C 401.429 434.317, 424.656 422.456, 440.085 399.629 C 445.400 391.766, 448.376 390.127, 453.166 392.428 C 464.058 397.659, 477.985 411.506, 483.327 422.416 C 488.670 433.327, 489.109 437.093, 487.876 461.446 C 487.262 473.576, 486.965 495.949, 487.217 511.165 C 487.783 545.430, 487.779 545.442, 477.425 537.396 C 474.166 534.863, 469.700 531.887, 467.500 530.783 C 461.436 527.738, 459 525.088, 459 521.536 C 459 507.001, 448.680 491.489, 434.640 484.919 C 412.287 474.458, 387.348 478.557, 370.478 495.463 C 351.950 514.031, 351.134 537.327, 368.405 554.593 C 379.075 565.259, 387.625 568.456, 405.500 568.462 C 425.451 568.469, 438.236 562.961, 448.453 549.956 C 454.095 542.775, 455.497 542.578, 463.595 547.828 C 478.804 557.689, 486.504 570.208, 488.495 588.315 C 490.617 607.609, 490.817 607.438, 466.129 607.473 C 455.883 607.488, 435.800 607.099, 421.500 606.609 C 369.465 604.826, 357.567 608.535, 357.697 626.500 C 357.767 636.097, 366.320 672.082, 372.636 689.355 C 375.682 697.685, 379.738 711.475, 381.650 720 C 384.729 733.734, 391.776 759.391, 402.641 796.420 C 411.314 825.978, 416.935 829.726, 456 831.999 C 465.625 832.558, 479.125 833.492, 486 834.073 C 494.415 834.784, 504.709 834.820, 517.500 834.182 C 527.950 833.661, 541.225 833.242, 547 833.252 C 571.105 833.293, 593.457 823.020, 600.441 808.690 C 604.840 799.665, 612.965 763.714, 615.487 742.116 C 617.067 728.587, 619.612 715.299, 623.074 702.500 C 624.116 698.650, 626.334 687.412, 628.003 677.528 C 629.673 667.643, 632.679 653.693, 634.684 646.528 C 641.918 620.674, 640.407 608.803, 629.180 603.289 C 623.500 600.500, 623.500 600.500, 602.500 600.579 C 586.520 600.640, 577.675 601.195, 565.500 602.900 C 542.496 606.122, 521.932 606.841, 518.427 604.544 C 516.031 602.974, 515.814 602.343, 516.272 598.280 C 517.352 588.698, 528.757 571.300, 539.925 562.198 C 545.165 557.926, 545.505 557.804, 549.925 558.597 C 567.734 561.793, 579 554.938, 579 540.908 C 579 534.277, 576.303 529.809, 570.647 527.071 C 557.900 520.900, 542 529.530, 542 542.620 C 542 545.699, 541.313 546.921, 537.905 549.910 C 535.652 551.884, 529.662 557.438, 524.593 562.250 C 519.523 567.063, 514.850 571, 514.207 571 C 512.037 571, 511.587 565.589, 511.543 539 C 511.500 512.598, 511.510 512.477, 514.126 506.270 C 523.578 483.843, 541.702 464.293, 563.088 453.456 C 570.315 449.793, 572.040 450.505, 577.147 459.259 C 589.714 480.799, 606.817 490.254, 633.500 490.414 C 649.187 490.508, 658.138 488.222, 673.436 480.217 C 708.634 461.798, 715.724 411.463, 687.121 383.051 C 673.421 369.441, 660.470 364.500, 638.500 364.500 C 599.474 364.500, 574.913 384.145, 569.023 420.070 C 567.471 429.538, 566.327 431.246, 559.422 434.407 C 545.796 440.645, 533.962 449.120, 522.124 461.118 C 510.884 472.510, 510.448 472.257, 510.689 454.473 C 511.095 424.567, 515.900 392.922, 526.393 351.048 C 533.220 323.805, 531.619 325.474, 551.644 324.716 C 580.571 323.620, 604.211 313.771, 622.158 295.338 C 640.992 275.994, 648.543 247.065, 641.562 221 C 635.759 199.335, 611.620 170.907, 588.973 159.066 C 576.713 152.656, 555.668 148.441, 546.500 150.558" stroke="none" fill="#197d4b" fill-rule="evenodd"/>
</svg>