<svg xmlns="http://www.w3.org/2000/svg" width="1000" height="1000" viewBox="0 0 1000 1000" version="1.1">
	<path d="M 429.949 213.826 C 412.648 218.343, 401.764 231.975, 400.344 250.903 C 399.312 264.670, 402.925 279.635, 415.219 312.500 C 433.935 362.533, 439 379.342, 439 391.425 C 439 400.129, 437.417 403, 432.618 403 C 426.095 403, 425.390 401.582, 412.540 362.645 C 391.579 299.129, 381.096 277.301, 365.542 264.783 C 345.047 248.288, 315.866 254.180, 304.664 277.075 C 294.073 298.723, 301.776 328.221, 332.442 383.456 C 354.169 422.588, 359.747 438.253, 354 444 C 351.628 446.372, 349.866 446.499, 346.135 444.570 C 342.237 442.554, 339.609 438.311, 327.658 414.736 C 304.208 368.480, 289.589 353.606, 267.500 353.531 C 252.161 353.478, 241.404 360.665, 234.180 375.794 C 230.538 383.421, 230.500 383.628, 230.537 396 C 230.601 418.216, 238.722 437.311, 267.705 483.403 C 282.511 506.949, 288.925 519.704, 299.432 546.500 C 318.887 596.116, 325.394 609.939, 338.502 629.500 C 351.652 649.124, 364.462 662.139, 387 678.772 C 410.833 696.362, 413.494 701.664, 415.476 735.500 C 416.948 760.611, 422.119 770.513, 437.433 777.544 C 466.045 790.679, 517.560 785.209, 588.916 761.457 C 613.697 753.208, 630.598 745.111, 637.756 738.057 C 648.268 727.698, 649.028 721.936, 643.449 694.902 C 636.776 662.569, 637.818 656.274, 652.603 639.588 C 669.555 620.457, 675.491 612.989, 684.465 599.500 C 700.315 575.675, 704.648 566.411, 715.704 532.717 C 723.270 509.659, 731.735 493.258, 751.815 462.750 C 768.827 436.903, 772.901 429.459, 775.461 419.540 C 784.902 382.970, 750.638 356.342, 711.501 369.831 C 691.734 376.645, 679.608 389.074, 661.889 420.682 C 652.508 437.418, 649.122 442.174, 643.901 445.957 C 635.506 452.038, 626.390 448.764, 622.315 438.203 C 620.183 432.679, 619.945 416.692, 621.374 375 C 623.828 303.382, 614.463 259.417, 591.955 236.892 C 568.095 213.012, 537.033 218.233, 526.801 247.841 C 522.731 259.618, 523.506 283.551, 528.845 311 C 539.316 364.838, 540.089 387.734, 531.544 390.983 C 526.390 392.943, 522.664 389.192, 520.137 379.500 C 519.563 377.300, 517.708 366.500, 516.014 355.500 C 507.891 302.754, 499.404 265.406, 491.470 247.500 C 479.368 220.186, 455.541 207.144, 429.949 213.826" stroke="none" fill="#1932e1" fill-rule="evenodd"/>
</svg>