<svg xmlns="http://www.w3.org/2000/svg" width="1000" height="1000" viewBox="0 0 1000 1000" version="1.1">
	<path d="M 438.125 181.453 C 417.690 185.328, 400.952 194.832, 392.718 207.238 C 385.358 218.328, 384.266 230.573, 388.578 253.683 C 391.597 269.869, 394.370 285.643, 400.587 322 C 407.723 363.731, 409.197 369.591, 414.544 377.469 C 417.295 381.524, 417.583 383.271, 415.750 384.792 C 413.551 386.616, 384.980 394.382, 384.038 393.411 C 383.523 392.880, 384.265 389.372, 385.816 385 C 388.319 377.949, 388.476 376.453, 388.443 360 C 388.385 330.923, 374.697 255.111, 366.473 238.315 C 359.910 224.912, 350.696 219.596, 334 219.583 C 308.591 219.561, 289.111 233.153, 275.013 260.738 C 268.552 273.380, 266.704 284.226, 267.301 306 C 267.900 327.845, 272.383 374.654, 274.580 381.996 C 275.842 386.217, 275.980 388.190, 275.172 390.496 C 263.949 422.541, 263.691 478.137, 274.613 510.725 C 285.123 542.085, 299.356 562.950, 325.168 584.839 C 346.438 602.875, 348.398 615.381, 337.009 660.366 C 325.551 705.621, 318.980 745.792, 320.426 761.744 C 322.194 781.251, 331.218 795.605, 346.553 803.299 C 365.177 812.643, 394.096 818.895, 435 822.422 C 458.565 824.454, 550.725 823.865, 566.500 821.581 C 611.353 815.089, 630.992 808.019, 645.843 793.020 C 659.890 778.833, 662.456 770.004, 661.691 738.500 C 661.173 717.168, 661.019 715.863, 656.642 695.500 C 645.992 645.952, 643.974 627.202, 647.432 609.950 C 650.881 592.739, 654.653 587.394, 674.908 571.009 C 704.442 547.119, 726.413 520.382, 737.781 494.500 C 744.101 480.112, 750.747 459.963, 753.193 447.776 C 756.524 431.175, 756.535 400.349, 753.214 388 C 740.870 342.105, 713.328 334.995, 620 353.609 C 567.189 364.142, 555.784 369.158, 548.629 385 C 540.675 402.611, 547.960 420.911, 566.684 430.353 C 578.670 436.397, 593.873 436.977, 620.792 432.420 C 628.653 431.089, 635.516 430, 636.042 430 C 638.452 430, 636.541 433.238, 631.678 437.392 C 611.627 454.522, 576.001 455.590, 552.348 439.770 C 525.240 421.639, 521.229 385.554, 543.889 363.677 C 551.633 356.201, 557.294 353.118, 572.941 347.856 C 595.486 340.274, 597.856 333.808, 602.578 267 C 605.120 231.034, 603.820 214.473, 597.474 201.949 C 582.769 172.931, 528.806 173.530, 515.644 202.858 C 511.800 211.423, 510.784 226.432, 510.693 276 C 510.599 327.215, 511.350 336.093, 516.682 346.792 C 519.023 351.489, 519.972 354.428, 519.349 355.051 C 517.874 356.526, 490.354 363.350, 488.598 362.676 C 487.264 362.164, 487.398 361.180, 489.599 355.334 C 492.735 347.002, 493.822 334.949, 493.916 307.500 C 493.953 296.500, 494.279 271.525, 494.640 252 C 495.466 207.281, 494.370 199.524, 486.046 191.200 C 477.313 182.467, 455.828 178.097, 438.125 181.453 M 641 219.977 C 621.790 224.079, 619.062 232.652, 615.989 298.580 C 614.758 325.002, 615.523 333.303, 619.510 336.750 C 622.700 339.509, 621.523 339.520, 642.329 336.546 C 663.248 333.556, 679.762 332.008, 690.782 332.003 C 705.713 331.997, 707.570 330.154, 710.962 311.972 C 718.405 272.070, 712.243 248.976, 689.726 232.382 C 677.135 223.103, 653.975 217.207, 641 219.977" stroke="none" fill="#fa4b19" fill-rule="evenodd"/>
</svg>