<svg xmlns="http://www.w3.org/2000/svg" width="1000" height="1000" viewBox="0 0 1000 1000" version="1.1">
	<path d="M 473 171.594 C 466.759 174.298, 464.019 178.175, 453.985 198.500 C 448.555 209.500, 441.908 222.550, 439.213 227.500 C 436.518 232.450, 430.807 244.150, 426.520 253.500 C 415.828 276.825, 412.316 283.711, 400.513 304.500 C 394.892 314.400, 386.617 329.025, 382.124 337 C 377.631 344.975, 369.859 356.900, 364.854 363.500 C 342.173 393.403, 327.449 419.704, 309.989 461.500 C 302.025 480.565, 293.183 517.810, 286.842 559 C 280.213 602.062, 286.659 651.554, 303.441 686.445 C 313.258 706.855, 346.193 745.201, 364.307 757.311 C 380.289 767.995, 415.489 784.093, 432.463 788.479 C 462.301 796.190, 489.286 799.480, 516.372 798.709 C 539.277 798.056, 547.743 796.462, 573 788.042 C 639.187 765.977, 676.663 733.124, 701.729 675.194 C 723.311 625.317, 727.528 592.458, 718.556 544.081 C 713.200 515.198, 706.036 496.997, 691.366 475 C 669.457 442.150, 654.877 421.160, 644.479 407.500 C 637.781 398.700, 626.980 383.400, 620.476 373.500 C 608.675 355.534, 605.845 351.581, 587.889 327.982 C 564.628 297.410, 534.759 247.803, 523.547 221.121 C 516.787 205.035, 503.989 180.143, 500.880 177.034 C 494.182 170.336, 481.581 167.878, 473 171.594 M 396.634 534.515 C 378.009 537.532, 375.329 543.109, 381.042 566.956 C 382.157 571.608, 385.022 579.538, 387.410 584.579 C 401.115 613.509, 418.891 629.035, 449.861 639.123 C 462.037 643.089, 466.280 646.256, 470.698 654.674 C 479.213 670.899, 480.164 684.136, 475.907 727.191 C 474.213 744.321, 477.206 748, 492.833 748 C 499.378 748, 501.194 747.635, 503.440 745.869 C 507.792 742.446, 508.056 741.123, 509.512 715.500 C 511.037 688.676, 515.150 674.241, 523.105 667.803 C 526.723 664.875, 532.477 663.283, 549.238 660.574 C 593.387 653.439, 621.038 626.061, 625.991 584.579 C 627.768 569.695, 625.036 565.568, 611 561.936 C 600.566 559.236, 590.312 559.653, 575.830 563.365 C 543.952 571.537, 521.503 589.976, 507.369 619.597 C 501.584 631.721, 499.798 633.960, 497.166 632.391 C 493.903 630.447, 490.051 620.590, 487.488 607.620 C 480.836 573.969, 467.083 553.264, 443.922 542.032 C 427.966 534.295, 412.838 531.890, 396.634 534.515" stroke="none" fill="#19affa" fill-rule="evenodd"/>
</svg>