<?xml version="1.0" encoding="UTF-8"?>
<svg id="Layer_2" data-name="Layer 2" xmlns="http://www.w3.org/2000/svg" viewBox="0 0 107.61 107.61">
  <defs>
    <style>
      .cls-1 {
        fill: #fff;
      }

      .cls-2 {
        fill: #ff8831;
      }
    </style>
  </defs>
  <g id="Layer_1-2" data-name="Layer 1">
    <g>
      
      <g>
        <path class="cls-2" d="M57.89,29.11c-.25,2.07.61,3.58.54,5.5-6.35-3.01-12.44,4.91-9.28,10.62,2.04,5.24,10.79,5.73,9.88,12.22.23,3.87.36,7.3.74,11.14-2.15,9.34,6.89,10.88,14.05,10.21,14.14.88,14.63-3.21,15.73-15.95.14-7.13,1.81-13.91,2.33-21.02.03-3.41,1.13-6.13.88-9.55.77-4.44.71-5.43-4.15-4.82-2.37-.22-3.98-.41-6.37-.47-5.37.95-10.59-.67-16.03.21-2.45.15-7.74-1.27-8.33,1.92ZM56.18,46.08c-6.32-2.19-3.21-10.53,2.25-6.02,0,2.88.48,4.99.45,7.79-.89-.66-1.9-1.28-2.7-1.77Z"/>
        <path class="cls-2" d="M50.67,52.7c-4.42,1.04-.33-2.15-3.46-2.72-5.23.14-10.15-.36-15.38-.29-4.29-.36-8.21.12-12.5-.04-4.88-.85-5.23.43-4.65,5.01.83,3.06.87,5.78,1.94,8.77.92,3.99.74,8.44,3.84,11.57,2.98,3.21,7.64,4.37,11.87,3.72,7.41,1.65,17.44-2.14,15.92-11.13,10.75,1.62,13.99-14.56,2.42-14.9ZM52.92,62.37c-1.03,1.15-3.05,1.09-4.31,1.06-.32-2.25-1.04-6.47,2.15-6.86,2.9.12,4.43,3.25,2.16,5.81Z"/>
      </g>
    </g>
  </g>
</svg>