<?xml version="1.0" encoding="UTF-8"?>
<svg id="Layer_2" data-name="Layer 2" xmlns="http://www.w3.org/2000/svg" viewBox="0 0 107.61 107.61">
  <defs>
    <style>
      .cls-1 {
        fill: #fff;
      }

      .cls-2 {
        fill: #a50c6e;
      }
    </style>
  </defs>
  <g id="Layer_1-2" data-name="Layer 1">
    <g>
      
      <path class="cls-2" d="M89.45,78.1c-1.86-7.39-2.35-15.45-3.72-23.06-1.47-7.69-1.48-15.84-4.24-23.2-3.3-5.1-35.34-2.04-47.1-2.51-1.24-.05-2.48.03-3.7.25-1.65.29-3.45.32-4.43,1.9-3.07,7.45-2.87,15.91-4.47,23.76-1.35,7.56-1.74,15.57-3.72,22.86-.08.14-.1.25-.06.33.05.11.16.21.34.21.34,0,.75,0,1.15,0h.81c1.05,0,1.47-.01,1.54-1.17.32-2.07.42-4.2,1.2-6.17.24-.62.62-1.06,1.3-1.39.07-.03.15-.12.19-.21,4.29-.49,9.15.05,13.59-.04.78-.02,1.49.49,1.69,1.25.45,1.64-.18,4.26-.05,5.6-.15,1.39-.18,2.25,1.49,2.14,1.52-.25,10.26.93,9.62-1.19.24-2.74-.78-8.27,3.45-7.86.26,0,.51,0,.77,0h-.01c1.62.95,1.48,3.55,1.64,5.18.22,1.31-.74,3.97,1.38,3.79.22.13.44.07.67.05-.05-.02-.1-.04-.15-.05,2.01,0,3.58.05,4.8.11-1.12,0-2.24,0-3.36,0,1.44.09,2.94.11,4.4.06,4.45.21,2.77-.1,3.04-7.4.05-.58.16-1.34.79-1.74h0c4.1-.01,8.19,0,12.28.08.62.1,1.16.33,1.56.87,1.36,2.18,1.24,4.88,1.73,7.34.68,1.41,3.74.53,5.11.81.4.11.89-.28.48-.59ZM41.31,50.48c-.33,3.6-.11,7.32-.88,10.86-.44,1.48-9.23.75-13.56.72v-.04c-1.92-1.64.46-9.83.46-12.64.26-7.2,2.86-10.93,9.81-13.11h0s0,0,0,0c1.05.42,1.99,1.11,2.71,2.12,2.76,3.42,1.58,8.06,1.46,12.08ZM51.15,58.24c.57-4.96-1.67-16.05,2.87-18.76,3.64,4.03,2.09,10,2.48,15.06-.32,2.3.9,6.01-1.18,7.59-.14,0-.27,0-.4.01-3.29.31-3.98-.76-3.77-3.9ZM80.87,61.79c-4.37.5-8.85.49-13.35.41-1.61-2.16-.97-9.15-1.49-12.22-.27-4.62-.94-10.93,3.77-13.7,2.84.73,5.48,2.09,7.52,4,2.59,2.37,2.5,6.07,2.96,9.29-.01,2.83,2.24,10.34.59,12.22Z"/>
    </g>
  </g>
</svg>