<?xml version="1.0" encoding="UTF-8"?>
<svg id="Layer_2" data-name="Layer 2" xmlns="http://www.w3.org/2000/svg" viewBox="0 0 107.61 107.61">
  <defs>
    <style>
      .cls-1 {
        fill: #fff;
      }

      .cls-2 {
        fill: #ffabac;
      }
    </style>
  </defs>
  <g id="Layer_1-2" data-name="Layer 1">
    <g>
      
      <path class="cls-2" d="M92.1,63.75c-.15-1.61-.17-3.21-.65-4.76-.37-1.17-.61-2.4-1.17-3.47-.56-1.07-1.37-2.02-2.04-3.04-.88-1.35-1.75-2.7-2.5-4.12-.44-.82-1.08-1.55-1.46-2.4-.38-.84-.75-1.72-1.07-2.59-.46-1.23-.81-2.5-1.27-3.72-.46-1.23-.66-2.55-1.13-3.78-.51-1.34-1.05-2.74-2.01-3.83-1.28-1.44-2.98-2.23-4.96-1.9-.38.06-.75.21-1.13.26-.27.04-.51-.06-.46-.36.06-.39.31-.75.38-1.14.23-1.35.3-2.77.97-3.98.08-.15.51-.4.37-.55-.31-.33-.83-.56-1.31-.59-.36-.02-.48.34-.55.68-.19.92-.78,1.77-.93,2.7-.15.93-.29,1.88-.38,2.82-.04.4.12.73-.27.66-.51-.09-1.01-.33-1.52-.44-1.38-.3-2.63-.2-3.85.54-.82.5-1.54,1.1-2.16,1.84-.97,1.16-1.67,2.46-2.28,3.84-.5,1.12-.84,2.28-1.23,3.44-.38,1.16-.76,2.32-1.13,3.48-.37,1.18-.86,2.33-1.37,3.45-.5,1.12-1.04,2.25-1.68,3.31-.5.32-1.57.16-1.57.16h-.04c-.93-1.13-2.21-1.89-3.37-2.7-1.27-.89-2.61-1.54-4.15-1.9-1.65-.39-3.29-.61-4.92-.32-1.61.28-3.15,1-4.63,1.85-.06-.49-.29-1.05-.41-1.52-.03-.12.05-.23,0-.35,1.96-.42,3.51-1.09,4.75-1.84,1.71-1.03,2.59-2.42,3.28-3.74.74-1.41,1.45-2.75,1.5-4.07.09-2.41-.85-4.45-.85-4.45-1.34.55-2.41,1.41-3.4,2.14-1.17.85-2.21,1.7-2.98,2.68-.9,1.14-1.43,2.4-1.9,3.52-.61,1.45-1.03,2.84-1.2,3.89-.82-1.7-1.96-3.35-3.29-4.69-1.41.4-1.46.88-1.92,2.27.93.63,1.84,1.38,2.61,2.19.84.87,1.8,1.73,2.33,2.83.21.43.07,1.01.12,1.51-1.35-.7-2.77-1.27-4.21-1.5-1.56-.24-3.14.13-4.72.5-1.47.35-2.73.97-3.95,1.79-1.21.82-2.53,1.56-3.45,2.76-.88,1.14-1.69,2.45-2.27,3.85-.56,1.35-.87,2.87-1.12,4.4-.24,1.44-.07,2.96,0,4.5.06,1.46-.08,3.01.28,4.51.31,1.3,1.06,2.42,1.55,3.6.51,1.23,1.06,2.39,1.75,3.46.72,1.12,1.39,2.24,2.27,3.17,1.2,1.26,2.57,2.24,3.98,3.06,1.49.87,3,1.76,4.62,2.05,1.65.29,3.41.19,5.08-.2.86-.2,1.64-.81,2.42-1.18,1.47.34,2.95.53,4.41.34,1.45-.19,2.95-.45,4.31-1.11,1.3-.63,2.49-1.59,3.63-2.59,1.12-1,3.17-.96,4.14-.33.13.11.26.22.38.34.85.8,1.64,1.68,2.65,2.28.99.58,2.14.84,3.27,1.24,1.46.51,2.92.78,4.46.99,1.48.2,2.98.42,4.57.41.95,0,1.96-.07,3-.14.98-.07,2.01.05,3.01-.1,1.06-.15,2.12-.34,3.14-.58,1.04-.25,2.1-.48,3.09-.85.99-.37,1.74-1.24,2.68-1.77.83-.47,1.72-.78,2.45-1.37.73-.59,1.51-1.15,2.12-1.88.81-.99,1.18-2.2,1.7-3.29.54-1.12,1.2-2.17,1.47-3.39.26-1.19.06-2.44.1-3.7.04-1.02.08-2.01-.02-3.03ZM57.1,67.07c-.32,1.36-1.21,2.54-1.78,3.76-.6,1.29-.93,2.68-1.77,3.77-.26.34-.55.66-.86.98-.09-.09-.18-.18-.26-.28-.77-.98-1.31-2.1-1.81-3.18-.5-1.09-.56-2.3-.82-3.47-.3-1.33-.54-2.65-.58-4.01-.04-1.3.27-2.49.61-3.7.35-1.21.84-2.33,1.56-3.46.64-1.01.84-2.25,1.53-3.24.42-.61.99-1.15,1.51-1.71.66.95,1.16,2.02,1.64,3.1.51,1.16.6,2.47.83,3.77.23,1.24.66,2.49.62,3.81-.04,1.25-.13,2.57-.43,3.86Z"/>
    </g>
  </g>
</svg>