<?xml version="1.0" encoding="UTF-8"?>
<svg id="Layer_2" data-name="Layer 2" xmlns="http://www.w3.org/2000/svg" viewBox="0 0 107.61 107.61">
  <defs>
    <style>
      .cls-1 {
        fill: #4c2007;
      }

      .cls-2 {
        fill: #fff;
      }
    </style>
  </defs>
  <g id="Layer_1-2" data-name="Layer 1">
    <g>
      
      <path class="cls-1" d="M82.91,56.2c-.53-2.34-1.13-4.64-1.77-6.94-.48-1.73-1.27-3.49-2.71-4.6-1.4-1.08-3.27-1.84-5.1-1.95-1.62-.1-3.25-.01-4.87,0s-3.23.22-4.85.21c-1.47,0-2.94.22-4.4.23s-2.94-.26-4.41-.24c-2.27.03-4.55.16-6.82.18-.32-.83-.72-2.19-.91-3.84-.14-1.18-.26-2.53-.02-3.95.19-1.14.75-2.25,1.31-3.45.49-1.03,1.2-1.83,2.07-2.86.31.3.52.17.95.36,1.23.53,2.59,1.43,4.13,1.67,1.41.22,2.9-.34,4.39-.67,1.48-.33,3.08-.45,4.26-1.25,1.29-.88,2.14-2.28,3.03-3.28,1.69-1.9,1.13-4.84-1.21-5.83-1.23-.53-2.75-.67-4.3-.9-1.41-.22-2.82-.28-4.3.05-1.83.41-3.58.92-4.95,1.98.02-.42-.17-.62-.22-1.05-.27-2.38-1.13-4.65-2.43-6.08-1.29-1.42-3.46-.81-4.39.86-.94,1.68-2.07,3.81-1.8,6.19.27,2.38,1.7,4.33,2.99,5.76.2.22.38.72.26.46.33.74-.56,1.37-1.04,2.42-.55,1.18-1.43,3.07-1.67,4.21-.33,1.61-.3,3.31-.21,4.71.11,1.77.16,3.11.53,4.28-1.82.04-3.47.1-5.29.21-1.52.09-2.7,1.13-3.96,1.97-1.08.72-2.42,1.04-3.5,1.75-1.08.71-2.07,1.58-3.15,2.29-1.61,1.05-2.7,2.74-3.43,4.55s-.96,3.74-.53,5.62c.3,1.32,1.07,3.93,1.07,3.93.28,1.15.53,2.32.73,3.49.43,2.5,2.19,4.11,4.86,3.84,1.38-.14,2.75-.46,4.13-.59s2.73-.68,4.11-.8,2.8.13,4.19.01c1.29-.11,2.5-.62,3.74-.93s2.5-.56,3.74-.89c.08-.02,2.04-.78,4.23-1.38,1.54-.42,3.19-.76,4.31-1.09.56-.16.89.21,1.12.73.42.94.75,1.94,1.19,2.87.09.2.3.76.58.76.32,0,.62-.56.71-.78.54-1.33.65-2.82,1.2-4.15.16-.4.47-.78.99-.8.53-.02,2.07,2.6,2.56,3.57.08.15.69.2.75.05.63-1.5.72-2.97,1.37-4.47.34-.76.63-.63,1.16.05.69.9,1.36,1.81,2.02,2.73.26.36.27.49.55.83.23.28.73.28.85-.07.57-1.68,1.2-3.35,1.77-5.03.21-.61,1.19-.82,1.82-.68.27.06.15.02.22.23.56,1.72,1.38,2.79,2.16,4.41.35.71,1.15.1,1.2-.03.54-1.69.48-2.96,1-4.66.45-1.45.31-2.79-.03-4.27ZM50.82,58.16c-1.88.78-4.07.55-5.94,1.13-1.62.4-3.1,1.1-4.65,1.5-1.75.44-2.92-.41-4.05-1.76-1.06-1.27-1.32-2.4-.67-3.92.55-1.28,1.33-2.39,2.06-3.56.67-1.08,1.51-1.99,2.75-2.12,1.46-.15,2.96.17,4.42.17s2.94-.07,4.4-.07c1.92,0,3.5,1.49,3.86,3.39.43,2.28-.3,4.47-2.18,5.25ZM67.77,54.21c-1.1.28-2.33.05-3.43.32,0,0-2.21.95-3.36,1.21-1.65.37-3.61-.8-3.86-2.48-.09-.63.23-1.32.25-1.96.06-1.73,1.19-2.69,2.92-2.76,1.58-.07,3.12-.42,4.7-.57.78-.07,1.64-.26,2.43-.15,1.51.21,2.27,1.64,2.37,3.12.09,1.4-.59,2.9-2.01,3.26ZM75.79,52.1c-1.22.32-2.64-.43-2.95-1.65-.29-1.16.61-2.53,1.73-2.83,1.14-.31,2.75.53,3.03,1.68.28,1.16-.62,2.48-1.81,2.8ZM81.04,78.45c.09.69.05,1.43-.28,2.03-1.02,1.84-2.65,3.06-4.75,3.52-.51.08-1.01.31-1.53.37-1.44.16-2.88.32-4.32.42s-2.92-.31-4.36-.16c-1.91.2-3.8.72-5.72.86s-3.82.44-5.74.58c-1.41.11-2.85-.1-4.25.02-1.41.12-2.83.07-4.24.18s-2.79.7-4.2.78c-1.23.08-2.64.09-3.7-.65-1.23-.87-2.14-2.19-3.38-3.05s-2.71-1.38-3.94-2.25c-1.31-.92-1.58-2.31-1.21-3.9.38-1.64,1.13-2.91,2.85-3.25.48-.1,1.04.3,1.53.24,1.39-.17,2.74-.48,4.13-.57s2.76-.11,4.15,0c1.68.12,3.39-.13,5.05.1s3.27.86,4.92,1.13,3.33.46,4.99.71c.69.11,1.21.04,1.6-.52.56-.81.86-1.82,1.45-2.61.1-.13.95.11.97.29.07.59-.3,1.22-.24,1.81.16,1.6.38,1.85,1.98,2.06.15.02,1.35-.22,1.65-.63.62-.86,1.1-1.83,1.74-2.68.14-.19.8.1.82.31.05.44.21.87.27,1.31.27,2.1,3.33,2.53,3.59,2.19.76-1.03,1.75-1.93,2.44-3.02.1-.16.82-.25.84-.06.11.93-.08,1.85.03,2.78.14,1.25.42,1.12,1.64,1.32.39.06,1.35.18,1.57-.14.77-1.09,1.69-2.07,2.48-3.14.12-.17.87-.14.9.09.15,1.17.1,2.37.25,3.55Z"/>
    </g>
  </g>
</svg>