<?xml version="1.0" encoding="UTF-8"?>
<svg id="Layer_2" data-name="Layer 2" xmlns="http://www.w3.org/2000/svg" viewBox="0 0 107.61 107.61">
  <defs>
    <style>
      .cls-1 {
        fill: #fff;
      }

      .cls-2 {
        fill: #ff8831;
      }
    </style>
  </defs>
  <g id="Layer_1-2" data-name="Layer 1">
    <g>
      <rect class="cls-1" width="107.61" height="107.61"/>
      <g>
        <path class="cls-2" d="M71.8,43.5c.54,1.01,1.28,1.86,1.94,2.6,1.27,1.4,3.45,1.18,4.37-.47.36-.64.63-1.39.91-2.17.45-1.26.78-2.65.62-4.1-.15-1.31-.59-2.54-1.21-3.59-.49-.83-1.14-1.53-1.7-2.16-1.27-1.4-3.48-1.19-4.4.46-.43.77-.84,1.67-1.14,2.63-.35,1.13-.48,2.38-.34,3.65.13,1.13.46,2.2.96,3.15Z"/>
        <path class="cls-2" d="M90.27,47.75c-.07-1.27-.99-2.17-1.95-2.78-.96-.62-2.19-1.15-3.37-.69-1.27.5-2.62,1.34-3.91,2.27-1.18.85-2.09,2.06-2.93,3.36-.35.54-.75.98-.99,1.55,0,0-1.82,4.67-.6,7.11,0,0-1.74-3.26-.11-7.79-.47-.38-1-.71-1.48-1.12-.82-.69-1.77-1.65-3.22-2.31-1.08-.5-2.36-.85-3.82-1.13-1.2-.23-2.5-.42-3.97-.41-1.59,0-3.41-.21-5.34.19-1.58.33-3.34.8-5.16,1.46-1.32.48-2.44,1.23-3.61,1.59-1.37.42-2.64.71-3.81.98-1.43.33-2.66.92-3.82,1.06-2.21.28-4.05.28-5.42.08-3.01-.42-4-2.13-4.43-2.77-.85-1.24-1.11-2.88-.62-4.35.89.1,1.95.31,2.86.05,1.23-.34,2.23-.94,3.07-1.79,1.3.99,3.1,1.73,5.07,2.01,1.81.26,3.78-.06,5.52-.47,1.46-.34,2.6-.93,3.51-1.63,1.11-.86,2-1.87,2.35-3.08.35-1.2.34-2.6.03-3.94-.31-1.34-1.04-2.5-1.88-3.42-.85-.93-2.05-1.23-3.43-1.51-1.12-.23-2.42-.91-3.88-.57-.2.05-.41.4-.6.45.56-.64.99-1.37,1.41-2.08.76-1.29,1.62-2.38,1.74-3.51.15-1.4-.53-2.62-1.17-3.71-.62-1.08-1.46-2.04-2.65-2.74s-2.43-1.02-3.68-1.05c-1.26-.03-2.49.26-3.64,1.06-.94.65-1.96,1.5-2.72,2.79-.76,1.28-1.17,2.87-1.51,4.37-.36-1.04-.68-2.19-1.25-3.09-.8-1.26-1.8-2.18-2.76-2.81-1.17-.77-2.48-.65-3.74-.59-1.24.06-2.55.09-3.72.82-1.16.73-2.08,1.72-2.67,2.82-.6,1.11-.83,2.4-.64,3.79.15,1.13.31,2.52,1.11,3.79.8,1.27,1.94,2.51,3.13,3.49,1.23,1.03,2.9,1.53,4.24,2.02-.24,1.1-.11,2.27.21,3.43.24.86.09,1.65.59,2.33-.71,1.61-.92,3.47-.85,5.3.07,1.75.67,3.53,1.75,5.1.8,1.17,1.94,2.34,3.55,3.22,1.22.66,2.78.98,4.62,1.26,1.4.21,2.95.08,4.76-.02,1.53-.09,3.23-.02,5.1-.38,1.54-.3,3.16-.81,4.95-1.33,1.53-.45,3.27-.65,4.99-1.27,1.79-.65,3.44-1.35,5.05-1.62,1.91-.33,3.74-.69,5.35-.5,2.25.26,3.95,1.6,5.45,2.88,1.15.97,2.45,1.92,2.97,3.29.53,1.4.55,3.03.29,4.5-.21,1.16-1.18,2.25-3.27,3.16-.47-1.3-.74-1.76-1.58-2.81-.86-1.06-2.06-1.86-3.22-2.58-1.15-.72-2.51-.92-3.85-1.23-1.3-.29-2.47-.42-3.8-.59-.48-1.89-1.09-2.51-2.31-2.34-1.21.16-1.21,2.64-1.21,2.64-1.54.31-30.33,6.27-32.43,7.4-.53,1.87-1.11,2.38-1.34,4.16-.25,1.93-.45,3.8-.29,5.59.16,1.74.84,3.3,1.33,4.9.49,1.59,1.52,2.26,2.6,3.69,2.35.46,30.42-2.23,32.65-1.37,0,0,.43,2.55,1.9,2.38,1.48-.17,1.34-1.53,1.3-2.82,1.39-.16,2.94-.59,4.14-1.16,1.24-.59,2.58-1.07,3.53-2.01.96-.95,1.91-2.06,2.51-3.28.59-1.2.69-4.51.69-4.51.1-.03,1.85-.34,1.95-.37,1.14-.41,1.45-.33,2.36-1.08.9-.76,1.57-1.77,2.19-2.81.71-1.19,1.21-2.52,1.48-3.98.04-.23-.08-.74-.05-.97.36-.03.87.08,1.24-.06,1.38-.55,2.75-1.47,4.13-2.53,1.05-.81,2.14-1.57,2.9-2.75.84-1.31,1.65-2.65,1.93-4.07.31-1.56.27-3.17.2-4.53ZM28.56,30s4.09-6.47,10.18-2.06c5.32,3.85.91,11.02.91,11.02,0,0,3.39-6.75-2.26-9.91-4.2-2.35-8.83.95-8.83.95ZM27.25,82.48c-1.86.21-3.76-3.97-4.29-7.68-.53-3.7.96-8.27,2.45-8.45,1.49-.18,3.47,3.28,4.29,7.68.82,4.4-.59,8.23-2.45,8.45Z"/>
      </g>
    </g>
  </g>
</svg>