<?xml version="1.0" encoding="UTF-8"?>
<svg id="Layer_2" data-name="Layer 2" xmlns="http://www.w3.org/2000/svg" viewBox="0 0 107.61 107.61">
  <defs>
    <style>
      .cls-1 {
        fill: #fff;
      }

      .cls-2 {
        fill: #028944;
      }
    </style>
  </defs>
  <g id="Layer_1-2" data-name="Layer 1">
    <g>
      <rect class="cls-1" width="107.61" height="107.61"/>
      <path class="cls-2" d="M69.65,75.82c3.3-2.17,6.13-4.43,8.36-6.62,4.33-4.24,6.36-8.17,4.97-10.42-1.18-1.92-4.43-3.17-9-3.51-.34-.03-.57-.36-.46-.68,1.51-4.62,2.34-9.21,2.78-13.19.45-4.09.5-7.53.46-9.69-.03-1.41-1.16-2.54-2.56-2.56-1.09-.02-2.49-.09-4.12-.14,0-.03-.01-.06-.02-.09-1.62-5.3-6.53-8.5-10.96-7.14-2.25.69-3.94,2.42-4.85,4.65-.55,1.36-2.07,2.08-3.41,1.48-1.51-.67-3.19-.69-4.59.12-1.82,1.05-2.67,3.2-2.38,5.42-2.94,1.46-6.64,4.73-8.29,5.91-1.65,1.18-5.13,6.59-7.25,10.2-2.12,3.61-3.92,12.34-4.09,17.11-.19,5.23.55,8.78.55,8.78,0,0-.34,2.52.73,2.84.32.09,4.13,2.85,11.63,3.92,3.01.43,6.62.59,10.85.2,3.89,1.15,7.29,1.99,10.26,2.58,12.57,2.49,17.26.5,17.26-.87s-2.18-3.77-5.82-6.04c-.82-.51-.84-1.71-.02-2.24ZM59.81,23.13c2.38-.99,5.33.67,6.58,3.7,1.25,3.03.34,6.28-2.04,7.27-2.38.99-5.33-.67-6.58-3.7-1.25-3.03-.34-6.28,2.04-7.27ZM66.93,55.41c-2.64.26-5.5.74-8.5,1.47-3.4.83-6.97,1.98-10.62,3.49-1.59.66-3.11,1.4-4.56,2.21-.55.31-1.1-.39-.67-.85,3.27-3.48,8.55-7.7,10.32-10.62s7.97-7.2,9.99-9.23,9.36-7.59,10.49-6.69c.56.44-.24,5.5-1.01,9.25-.58,2.81-1.71,6.11-3.14,9.3-.42.93-1.29,1.56-2.3,1.66ZM64.22,28.04c.21,1.15.65,1.33.69,2.78,0,1.05-.37,1.88-1,1.85-.53-.03-.86-.78-.92-1.77-.08-1.12.25-1.56.06-2.57-.18-.88-.73-1.61-1.03-2.22-.46-.96-.66-1.85-.12-2.14.59-.32,1.42.06,1.94,1.49.39,1.15.16,1.66.36,2.57Z"/>
    </g>
  </g>
</svg>