<?xml version="1.0" encoding="UTF-8"?>
<svg id="Layer_2" data-name="Layer 2" xmlns="http://www.w3.org/2000/svg" viewBox="0 0 107.61 107.61">
  <defs>
    <style>
      .cls-1 {
        fill: #fff;
      }

      .cls-2 {
        fill: #63cfff;
      }
    </style>
  </defs>
  <g id="Layer_1-2" data-name="Layer 1">
    <g>
      <rect class="cls-1" width="107.61" height="107.61"/>
      <path class="cls-2" d="M83.46,26.66c1.02-.3,2.66-.01,3.35-.8-1.06-1.29-4.4-.31-4.79-2.5,2.6-1.72.31-9.58-2.47-3.88-.98,1.19-.38-3.76-1.03-4.05-1.99-.89-2.59,2.08-2.63,4.08-2.74-5.2-7.27.84-3,3.75-1.48,1.75-3.3,6.99-8.38,11.19-1.28,1.06-2.48,1.99-3.73,2.85-2.38,1.65-4.9,3.04-8.39,4.5-2.22.87-8.42,3.06-9.74.06-.61-4.8-5.76-13.27-11.14-10.93-.91,2.13,2.15,4.2,2.47,6.43.76,2.62-2.49-.38-3-1.23-1.37-2.11-8.26-5.09-8.15-1.07.68,3.77,5.94,4.33,6.67,7.69-1.87-1.62-3.87-2.8-6.38-2.6-3.59.3-2.62,4.92.28,5.54,3.46,1.4,8.2,2.18,10.85,4.5,5.31,24.54,14.01,14.53,15.17,24.36-.23,1.08.33,1.84,1.12,2.52l.56.38c-.05,1.38,0,2.76,0,4.14.17,1.96-2.02,0-2.4,1.26-.11.61.5,1.02,1,1.09,2.93.56,2.73,3.94,4.3,5.9.55,1.59,2.53.91,1.27-.58-1.07-3.08,4.09,2.38,5.1.73-.12-1.75-3.25-2.32-4.74-3.63,1.5.35,10.71,1.79,5.82-.62-6.51-.29-9.3-1.86-8.98-7.76.87-.39,2.01-1.71,1.98-2.05.59-4.07,5.45-2.37,8.47-3.29,3.34-.86,1.47,3.37,3.91,4.21.13.06,1.02.1,1.82.13.04,3.88.13,4.9-.55,5-.68.11-.93-.32-4-.02-.39.04-.67.02-.74.24-.03.15.23.2.58.3,3.21.9,4.99.13,6.35,8.69,3.67,4.87-1.24-7.43,1.93-3.81.82,1.08,6.23,4.68,4.67,1.38-1.52-1.34-3.18-1.96-4.42-3.87,2.42-.12,4.52,3.18,6.31,1.71.49-1-.72-1.12-1.29-1.45-4.2-1.29-6.04-2.17-6.84-3.6-.6-1.07-.63-2.46-.65-4.54,6.58-4.5,13.57-12.55,12.23-24.16-.67-5.22-2.62-5.7-4.29-10.16-.11-.31-.19-.63-.26-.97-.05-.52-.11-.94-.15-1.17,0-.07-.02-.14-.02-.21-.15-2.93.89-6.68,2.53-10.94.8-2.07.68,1.39,1.96,1.09,2.53-.13-.12-3.52,1.46-3.84ZM76.84,25.28c-.63-.09-1.09-.5-1.03-.93.06-.42.62-.7,1.25-.61.63.09,1.09.5,1.03.93-.06.42-.62.7-1.25.61Z"/>
    </g>
  </g>
</svg>