<?xml version="1.0" encoding="UTF-8"?>
<svg id="Layer_2" data-name="Layer 2" xmlns="http://www.w3.org/2000/svg" viewBox="0 0 107.61 107.61">
  <defs>
    <style>
      .cls-1 {
        fill: #fff;
      }

      .cls-2 {
        fill: #63cfff;
      }
    </style>
  </defs>
  <g id="Layer_1-2" data-name="Layer 1">
    <g>
      <rect class="cls-1" width="107.61" height="107.61"/>
      <g>
        <path class="cls-2" d="M42.36,87.34c-1.39-.18-2.66-.62-4.04-.89-1.19-.24-2.39-.34-3.58-.65.05.56.12,1.07.21,1.59,1.85,1.05,4.22,1.74,6.78,2.6.33.11.68.23,1.02.34-.16-.97-.32-1.95-.38-2.99Z"/>
        <path class="cls-2" d="M36.11,76.61c-.92,2.02-1.42,4.4-1.53,6.77,2.56.68,5.2,1.31,7.77,1.67,0-.23-.12-.63-.12-.86,0-2.37.23-4.68.56-6.84.37-2.45,1.04-4.68,1.8-6.6.46-1.17.96-2.23,1.53-3.08-2.18.71-4.27,1.83-5.96,3.38-1.66,1.53-3.08,3.44-4.04,5.56Z"/>
        <path class="cls-2" d="M58.72,77.35c.33,2.15.45,4.44.45,6.81,0,.23.17.34.16.57,2.57-.36,5.09-.81,7.64-1.5-.12-2.36-.61-4.58-1.54-6.6-.97-2.11-2.35-4-4.01-5.52-1.69-1.55-3.71-2.85-5.9-3.56.57.85.95,2.06,1.42,3.23.77,1.92,1.39,4.12,1.77,6.57Z"/>
        <path class="cls-2" d="M51.18,66.96c-.12-.02-.24-.15-.36-.15-1.4,0-3.08,1.82-4.24,4.73-.71,1.78-1.21,3.93-1.55,6.23-.3,2.01-.52,4.18-.52,6.41,0,.32.21.53.22.85,2.05.21,4.06.41,6.11.41,2.05,0,4.06-.22,6.11-.43,0-.32.16-.52.16-.85,0-2.22-.34-4.37-.65-6.38-.35-2.3-.81-4.42-1.52-6.2-1.07-2.67-2.47-4.36-3.77-4.62Z"/>
        <path class="cls-2" d="M66.99,85.69c-2.57.67-5.26,1.09-7.84,1.44-.14,2.24-.31,4.51-.76,6.47,1.82.04,3.52-.02,5-.22.53-.07,1.01-.17,1.47-.29,1.27-2.23,1.91-4.77,2.12-7.41Z"/>
        <path class="cls-2" d="M74.38,45.68c-.75-2.52-1.77-5.09-3.09-7.97-1.07-2.32-.09-5.71.24-8.06.12-.96-.61-2.38-1.81-2.7-1.27-.33-1.93-.28-1.83-1.81.17-2.61.59-5.04.8-7.63.32-2.43-2.81-2.88-4.46-3.21,0,0-.02.11-.02.11h0c-1.64-.31-4.59-1.18-5.23,1.18-.8,2.48-1.67,4.77-2.52,7.25-.49,1.45-.92,1.75-2.22,1.57-1.23-.17-2.1.42-2.35,1.35-.59,2.3-1.16,5.84-3.04,7.57-2.33,2.15-4.34,4.04-6,6.07-1.7,2.09-2.84,4.49-3.48,7.7-.61,3.09-.16,5.43.48,7.57.75,2.55,1.34,4.71.84,7.44-.42,2.32-1.83,4.18-3.62,5.9-1.91,1.84-4.03,3.51-4.87,5.33-1.63,3.53-2.49,5.88-2.65,8.93.26,1.12,1.32,2.3,2.85,3.45-.01-.51.03-1.02.03-1.54,0-2.59.49-5,1.35-7.26.91-2.38,2.18-4.5,3.84-6.31,1.7-1.85,3.73-3.26,6-4.29,2.23-1.01,4.61-1.85,7.19-1.85,2.58,0,5.08.56,7.32,1.56,2.28,1.02,4.35,2.55,6.06,4.39,1.67,1.8,2.9,4.04,3.81,6.41.87,2.26,1.25,4.72,1.25,7.31,0,2.7-.47,5.27-1.44,7.68.8-.53,1.42-1.13,1.84-1.71.95-2.68,1.88-5.39,1.53-8.97-.33-3.13-1.21-6.18-2.76-8.71-.89-1.59-1.97-2.63-1.36-5.08.67-2.68,2.61-4.33,4.26-6.4,1.38-1.74,2.72-3.72,3.34-6.82.64-3.22.48-5.88-.29-8.46ZM58.98,57.94c-1.62,1.68-2.18,1.56-5.08-.62-1.89-1.43-3.74-2.98-5.05-4.99-2.34-4.09,3.84-8.03,6.68-2.86.09.16.36.03.36-.15.05-2.33,4.79-5.14,7.28-2.94,4.21,3.7-1.34,8.61-4.19,11.56Z"/>
        <path class="cls-2" d="M56.8,87.59c-2.01.19-3.94.31-5.95.31-2.01,0-3.96-.1-5.97-.29.09,1.24.26,2.41.46,3.55,1.1.32,2.23.62,3.42.86,2.53.5,4.93,1.34,7.22,1.49.03,0,.07,0,.1,0,.45-1.84.56-3.78.71-5.92Z"/>
      </g>
    </g>
  </g>
</svg>