<svg preserveAspectRatio="none" width="100%" height="100%" overflow="visible" style="display: block;" viewBox="0 0 689 1080" fill="none" xmlns="http://www.w3.org/2000/svg">
<g id="BIG letter" clip-path="url(#clip0_0_4)">
<path id="Vector" d="M-1.99902 0H349.751C546.301 0 655.345 103.017 655.345 270.975C655.345 401.244 593.419 517.79 436.487 545.042V548.134C583.418 560.311 638.806 637.429 643.806 804.034L647.076 922.126C648.806 981.076 659.576 1029.59 689.001 1081H572.841C548.032 1043.12 543.031 987.067 541.493 929.664L538.223 838.824C531.685 648.059 493.605 574.807 303.787 574.807H103.776V1081H-1.99902V0ZM103.776 519.916H285.517C452.257 519.916 549.762 436.034 549.762 293.588C549.762 161.966 488.605 60.6891 297.056 60.6891H103.776V519.723V519.916Z" fill="var(--fill-0, #63CFFF)"/>
<path id="Vector_2" d="M798.001 1H901.001V1080H798.001V1Z" fill="var(--fill-0, #63CFFF)"/>
<path id="Vector_3" d="M1401.58 -18C1642.9 -18 1783 157.509 1783 544.634C1783 931.758 1642.71 1098 1401.58 1098C1160.44 1098 1024 927.125 1024 540C1024 152.875 1160.25 -18 1401.58 -18ZM1401 1032.93C1569.58 1032.93 1667.53 890.439 1667.53 540.965C1667.53 191.491 1571.89 48.6125 1403.5 48.6125C1235.11 48.6125 1134.46 191.491 1134.46 540.965C1134.46 890.439 1232.42 1032.93 1401 1032.93Z" fill="var(--fill-0, #63CFFF)"/>
</g>
<defs>
<clipPath id="clip0_0_4">
<rect width="689" height="1080" fill="white"/>
</clipPath>
</defs>
</svg>
