<svg preserveAspectRatio="none" width="100%" height="100%" overflow="visible" style="display: block;" viewBox="0 0 103 1080" fill="none" xmlns="http://www.w3.org/2000/svg">
<g id="BIG letter" clip-path="url(#clip0_0_4)">
<path id="Vector" d="M-799.999 0H-448.249C-251.699 0 -142.655 103.017 -142.655 270.975C-142.655 401.244 -204.581 517.79 -361.513 545.042V548.134C-214.582 560.311 -159.194 637.429 -154.194 804.034L-150.924 922.126C-149.194 981.076 -138.424 1029.59 -108.999 1081H-225.159C-249.968 1043.12 -254.969 987.067 -256.507 929.664L-259.777 838.824C-266.315 648.059 -304.395 574.807 -494.213 574.807H-694.224V1081H-799.999V0ZM-694.224 519.916H-512.483C-345.743 519.916 -248.238 436.034 -248.238 293.588C-248.238 161.966 -309.395 60.6891 -500.944 60.6891H-694.224V519.723V519.916Z" fill="var(--fill-0, #FF8831)"/>
<path id="Vector_2" d="M0.000976562 1H103.001V1080H0.000976562V1Z" fill="var(--fill-0, #FF8831)"/>
<path id="Vector_3" d="M603.577 -18C844.902 -18 985.001 157.509 985.001 544.634C985.001 931.758 844.709 1098 603.577 1098C362.444 1098 226.001 927.125 226.001 540C226.001 152.875 362.252 -18 603.577 -18ZM602.999 1032.93C771.58 1032.93 869.534 890.439 869.534 540.965C869.534 191.491 773.89 48.6125 605.501 48.6125C437.112 48.6125 336.464 191.491 336.464 540.965C336.464 890.439 434.418 1032.93 602.999 1032.93Z" fill="var(--fill-0, #FF8831)"/>
</g>
<defs>
<clipPath id="clip0_0_4">
<rect width="103" height="1080" fill="white"/>
</clipPath>
</defs>
</svg>
