<svg preserveAspectRatio="none" width="100%" height="100%" overflow="visible" style="display: block;" viewBox="0 0 759 1080" fill="none" xmlns="http://www.w3.org/2000/svg">
<g id="BIG letter" clip-path="url(#clip0_0_4)">
<path id="Vector" d="M-1026 0H-674.249C-477.699 0 -368.655 103.017 -368.655 270.975C-368.655 401.244 -430.581 517.79 -587.513 545.042V548.134C-440.582 560.311 -385.194 637.429 -380.194 804.034L-376.924 922.126C-375.194 981.076 -364.424 1029.59 -334.999 1081H-451.159C-475.968 1043.12 -480.969 987.067 -482.507 929.664L-485.777 838.824C-492.315 648.059 -530.395 574.807 -720.213 574.807H-920.224V1081H-1026V0ZM-920.224 519.916H-738.483C-571.743 519.916 -474.238 436.034 -474.238 293.588C-474.238 161.966 -535.395 60.6891 -726.944 60.6891H-920.224V519.723V519.916Z" fill="var(--fill-0, #FFABAC)"/>
<path id="Vector_2" d="M-225.999 1H-122.999V1080H-225.999V1Z" fill="var(--fill-0, #FF8831)"/>
<path id="Vector_3" d="M377.577 -18C618.902 -18 759.001 157.509 759.001 544.634C759.001 931.758 618.709 1098 377.577 1098C136.444 1098 0.000976562 927.125 0.000976562 540C0.000976562 152.875 136.252 -18 377.577 -18ZM376.999 1032.93C545.58 1032.93 643.534 890.439 643.534 540.965C643.534 191.491 547.89 48.6125 379.501 48.6125C211.112 48.6125 110.464 191.491 110.464 540.965C110.464 890.439 208.418 1032.93 376.999 1032.93Z" fill="var(--fill-0, #FFABAC)"/>
</g>
<defs>
<clipPath id="clip0_0_4">
<rect width="759" height="1080" fill="white"/>
</clipPath>
</defs>
</svg>
