<svg preserveAspectRatio="none" width="100%" height="100%" overflow="visible" style="display: block;" viewBox="0 0 149 99" fill="none" xmlns="http://www.w3.org/2000/svg">
<g id="Layer_1" clip-path="url(#clip0_0_24)">
<path id="Vector" d="M82.2434 4.16412C81.7544 8.0833 83.4049 10.9614 83.2623 14.5948C71.2396 8.87938 59.706 23.9029 65.6766 34.7419C69.5483 44.6827 86.1151 45.6216 84.4034 57.9303C84.8517 65.2788 85.0963 71.7699 85.8095 79.0775C81.734 96.7955 98.8511 99.7144 112.422 98.4489C139.198 100.123 140.115 92.3456 142.214 68.1977C142.479 54.6847 145.638 41.8045 146.636 28.3324C146.697 21.8616 148.776 16.6973 148.307 10.2062C149.774 1.79629 149.652 -0.0816495 140.462 1.06144C135.979 0.653196 132.922 0.265361 128.398 0.183711C118.23 1.98 108.347 -1.10227 98.036 0.591959C93.4103 0.877732 83.3642 -1.8167 82.2638 4.22536L82.2434 4.16412ZM79.0034 36.334C67.0215 32.1699 72.9106 16.3503 83.2623 24.9031C83.2623 30.3736 84.1793 34.3744 84.1182 39.6817C82.4472 38.4365 80.5317 37.2526 79.0034 36.334Z" fill="var(--fill-0, #FF8831)"/>
<path id="Vector_2" d="M68.5702 48.908C60.195 50.888 67.9588 44.8256 62.0086 43.7437C52.1052 44.0091 42.7723 43.0497 32.8688 43.1926C24.7382 42.4986 17.3208 43.4171 9.19024 43.1109C-0.0407553 41.5188 -0.692834 43.9274 0.387172 52.6231C1.97661 58.4406 2.03775 63.6049 4.05511 69.2592C5.7872 76.8322 5.46116 85.2625 11.3299 91.2229C16.9744 97.3262 25.7979 99.5103 33.8062 98.2856C47.8259 101.429 66.8381 94.2235 63.9649 77.1588C84.3219 80.241 90.4555 49.5408 68.5498 48.8876L68.5702 48.908ZM72.829 67.2588C70.8728 69.4429 67.0622 69.3408 64.6577 69.2592C64.0464 64.993 62.6811 56.9709 68.7332 56.2361C74.2351 56.4606 77.1287 62.4006 72.829 67.2588Z" fill="var(--fill-0, #FF8831)"/>
</g>
<defs>
<clipPath id="clip0_0_24">
<rect width="149" height="99" fill="white"/>
</clipPath>
</defs>
</svg>
