<svg width="1848" height="214" viewBox="0 0 1848 214" fill="none" xmlns="http://www.w3.org/2000/svg">
<path d="M45.2419 89.0442C70.5362 90.6894 77.9394 96.0362 77.9394 128.528C77.9394 160.814 66.012 167.806 44.6249 167.806H-1.70659e-06V23.8548H33.9314C45.6532 23.8548 49.5604 27.5564 50.5886 42.3629H25.9112V149.504C52.0281 149.504 52.0281 146.625 52.0281 123.798C52.0281 102.617 49.3548 97.887 31.6693 97.887V80.2015C47.2983 80.2015 50.7943 75.266 50.7943 52.0282C50.7943 48.3266 50.7943 45.2419 50.5886 42.3629H52.2338C70.3305 42.3629 76.9112 49.5604 76.9112 65.8064C76.9112 82.0523 70.7418 87.8104 45.2419 89.0442ZM117.081 39.4838V53.879C118.521 53.0564 120.371 52.8507 122.428 52.6451C118.726 61.8991 117.081 77.1168 117.081 101.383V167.395H91.1697V39.4838H117.081ZM140.73 39.2782C160.678 39.2782 165.408 54.0846 165.408 101.383H139.702C139.702 56.5524 137.851 52.4395 124.279 52.4395C123.456 52.4395 123.045 52.6451 122.428 52.6451C126.335 42.3629 132.299 39.2782 140.73 39.2782ZM212.322 38.8669C241.318 38.8669 251.394 50.7943 251.394 85.9596V167.395H225.277L225.483 151.972C223.838 153.617 221.987 154.439 219.314 154.645C223.015 149.093 225.483 141.895 225.483 132.847C225.483 110.02 224.249 107.141 212.939 107.141C203.273 107.141 199.572 109.197 199.572 128.734C199.572 146.214 200.806 151.56 210.06 153.617C213.761 154.645 216.846 154.851 219.314 154.645C213.144 163.899 203.479 168.218 195.048 168.218C178.596 168.218 173.249 160.197 173.249 129.968C173.249 99.3265 181.475 91.9233 204.919 91.9233C215.407 91.9233 221.782 95.6249 225.483 101.589V85.5483C225.483 63.3386 221.165 57.3749 212.939 57.3749C203.479 57.3749 200.394 68.0685 199.778 84.7257L173.661 81.641C174.895 50.5886 189.084 38.8669 212.322 38.8669ZM292.803 40.1008V50.383C295.271 49.3548 298.15 49.3548 301.234 50.5886C296.299 59.0201 292.803 72.7983 292.803 95.0079V167.395H266.892V40.1008H292.803ZM319.125 38.8669C336.605 38.8669 338.662 50.383 338.662 103.439V167.395H312.75V103.439C312.75 65.6007 310.488 54.7016 301.234 50.5886C306.375 41.7459 312.956 38.8669 319.125 38.8669ZM404.017 5.14115H429.928V167.395H404.017V149.709C402.371 151.149 400.315 151.766 397.642 151.766C401.343 143.334 404.017 130.996 404.017 112.693C404.017 67.0402 399.904 57.1693 391.061 57.1693C382.218 57.1693 378.105 65.3951 378.105 103.439C378.105 141.278 379.545 148.887 389.416 150.943C392.706 151.56 395.379 151.766 397.642 151.766C392.089 164.31 384.275 168.218 378.928 168.218C358.569 168.218 352.4 156.701 352.4 103.439C352.4 50.1774 357.952 38.8669 380.779 38.8669C392.295 38.8669 399.492 43.8024 404.017 55.3185V5.14115ZM445.611 66.629C445.611 51.6169 451.986 44.008 458.567 36.6048C465.148 44.008 471.728 51.6169 471.728 66.629V167.395H445.611V66.629ZM444.583 5.14115H472.757C472.757 21.1814 465.559 28.7903 458.567 36.6048C451.575 28.7903 444.583 21.1814 444.583 5.14115ZM513.309 40.1008V50.383C515.777 49.3548 518.656 49.3548 521.74 50.5886C516.805 59.0201 513.309 72.7983 513.309 95.0079V167.395H487.398V40.1008H513.309ZM539.631 38.8669C557.111 38.8669 559.168 50.383 559.168 103.439V167.395H533.256V103.439C533.256 65.6007 530.994 54.7016 521.74 50.5886C526.881 41.7459 533.462 38.8669 539.631 38.8669ZM624.317 40.1008H650.228V167.395C650.228 198.447 637.889 213.254 612.184 213.254C590.591 213.254 573.934 206.056 573.934 175.415H599.023C599.023 192.484 603.341 195.568 612.184 195.568C620.821 195.568 624.317 191.661 624.317 167.395V151.355C622.466 152.794 620.204 153.411 617.119 153.205C621.232 144.774 624.317 132.024 624.317 112.693C624.317 67.0402 620.204 57.1693 611.361 57.1693C602.519 57.1693 598.406 65.6007 598.406 103.439C598.406 141.278 600.051 150.121 609.716 152.177C612.595 152.794 615.063 153 617.119 153.205C611.773 164.516 604.164 168.218 599.228 168.218C580.515 168.218 572.7 156.701 572.7 103.439C572.7 50.1774 578.252 38.8669 601.079 38.8669C612.595 38.8669 619.793 43.8024 624.317 55.3185V40.1008ZM753.345 38.8669C782.34 38.8669 792.417 50.7943 792.417 85.9596V167.395H766.3L766.506 151.972C764.861 153.617 763.01 154.439 760.336 154.645C764.038 149.093 766.506 141.895 766.506 132.847C766.506 110.02 765.272 107.141 753.961 107.141C744.296 107.141 740.595 109.197 740.595 128.734C740.595 146.214 741.828 151.56 751.082 153.617C754.784 154.645 757.869 154.851 760.336 154.645C754.167 163.899 744.502 168.218 736.07 168.218C719.619 168.218 714.272 160.197 714.272 129.968C714.272 99.3265 722.498 91.9233 745.941 91.9233C756.429 91.9233 762.804 95.6249 766.506 101.589V85.5483C766.506 63.3386 762.187 57.3749 753.961 57.3749C744.502 57.3749 741.417 68.0685 740.8 84.7257L714.683 81.641C715.917 50.5886 730.107 38.8669 753.345 38.8669ZM907.27 38.8669V38.6613C930.096 38.6613 935.649 50.1774 935.649 103.439C935.649 156.496 930.096 168.218 909.532 168.218C904.391 168.218 896.782 164.516 891.229 152.794C893.286 152.794 895.548 152.383 898.427 151.355C908.092 148.27 909.943 141.278 909.943 103.439C909.943 65.3951 905.83 57.1693 896.987 57.1693C888.145 57.1693 884.032 67.0402 884.032 112.693C884.032 131.818 887.116 144.363 891.229 152.794C888.145 153 885.883 152.177 884.032 150.121V167.395H858.121V5.14115H884.032V55.3185C888.35 43.8024 895.754 38.8669 907.27 38.8669ZM1027.01 111.871H973.748C974.159 144.568 978.477 149.709 987.32 149.709C995.135 149.709 999.248 145.391 1000.89 121.947L1026.39 124.826C1024.95 156.29 1010.35 168.218 987.32 168.218C955.445 168.218 947.836 156.701 947.836 103.439C947.836 54.7016 954.417 38.8669 978.272 38.8669C987.731 38.8669 994.312 41.7459 998.425 51.2056C979.711 51.4112 974.365 62.1048 973.748 95.4192H1003.15C1003.77 73.8265 1002.33 59.8427 998.425 51.2056C998.631 51.2056 998.836 51.2056 998.836 51.2056C1022.28 51.2056 1027.01 68.0685 1027.01 111.871ZM1064.13 111.871H1063.93C1063.93 134.903 1065.16 148.681 1067.83 156.907C1067.01 157.113 1066.19 157.113 1064.96 157.113C1051.18 157.113 1038.43 154.234 1038.43 111.871V9.0484H1064.13V40.1008H1105.26V58.8144H1064.13V111.871ZM1083.88 121.947L1109.38 124.826C1106.7 157.318 1094.98 168.218 1081.61 168.218C1075.24 168.218 1070.71 165.544 1067.83 156.907C1078.32 156.084 1082.23 148.887 1083.88 121.947ZM1143.86 111.871H1143.66C1143.66 134.903 1144.89 148.681 1147.56 156.907C1146.74 157.113 1145.92 157.113 1144.68 157.113C1130.91 157.113 1118.16 154.234 1118.16 111.871V9.0484H1143.86V40.1008H1184.99V58.8144H1143.86V111.871ZM1163.6 121.947L1189.1 124.826C1186.43 157.318 1174.71 168.218 1161.34 168.218C1154.97 168.218 1150.44 165.544 1147.56 156.907C1158.05 156.084 1161.96 148.887 1163.6 121.947ZM1276.23 111.871H1222.97C1223.38 144.568 1227.7 149.709 1236.54 149.709C1244.36 149.709 1248.47 145.391 1250.12 121.947L1275.62 124.826C1274.18 156.29 1259.58 168.218 1236.54 168.218C1204.67 168.218 1197.06 156.701 1197.06 103.439C1197.06 54.7016 1203.64 38.8669 1227.5 38.8669C1236.96 38.8669 1243.54 41.7459 1247.65 51.2056C1228.94 51.4112 1223.59 62.1048 1222.97 95.4192H1252.38C1253 73.8265 1251.56 59.8427 1247.65 51.2056C1247.85 51.2056 1248.06 51.2056 1248.06 51.2056C1271.5 51.2056 1276.23 68.0685 1276.23 111.871ZM1315 39.4838V53.879C1316.44 53.0564 1318.29 52.8507 1320.35 52.6451C1316.65 61.8991 1315 77.1168 1315 101.383V167.395H1289.09V39.4838H1315ZM1338.65 39.2782C1358.6 39.2782 1363.33 54.0846 1363.33 101.383H1337.62C1337.62 56.5524 1335.77 52.4395 1322.2 52.4395C1321.38 52.4395 1320.97 52.6451 1320.35 52.6451C1324.26 42.3629 1330.22 39.2782 1338.65 39.2782ZM1481.01 67.0402C1477.72 96.2418 1475.26 117.012 1472.79 131.818C1466.41 167.806 1459.22 167.806 1434.74 167.806L1418.5 40.7177H1445.03L1452.84 149.504L1467.24 40.7177H1495L1508.98 149.504L1516.38 40.7177H1543.94L1527.49 167.806C1502.81 167.806 1495.61 167.806 1489.45 131.407C1486.77 116.806 1484.51 96.0362 1481.01 67.0402ZM1603.52 51.4112C1626.55 51.4112 1631.69 67.4515 1631.69 103.645C1631.69 156.907 1623.88 168.423 1592 168.423C1560.13 168.423 1552.52 156.907 1552.52 103.645C1552.52 54.9072 1559.1 38.8669 1582.96 38.8669C1592.83 38.8669 1598.79 41.9516 1602.29 51.4112C1582.75 52.0282 1578.23 64.1612 1578.23 103.645C1578.23 141.689 1582.54 149.915 1592 149.915C1601.46 149.915 1606.81 135.726 1606.81 97.887C1606.81 74.6491 1605.58 60.254 1602.29 51.4112C1602.7 51.4112 1603.11 51.4112 1603.52 51.4112ZM1671.07 39.4838V53.879C1672.5 53.0564 1674.36 52.8507 1676.41 52.6451C1672.71 61.8991 1671.07 77.1168 1671.07 101.383V167.395H1645.15V39.4838H1671.07ZM1694.71 39.2782C1714.66 39.2782 1719.39 54.0846 1719.39 101.383H1693.69C1693.69 56.5524 1691.84 52.4395 1678.26 52.4395C1677.44 52.4395 1677.03 52.6451 1676.41 52.6451C1680.32 42.3629 1686.28 39.2782 1694.71 39.2782ZM1755.41 167.395H1729.7V1.7736e-05H1755.41V167.395ZM1821.44 5.14115H1847.35V167.395H1821.44V149.709C1819.79 151.149 1817.74 151.766 1815.06 151.766C1818.77 143.334 1821.44 130.996 1821.44 112.693C1821.44 67.0402 1817.33 57.1693 1808.48 57.1693C1799.64 57.1693 1795.53 65.3951 1795.53 103.439C1795.53 141.278 1796.97 148.887 1806.84 150.943C1810.13 151.56 1812.8 151.766 1815.06 151.766C1809.51 164.31 1801.7 168.218 1796.35 168.218C1775.99 168.218 1769.82 156.701 1769.82 103.439C1769.82 50.1774 1775.38 38.8669 1798.2 38.8669C1809.72 38.8669 1816.92 43.8024 1821.44 55.3185V5.14115Z" fill="black"/>
</svg>
