<svg width="1863" height="605" viewBox="0 0 1863 605" fill="none" xmlns="http://www.w3.org/2000/svg">
<path d="M220.374 68.211C220.374 186.56 220.374 242.528 203.467 269.346C220.374 298.496 220.374 356.796 220.374 476.311H145.167V293.249C135.256 293.832 123.596 293.832 110.187 293.832C96.778 293.832 85.118 293.249 74.624 293.249V475.728H-1.50874e-06C-1.50874e-06 356.796 -1.50874e-06 298.496 16.324 269.346C-1.50874e-06 242.528 -1.50874e-06 186.56 -1.50874e-06 68.211L74.624 67.628V241.945C85.118 240.779 96.778 240.779 110.187 240.779C123.596 240.779 135.256 240.779 145.167 241.945V67.628L220.374 68.211ZM263.033 188.892C263.033 146.333 281.106 124.762 299.762 103.774C318.418 124.762 337.074 146.333 337.074 188.892V474.562H263.033V188.892ZM260.118 14.575H339.989C339.989 60.049 319.584 81.62 299.762 103.774C279.94 81.62 260.118 60.049 260.118 14.575ZM521.999 113.685H595.457V474.562C595.457 562.595 560.477 604.571 487.602 604.571C426.387 604.571 379.164 584.166 379.164 497.299H450.29C450.29 545.688 462.533 554.433 487.602 554.433C512.088 554.433 521.999 543.356 521.999 474.562V429.088C516.752 433.169 510.339 434.918 501.594 434.335C513.254 410.432 521.999 374.286 521.999 319.484C521.999 190.058 510.339 162.074 485.27 162.074C460.201 162.074 448.541 185.977 448.541 293.249C448.541 400.521 453.205 425.59 480.606 431.42C488.768 433.169 495.764 433.752 501.594 434.335C486.436 466.4 464.865 476.894 450.873 476.894C397.82 476.894 375.666 444.246 375.666 293.249C375.666 142.252 391.407 110.187 456.12 110.187C488.768 110.187 509.173 124.179 521.999 156.827V113.685ZM806.089 110.187C855.644 110.187 861.474 142.835 861.474 293.249V474.562H788.599V293.249C788.599 185.977 782.186 155.078 755.951 143.418C753.036 142.252 750.121 142.252 747.206 141.669C765.862 117.766 789.182 110.187 806.089 110.187ZM715.141 14.575V159.159C723.303 144.584 734.38 138.754 747.206 141.669C729.133 164.989 715.141 203.467 715.141 267.597V474.562H641.683V14.575H715.141ZM978.729 474.562H905.854V1.49012e-06H978.729V474.562ZM1023.1 188.892C1023.1 146.333 1041.17 124.762 1059.83 103.774C1078.48 124.762 1097.14 146.333 1097.14 188.892V474.562H1023.1V188.892ZM1020.18 14.575H1100.05C1100.05 60.049 1079.65 81.62 1059.83 103.774C1040 81.62 1020.18 60.049 1020.18 14.575ZM1282.06 113.685H1355.52V474.562C1355.52 562.595 1320.54 604.571 1247.67 604.571C1186.45 604.571 1139.23 584.166 1139.23 497.299H1210.35C1210.35 545.688 1222.6 554.433 1247.67 554.433C1272.15 554.433 1282.06 543.356 1282.06 474.562V429.088C1276.82 433.169 1270.4 434.918 1261.66 434.335C1273.32 410.432 1282.06 374.286 1282.06 319.484C1282.06 190.058 1270.4 162.074 1245.33 162.074C1220.26 162.074 1208.6 185.977 1208.6 293.249C1208.6 400.521 1213.27 425.59 1240.67 431.42C1248.83 433.169 1255.83 433.752 1261.66 434.335C1246.5 466.4 1224.93 476.894 1210.94 476.894C1157.88 476.894 1135.73 444.246 1135.73 293.249C1135.73 142.252 1151.47 110.187 1216.18 110.187C1248.83 110.187 1269.24 124.179 1282.06 156.827V113.685ZM1566.15 110.187C1615.71 110.187 1621.54 142.835 1621.54 293.249V474.562H1548.66V293.249C1548.66 185.977 1542.25 155.078 1516.01 143.418C1513.1 142.252 1510.18 142.252 1507.27 141.669C1525.93 117.766 1549.25 110.187 1566.15 110.187ZM1475.2 14.575V159.159C1483.37 144.584 1494.44 138.754 1507.27 141.669C1489.2 164.989 1475.2 203.467 1475.2 267.597V474.562H1401.75V14.575H1475.2ZM1734.71 317.152H1734.13C1734.13 382.448 1737.63 421.509 1745.21 444.829C1742.87 445.412 1740.54 445.412 1737.04 445.412C1697.98 445.412 1661.84 437.25 1661.84 317.152V25.652H1734.71V113.685H1851.31V166.738H1734.71V317.152ZM1790.68 345.719L1862.97 353.881C1855.39 445.995 1822.16 476.894 1784.27 476.894C1766.19 476.894 1753.37 469.315 1745.21 444.829C1774.94 442.497 1786.02 422.092 1790.68 345.719Z" fill="#EFEFEF"/>
</svg>
