<svg width="1862" height="450" viewBox="0 0 1862 450" fill="none" xmlns="http://www.w3.org/2000/svg">
<path d="M4.09782e-08 64.2329H69.174V399.123H153.171V447.984C79.605 447.984 41.175 447.984 21.411 405.711C4.09782e-08 359.595 4.09782e-08 263.52 4.09782e-08 64.2329ZM375.906 298.656H233.715C234.813 385.947 246.342 399.672 269.949 399.672C290.811 399.672 301.791 388.143 306.183 325.557L374.259 333.243C370.416 417.24 331.437 449.082 269.949 449.082C184.854 449.082 164.541 418.338 164.541 276.147C164.541 146.034 182.109 103.761 245.793 103.761C271.047 103.761 288.615 111.447 299.595 136.701C249.636 137.25 235.362 165.798 233.715 254.736H312.222C313.869 197.091 310.026 159.759 299.595 136.701C300.144 136.701 300.693 136.701 300.693 136.701C363.279 136.701 375.906 181.719 375.906 298.656ZM475.014 298.656H474.465C474.465 360.144 477.759 396.927 484.896 418.887C482.7 419.436 480.504 419.436 477.21 419.436C440.427 419.436 406.389 411.75 406.389 298.656V24.1559H475.014V107.055H584.814V157.014H475.014V298.656ZM527.718 325.557L595.794 333.243C588.657 419.985 557.364 449.082 521.679 449.082C504.66 449.082 492.582 441.945 484.896 418.887C512.895 416.691 523.326 397.476 527.718 325.557ZM691.152 62.0369C687.858 74.8469 683.649 88.7549 678.525 103.761C673.401 118.767 667.728 133.773 661.506 148.779C655.65 163.419 649.794 177.327 643.938 190.503H608.253C610.815 180.255 613.377 169.275 615.939 157.563C618.867 145.851 621.429 134.139 623.625 122.427C626.187 110.349 628.383 98.6369 630.213 87.2909C632.409 75.9449 634.239 65.5139 635.703 55.9979H687.309L691.152 62.0369ZM779.983 195.993C779.983 273.402 917.782 221.796 917.782 353.007C917.782 412.299 896.371 449.082 816.766 449.082C736.612 449.082 715.201 415.044 710.26 337.635L776.14 327.753C776.14 387.594 793.159 400.77 816.766 400.77C839.275 400.77 848.608 386.496 848.608 359.595C848.608 271.206 710.809 335.439 710.809 196.542C710.809 141.093 737.161 104.31 789.865 104.31C817.864 104.31 829.942 113.643 837.079 137.25C790.963 141.642 779.983 163.053 779.983 195.993ZM915.586 214.659L849.706 225.09C845.314 184.464 842.569 156.465 837.079 137.25C839.824 137.25 842.02 136.701 845.314 136.701C893.626 134.505 910.645 152.073 915.586 214.659ZM1150.54 298.656H1149.99C1149.99 360.144 1153.29 396.927 1160.42 418.887C1158.23 419.436 1156.03 419.436 1152.74 419.436C1115.95 419.436 1081.92 411.75 1081.92 298.656V24.1559H1150.54V107.055H1260.34V157.014H1150.54V298.656ZM1203.25 325.557L1271.32 333.243C1264.18 419.985 1232.89 449.082 1197.21 449.082C1180.19 449.082 1168.11 441.945 1160.42 418.887C1188.42 416.691 1198.85 397.476 1203.25 325.557ZM1396.33 103.761C1473.73 103.761 1500.64 135.603 1500.64 229.482V446.886H1430.91L1431.46 405.711C1427.07 410.103 1422.13 412.299 1414.99 412.848C1424.87 398.025 1431.46 378.81 1431.46 354.654C1431.46 293.715 1428.17 286.029 1397.97 286.029C1372.17 286.029 1362.29 291.519 1362.29 343.674C1362.29 390.339 1365.58 404.613 1390.29 410.103C1400.17 412.848 1408.4 413.397 1414.99 412.848C1398.52 437.553 1372.72 449.082 1350.21 449.082C1306.29 449.082 1292.02 427.671 1292.02 346.968C1292.02 265.167 1313.98 245.403 1376.56 245.403C1404.56 245.403 1421.58 255.285 1431.46 271.206V228.384C1431.46 169.092 1419.93 153.171 1397.97 153.171C1372.72 153.171 1364.48 181.719 1362.84 226.188L1293.11 217.953C1296.41 135.054 1334.29 103.761 1396.33 103.761ZM1610.63 446.886H1542.01V-0.000137627H1610.63V446.886ZM1861.03 446.886H1789.11L1747.94 294.264L1722.68 332.694V446.886H1654.06V13.7249H1722.68V233.325L1785.82 107.055H1860.48L1795.7 231.129L1861.03 446.886Z" fill="white"/>
</svg>
