<svg width="121" height="76" viewBox="0 0 121 76" fill="none" xmlns="http://www.w3.org/2000/svg">
<g clip-path="url(#clip0_1294_2)">
<path d="M0 1.23577H23.848C37.1736 1.23577 44.5666 8.24287 44.5666 19.6672C44.5666 28.5279 40.3681 36.4553 29.7284 38.3089V38.5193C39.6901 39.3475 43.4453 44.593 43.7843 55.9253L44.0059 63.9578C44.1233 67.9675 44.8534 71.2673 46.8484 74.7642H38.9729C37.2909 72.1875 36.9519 68.375 36.8476 64.4705L36.626 58.2917C36.1827 45.316 33.601 40.3335 20.7317 40.3335H7.17134V74.7642H0V1.23577ZM7.17134 36.5999H19.493C30.7976 36.5999 37.4083 30.8943 37.4083 21.2053C37.4083 12.2526 33.262 5.36378 20.2753 5.36378H7.17134V36.5868V36.5999Z" fill="black"/>
<path d="M54.2414 2.32693H61.2041V74.7642H54.2414V2.32693Z" fill="black"/>
<path d="M95.1571 0C111.508 0 121 11.9502 121 38.3089C121 64.6677 111.495 75.9868 95.1571 75.9868C78.8195 75.9868 69.575 64.3522 69.575 37.9934C69.575 11.6347 78.8065 0 95.1571 0ZM95.118 71.5565C106.54 71.5565 113.177 61.8543 113.177 38.0592C113.177 14.264 106.696 4.53555 95.2875 4.53555C83.8786 4.53555 77.0593 14.264 77.0593 38.0592C77.0593 61.8543 83.696 71.5565 95.118 71.5565Z" fill="black"/>
</g>
<defs>
<clipPath id="clip0_1294_2">
<rect width="121" height="76" fill="white"/>
</clipPath>
</defs>
</svg>
