<svg width="100" height="44" viewBox="0 0 100 44" fill="none" xmlns="http://www.w3.org/2000/svg">
<path d="M-4.57764e-05 43.2V0H9.27995L14.72 36.64H14.88L20.32 0H29.6V43.2H24V4.064H23.808L18.144 40.864H11.456L5.79195 4.064H5.59995V43.2H-4.57764e-05ZM43.3605 43.456C38.6458 43.456 35.7765 41.664 34.7525 38.08C33.7071 34.4747 33.1845 29.7707 33.1845 23.968C33.1845 17.504 33.7285 12.6613 34.8165 9.44C35.8618 6.21866 38.7205 4.608 43.3925 4.608C48.1498 4.608 51.0405 6.19733 52.0645 9.376C53.0458 12.5973 53.5365 17.4613 53.5365 23.968C53.5365 24.608 53.5258 25.2373 53.5045 25.856H38.1445V22.176H47.9045C47.8405 17.0133 47.4991 13.4827 46.8805 11.584C46.1978 9.6 45.0351 8.608 43.3925 8.608C41.8138 8.608 40.6405 9.632 39.8725 11.68C39.1045 13.7067 38.7205 17.8027 38.7205 23.968C38.7205 29.6213 39.0938 33.6 39.8405 35.904C40.5658 38.272 41.7391 39.456 43.3605 39.456V43.456ZM43.3605 39.456C44.2778 39.456 45.0671 39.168 45.7285 38.592C46.3898 37.9947 46.8805 36.8427 47.2005 35.136C47.4991 33.408 47.7231 31.488 47.8725 29.376L53.2485 30.016C53.1205 33.1947 52.7151 35.7867 52.0325 37.792C51.3498 39.84 50.3365 41.2907 48.9925 42.144C47.6485 43.0187 45.7711 43.456 43.3605 43.456V39.456ZM57.163 43.2V4.992H61.483L62.763 10.4V43.2H57.163ZM70.859 43.2V20C70.859 15.776 70.5923 12.8533 70.059 11.232C69.5256 9.58933 68.587 8.768 67.243 8.768C65.9416 8.768 64.8536 9.504 63.979 10.976C63.1043 12.448 62.667 14.24 62.667 16.352L60.011 15.136C60.011 12.384 60.8856 9.952 62.635 7.84C64.4056 5.70667 66.699 4.64 69.515 4.64C72.651 4.64 74.5816 6.13333 75.307 9.12C76.0536 12.0853 76.427 15.8187 76.427 20.32V43.2H70.859ZM95.043 43.2L93.763 38.56V4.992H99.363V43.2H95.043ZM85.603 4.992V28.128C85.603 32.3733 85.859 35.3173 86.371 36.96C86.9043 38.6027 87.843 39.424 89.187 39.424C90.5096 39.424 91.6083 38.688 92.483 37.216C93.3576 35.744 93.795 33.952 93.795 31.84L96.547 33.024C96.547 35.7547 95.683 38.1867 93.955 40.32C92.227 42.4533 89.923 43.52 87.043 43.52C83.8216 43.52 81.8483 42.0907 81.123 39.232C80.3976 36.352 80.035 32.6613 80.035 28.16V4.992H85.603Z" fill="black"/>
</svg>
