<?xml version="1.0" encoding="UTF-8"?>
<svg id="Layer_2" data-name="Layer 2" xmlns="http://www.w3.org/2000/svg" xmlns:xlink="http://www.w3.org/1999/xlink" viewBox="0 0 3727.74 180.99">
  <defs>
    <style>
      .cls-1 {
        fill: #fff;
      }
      rect { fill: #0013fe; }
    </style>
    <symbol id="ABW" viewBox="0 0 234.39 11.38">
      <g>
        <rect x="0" y="0" width="117.2" height="11.38"/>
        <g>
          <path class="cls-1" d="M6.47,4.89c1.47.1,1.9.41,1.9,2.3s-.7,2.3-1.94,2.3h-2.61V1.09h1.98c.69,0,.92.22.97,1.08h-1.43s0,6.24,0,6.24c1.52,0,1.52-.17,1.52-1.5,0-1.23-.16-1.5-1.18-1.5v-1.04c.91,0,1.11-.29,1.11-1.64,0-.22,0-.39-.02-.56h.1c1.06,0,1.43.41,1.43,1.36s-.35,1.28-1.84,1.36h0Z"/>
          <path class="cls-1" d="M10.65,2.84c.09-.04.19-.06.31-.07-.21.54-.31,1.42-.31,2.85v3.85h-1.52V2h1.52v.84ZM13.47,5.61h-1.5c0-2.62-.11-2.86-.9-2.86-.04,0-.07,0-.11,0,.23-.6.58-.78,1.07-.78,1.16,0,1.44.86,1.44,3.63Z"/>
          <path class="cls-1" d="M16.2,1.96c1.69,0,2.28.7,2.28,2.75v4.75h-1.52v-.9c-.09.09-.2.14-.35.15.22-.32.35-.74.35-1.27h0c0-1.33-.07-1.5-.73-1.5-.57,0-.78.11-.78,1.25,0,1.03.07,1.34.6,1.46.22.05.4.07.55.05-.36.54-.93.79-1.42.79-.95,0-1.28-.46-1.28-2.22s.49-2.23,1.85-2.23c.61,0,.98.22,1.2.57v-.93c0-1.29-.26-1.64-.74-1.64-.54,0-.73.62-.76,1.59l-1.53-.18c.07-1.81.9-2.49,2.25-2.49h0Z"/>
          <path class="cls-1" d="M20.9,2.63c.15-.06.31-.06.49.02-.29.49-.49,1.3-.49,2.59v4.22h-1.52V2.04h1.52v.59ZM22.43,1.96c1.02,0,1.14.67,1.14,3.78v3.73h-1.5v-3.73c0-2.21-.13-2.85-.67-3.08,0,0,0,0-.01,0,.3-.52.69-.69,1.05-.69h0Z"/>
          <path class="cls-1" d="M28.9,0v9.46h-1.52v-1.04c-.09.09-.21.13-.37.13.22-.5.37-1.22.37-2.29,0-2.65-.24-3.23-.76-3.23s-.75.48-.75,2.69.08,2.65.66,2.77c.19.04.34.05.48.05-.32.73-.78.95-1.09.95-1.18,0-1.55-.67-1.55-3.78s.33-3.77,1.66-3.77c.67,0,1.09.29,1.35.97V0h1.52Z"/>
          <path class="cls-1" d="M31.4,0c0,.94-.42,1.38-.83,1.83-.41-.45-.83-.9-.83-1.83h1.65ZM30.57,1.83c.38.43.76.87.76,1.75v5.88h-1.52V3.59c0-.88.37-1.32.76-1.75Z"/>
          <path class="cls-1" d="M33.76,2.63c.15-.06.31-.06.49.02-.29.49-.49,1.3-.49,2.59v4.22h-1.52V2.04h1.52v.59ZM35.3,1.96c1.02,0,1.14.67,1.14,3.78v3.73h-1.5v-3.73c0-2.21-.13-2.85-.67-3.08,0,0,0,0-.01,0,.3-.52.69-.69,1.05-.69h0Z"/>
          <path class="cls-1" d="M47.76,1.96c1.69,0,2.28.7,2.28,2.75v4.75h-1.52v-.9c-.09.09-.2.14-.35.15.22-.32.35-.74.35-1.27h0c0-1.33-.07-1.5-.73-1.5-.57,0-.78.11-.78,1.25,0,1.03.07,1.34.6,1.46.22.05.4.07.55.05-.36.54-.93.79-1.42.79-.95,0-1.28-.46-1.28-2.22s.49-2.23,1.85-2.23c.61,0,.98.22,1.2.57v-.93c0-1.29-.26-1.64-.74-1.64-.54,0-.73.62-.76,1.59l-1.53-.18c.07-1.81.9-2.49,2.25-2.49h0Z"/>
          <path class="cls-1" d="M53.79,5.86v.78h-2.96v-.78h2.96Z"/>
          <path class="cls-1" d="M57.49,1.96c1.34,0,1.66.67,1.66,3.77s-.33,3.78-1.52,3.78c-.3,0-.75-.21-1.08-.89.12,0,.26-.03.43-.08.56-.18.67-.59.67-2.8s-.24-2.69-.75-2.69-.76.58-.76,3.23c0,1.12.18,1.85.41,2.35-.18.01-.31-.04-.41-.16v1.01h-1.52V0h1.52v2.92c.26-.68.68-.97,1.35-.97h0Z"/>
          <path class="cls-1" d="M61.37,6.22c.04,1.9.29,2.21.8,2.21.45,0,.7-.25.79-1.62l1.48.17c-.08,1.84-.93,2.52-2.27,2.52-1.86,0-2.31-.67-2.31-3.77,0-2.84.39-3.78,1.78-3.78.55,0,.94.18,1.18.73-1.1,0-1.41.63-1.45,2.57h1.72c.03-1.25-.05-2.08-.27-2.57,0,0,.02,0,.02,0,1.36,0,1.63.98,1.63,3.54h-3.11Z"/>
          <path class="cls-1" d="M66.65,6.22h-.01c0,1.34.07,2.15.23,2.63-.05,0-.11.01-.17.01-.81,0-1.56-.17-1.56-2.64V.23h1.5v1.81h2.4v1.08h-2.4v3.1h0ZM69.29,6.98c-.16,1.9-.84,2.52-1.61,2.52-.38,0-.64-.15-.8-.65.61-.06.84-.47.93-2.05l1.48.17Z"/>
          <path class="cls-1" d="M71.31,6.22h-.01c0,1.34.07,2.15.23,2.63-.05,0-.11.01-.17.01-.81,0-1.56-.17-1.56-2.64V.23h1.5v1.81h2.4v1.08h-2.4v3.1h0ZM73.94,6.98c-.16,1.9-.84,2.52-1.61,2.52-.38,0-.64-.15-.8-.65.61-.06.84-.47.93-2.05l1.48.17Z"/>
          <path class="cls-1" d="M75.92,6.22c.04,1.9.29,2.21.8,2.21.45,0,.7-.25.79-1.62l1.48.17c-.08,1.84-.93,2.52-2.27,2.52-1.86,0-2.31-.67-2.31-3.77,0-2.84.39-3.78,1.78-3.78.55,0,.94.18,1.18.73-1.1,0-1.41.63-1.45,2.57h1.72c.03-1.25-.05-2.08-.27-2.57,0,0,.02,0,.02,0,1.36,0,1.63.98,1.63,3.54h-3.11Z"/>
          <path class="cls-1" d="M81.3,2.84c.09-.04.19-.06.31-.07-.21.54-.31,1.42-.31,2.85v3.85h-1.52V2h1.52v.84ZM84.12,5.61h-1.5c0-2.62-.11-2.86-.9-2.86-.04,0-.07,0-.11,0,.23-.6.58-.78,1.07-.78,1.16,0,1.44.86,1.44,3.63Z"/>
          <path class="cls-1" d="M87.57,5.86v.78h-2.96v-.78h2.96Z"/>
          <path class="cls-1" d="M91.75,3.6c-.2,1.71-.34,2.92-.49,3.78-.37,2.11-.78,2.11-2.21,2.11l-.95-7.42h1.55l.46,6.35.85-6.35h1.61l.83,6.35.43-6.35h1.6l-.96,7.42c-1.44,0-1.85,0-2.22-2.13-.15-.86-.29-2.07-.48-3.76h0Z"/>
          <path class="cls-1" d="M98.9,2.69c1.34,0,1.63.93,1.63,3.05,0,3.1-.45,3.77-2.31,3.77s-2.31-.67-2.31-3.77c0-2.85.39-3.78,1.78-3.78.57,0,.92.17,1.13.73-1.14.03-1.41.74-1.41,3.05s.25,2.69.8,2.69.86-.82.86-3.04c0-1.36-.07-2.19-.26-2.7.03,0,.05,0,.07,0h0Z"/>
          <path class="cls-1" d="M102.83,2.84c.09-.04.19-.06.31-.07-.21.54-.31,1.42-.31,2.85v3.85h-1.52V2h1.52v.84ZM105.65,5.61h-1.5c0-2.62-.11-2.86-.9-2.86-.04,0-.07,0-.11,0,.23-.6.58-.78,1.07-.78,1.16,0,1.44.86,1.44,3.63Z"/>
          <path class="cls-1" d="M106.25,9.46V0h1.5v9.46h-1.5Z"/>
          <path class="cls-1" d="M113.12,0v9.46h-1.52v-1.04c-.09.09-.21.13-.37.13.22-.5.37-1.22.37-2.29,0-2.65-.24-3.23-.76-3.23s-.75.48-.75,2.69.08,2.65.66,2.77c.19.04.34.05.48.05-.32.73-.78.95-1.09.95-1.18,0-1.55-.67-1.55-3.78s.33-3.77,1.66-3.77c.67,0,1.09.29,1.35.97V0h1.52Z"/>
          <path class="cls-1" d="M38.77,9.5c.3,0,.73-.21,1.05-.87-.12,0-.26-.03-.43-.06-.57-.12-.67-.63-.67-2.84s.24-2.69.76-2.69.75.58.75,3.23c0,1.13-.18,1.87-.41,2.37.18,0,.31-.02.41-.1v.94c0,1.41-.2,1.64-.71,1.64s-.76-.18-.76-1.17h-1.47c0,.65.13,1.12.36,1.45h3.61c.32-.44.49-1.07.49-1.92V2.04h-1.52v.88c-.26-.68-.68-.97-1.35-.97-1.34,0-1.66.67-1.66,3.77s.47,3.78,1.55,3.78Z"/>
        </g>
        <rect x="117.2" y="0" width="117.2" height="11.38"/>
        <g>
          <path class="cls-1" d="M123.66,4.89c1.47.1,1.9.41,1.9,2.3s-.7,2.3-1.94,2.3h-2.61V1.09h1.98c.69,0,.92.22.97,1.08h-1.43s0,6.24,0,6.24c1.52,0,1.52-.17,1.52-1.5,0-1.23-.16-1.5-1.18-1.5v-1.04c.91,0,1.11-.29,1.11-1.64,0-.22,0-.39-.02-.56h.1c1.06,0,1.43.41,1.43,1.36s-.35,1.28-1.84,1.36h0Z"/>
          <path class="cls-1" d="M127.84,2.84c.09-.04.19-.06.31-.07-.21.54-.31,1.42-.31,2.85v3.85h-1.52V2h1.52v.84ZM130.66,5.61h-1.5c0-2.62-.11-2.86-.9-2.86-.04,0-.07,0-.11,0,.23-.6.58-.78,1.07-.78,1.16,0,1.44.86,1.44,3.63Z"/>
          <path class="cls-1" d="M133.4,1.96c1.69,0,2.28.7,2.28,2.75v4.75h-1.52v-.9c-.09.09-.2.14-.35.15.22-.32.35-.74.35-1.27h0c0-1.33-.07-1.5-.73-1.5-.57,0-.78.11-.78,1.25,0,1.03.07,1.34.6,1.46.22.05.4.07.55.05-.36.54-.93.79-1.42.79-.95,0-1.28-.46-1.28-2.22s.49-2.23,1.85-2.23c.61,0,.98.22,1.2.57v-.93c0-1.29-.26-1.64-.74-1.64-.54,0-.73.62-.76,1.59l-1.53-.18c.07-1.81.9-2.49,2.25-2.49h0Z"/>
          <path class="cls-1" d="M138.09,2.63c.15-.06.31-.06.49.02-.29.49-.49,1.3-.49,2.59v4.22h-1.52V2.04h1.52v.59ZM139.63,1.96c1.02,0,1.14.67,1.14,3.78v3.73h-1.5v-3.73c0-2.21-.13-2.85-.67-3.08,0,0,0,0-.01,0,.3-.52.69-.69,1.05-.69h0Z"/>
          <path class="cls-1" d="M146.1,0v9.46h-1.52v-1.04c-.09.09-.21.13-.37.13.22-.5.37-1.22.37-2.29,0-2.65-.24-3.23-.76-3.23s-.75.48-.75,2.69.08,2.65.66,2.77c.19.04.34.05.48.05-.32.73-.78.95-1.09.95-1.18,0-1.55-.67-1.55-3.78s.33-3.77,1.66-3.77c.67,0,1.09.29,1.35.97V0h1.52Z"/>
          <path class="cls-1" d="M148.6,0c0,.94-.42,1.38-.83,1.83-.41-.45-.83-.9-.83-1.83h1.65ZM147.77,1.83c.38.43.76.87.76,1.75v5.88h-1.52V3.59c0-.88.37-1.32.76-1.75Z"/>
          <path class="cls-1" d="M150.96,2.63c.15-.06.31-.06.49.02-.29.49-.49,1.3-.49,2.59v4.22h-1.52V2.04h1.52v.59ZM152.49,1.96c1.02,0,1.14.67,1.14,3.78v3.73h-1.5v-3.73c0-2.21-.13-2.85-.67-3.08,0,0,0,0-.01,0,.3-.52.69-.69,1.05-.69h0Z"/>
          <path class="cls-1" d="M164.96,1.96c1.69,0,2.28.7,2.28,2.75v4.75h-1.52v-.9c-.09.09-.2.14-.35.15.22-.32.35-.74.35-1.27h0c0-1.33-.07-1.5-.73-1.5-.57,0-.78.11-.78,1.25,0,1.03.07,1.34.6,1.46.22.05.4.07.55.05-.36.54-.93.79-1.42.79-.95,0-1.28-.46-1.28-2.22s.49-2.23,1.85-2.23c.61,0,.98.22,1.2.57v-.93c0-1.29-.26-1.64-.74-1.64-.54,0-.73.62-.76,1.59l-1.53-.18c.07-1.81.9-2.49,2.25-2.49h0Z"/>
          <path class="cls-1" d="M170.99,5.86v.78h-2.96v-.78h2.96Z"/>
          <path class="cls-1" d="M174.69,1.96c1.34,0,1.66.67,1.66,3.77s-.33,3.78-1.52,3.78c-.3,0-.75-.21-1.08-.89.12,0,.26-.03.43-.08.56-.18.67-.59.67-2.8s-.24-2.69-.75-2.69-.76.58-.76,3.23c0,1.12.18,1.85.41,2.35-.18.01-.31-.04-.41-.16v1.01h-1.52V0h1.52v2.92c.26-.68.68-.97,1.35-.97h0Z"/>
          <path class="cls-1" d="M178.56,6.22c.04,1.9.29,2.21.8,2.21.45,0,.7-.25.79-1.62l1.48.17c-.08,1.84-.93,2.52-2.27,2.52-1.86,0-2.31-.67-2.31-3.77,0-2.84.39-3.78,1.78-3.78.55,0,.94.18,1.18.73-1.1,0-1.41.63-1.45,2.57h1.72c.03-1.25-.05-2.08-.27-2.57,0,0,.02,0,.02,0,1.36,0,1.63.98,1.63,3.54h-3.11Z"/>
          <path class="cls-1" d="M183.85,6.22h-.01c0,1.34.07,2.15.23,2.63-.05,0-.11.01-.17.01-.81,0-1.56-.17-1.56-2.64V.23h1.5v1.81h2.4v1.08h-2.4v3.1h0ZM186.48,6.98c-.16,1.9-.84,2.52-1.61,2.52-.38,0-.64-.15-.8-.65.61-.06.84-.47.93-2.05l1.48.17Z"/>
          <path class="cls-1" d="M188.5,6.22h-.01c0,1.34.07,2.15.23,2.63-.05,0-.11.01-.17.01-.81,0-1.56-.17-1.56-2.64V.23h1.5v1.81h2.4v1.08h-2.4v3.1h0ZM191.14,6.98c-.16,1.9-.84,2.52-1.61,2.52-.38,0-.64-.15-.8-.65.61-.06.84-.47.93-2.05l1.48.17Z"/>
          <path class="cls-1" d="M193.12,6.22c.04,1.9.29,2.21.8,2.21.45,0,.7-.25.79-1.62l1.48.17c-.08,1.84-.93,2.52-2.27,2.52-1.86,0-2.31-.67-2.31-3.77,0-2.84.39-3.78,1.78-3.78.55,0,.94.18,1.18.73-1.1,0-1.41.63-1.45,2.57h1.72c.03-1.25-.05-2.08-.27-2.57,0,0,.02,0,.02,0,1.36,0,1.63.98,1.63,3.54h-3.11Z"/>
          <path class="cls-1" d="M198.5,2.84c.09-.04.19-.06.31-.07-.21.54-.31,1.42-.31,2.85v3.85h-1.52V2h1.52v.84ZM201.32,5.61h-1.5c0-2.62-.11-2.86-.9-2.86-.04,0-.07,0-.11,0,.23-.6.58-.78,1.07-.78,1.16,0,1.44.86,1.44,3.63Z"/>
          <path class="cls-1" d="M204.77,5.86v.78h-2.96v-.78h2.96Z"/>
          <path class="cls-1" d="M208.94,3.6c-.2,1.71-.34,2.92-.49,3.78-.37,2.11-.78,2.11-2.21,2.11l-.95-7.42h1.55l.46,6.35.85-6.35h1.61l.83,6.35.43-6.35h1.6l-.96,7.42c-1.44,0-1.85,0-2.22-2.13-.15-.86-.29-2.07-.48-3.76h0Z"/>
          <path class="cls-1" d="M216.09,2.69c1.34,0,1.63.93,1.63,3.05,0,3.1-.45,3.77-2.31,3.77s-2.31-.67-2.31-3.77c0-2.85.39-3.78,1.78-3.78.57,0,.92.17,1.13.73-1.14.03-1.41.74-1.41,3.05s.25,2.69.8,2.69.86-.82.86-3.04c0-1.36-.07-2.19-.26-2.7.03,0,.05,0,.07,0h0Z"/>
          <path class="cls-1" d="M220.03,2.84c.09-.04.19-.06.31-.07-.21.54-.31,1.42-.31,2.85v3.85h-1.52V2h1.52v.84ZM222.85,5.61h-1.5c0-2.62-.11-2.86-.9-2.86-.04,0-.07,0-.11,0,.23-.6.58-.78,1.07-.78,1.16,0,1.44.86,1.44,3.63Z"/>
          <path class="cls-1" d="M223.44,9.46V0h1.5v9.46h-1.5Z"/>
          <path class="cls-1" d="M230.31,0v9.46h-1.52v-1.04c-.09.09-.21.13-.37.13.22-.5.37-1.22.37-2.29,0-2.65-.24-3.23-.76-3.23s-.75.48-.75,2.69.08,2.65.66,2.77c.19.04.34.05.48.05-.32.73-.78.95-1.09.95-1.18,0-1.55-.67-1.55-3.78s.33-3.77,1.66-3.77c.67,0,1.09.29,1.35.97V0h1.52Z"/>
          <path class="cls-1" d="M155.97,9.5c.3,0,.73-.21,1.05-.87-.12,0-.26-.03-.43-.06-.57-.12-.67-.63-.67-2.84s.24-2.69.76-2.69.75.58.75,3.23c0,1.13-.18,1.87-.41,2.37.18,0,.31-.02.41-.1v.94c0,1.41-.2,1.64-.71,1.64s-.76-.18-.76-1.17h-1.47c0,.65.13,1.12.36,1.45h3.61c.32-.44.49-1.07.49-1.92V2.04h-1.52v.88c-.26-.68-.68-.97-1.35-.97-1.34,0-1.66.67-1.66,3.77s.47,3.78,1.55,3.78Z"/>
        </g>
      </g>
    </symbol>
  </defs>
  <g id="Layer_1-2" data-name="Layer 1">
    <use width="234.39" height="11.38" transform="scale(15.9039)" xlink:href="#ABW"/>
  </g>
</svg>