<svg preserveAspectRatio="none" width="100%" height="100%" overflow="visible" style="display: block;" viewBox="0 0 595 372" fill="none" xmlns="http://www.w3.org/2000/svg">
<g id="Layer_1" clip-path="url(#clip0_0_4)">
<path id="Vector" d="M0 6.04878H117.269C182.796 6.04878 219.15 40.3467 219.15 96.2657C219.15 139.637 198.504 178.439 146.185 187.512V188.542C195.17 192.596 213.636 218.271 215.303 273.739L216.393 313.057C216.97 332.683 220.56 348.834 230.37 365.951H191.644C183.373 353.339 181.706 334.678 181.193 315.566L180.103 285.322C177.923 221.81 165.228 197.422 101.945 197.422H35.264V365.951H0V6.04878ZM35.264 179.147H95.854C151.443 179.147 183.95 151.22 183.95 103.794C183.95 59.973 163.561 26.2543 99.701 26.2543H35.264V179.083V179.147Z" fill="var(--fill-0, black)"/>
<path id="Vector_2" d="M266.724 11.3897H300.962V365.951H266.724V11.3897Z" fill="var(--fill-0, black)"/>
<path id="Vector_3" d="M467.921 0C548.323 0 595 58.493 595 187.512C595 316.531 548.259 371.936 467.921 371.936C387.584 371.936 342.125 314.987 342.125 185.968C342.125 56.9486 387.519 0 467.921 0ZM467.729 350.25C523.895 350.25 556.53 302.761 556.53 186.29C556.53 69.8184 524.664 22.2003 468.562 22.2003C412.461 22.2003 378.928 69.8184 378.928 186.29C378.928 302.761 411.563 350.25 467.729 350.25Z" fill="var(--fill-0, black)"/>
</g>
<defs>
<clipPath id="clip0_0_4">
<rect width="595" height="372" fill="white"/>
</clipPath>
</defs>
</svg>
