<svg width="64" height="64" viewBox="0 0 64 64" fill="none" xmlns="http://www.w3.org/2000/svg">
<g clip-path="url(#clip0_1300_569)">
<path d="M47.61 25.5801C48.07 26.4501 48.7 27.1701 49.27 27.8001C50.36 29.0001 52.22 28.8101 53.01 27.4001C53.32 26.8601 53.55 26.2101 53.79 25.5401C54.17 24.4601 54.46 23.2701 54.32 22.0301C54.19 20.9101 53.82 19.8601 53.29 18.9601C52.87 18.2501 52.32 17.6501 51.83 17.1201C50.74 15.9201 48.85 16.1001 48.06 17.5101C47.69 18.1601 47.34 18.9301 47.09 19.7601C46.79 20.7301 46.68 21.8001 46.8 22.8801C46.91 23.8501 47.19 24.7601 47.62 25.5701L47.61 25.5801Z" fill="#FF8831"/>
<path d="M63.41 29.2202C63.35 28.1302 62.56 27.3702 61.74 26.8402C60.92 26.3102 59.87 25.8502 58.86 26.2502C57.77 26.6802 56.62 27.4002 55.51 28.2002C54.5 28.9302 53.72 29.9602 53.01 31.0802C52.71 31.5402 52.37 31.9202 52.16 32.4102C52.16 32.4102 50.61 36.4002 51.65 38.4902C51.65 38.4902 50.17 35.7102 51.56 31.8302C51.15 31.5002 50.71 31.2202 50.29 30.8702C49.59 30.2802 48.78 29.4602 47.54 28.8902C46.61 28.4702 45.52 28.1702 44.27 27.9202C43.25 27.7202 42.13 27.5602 40.88 27.5702C39.52 27.5702 37.96 27.3902 36.31 27.7302C34.95 28.0102 33.46 28.4202 31.9 28.9802C30.77 29.3902 29.81 30.0302 28.81 30.3402C27.64 30.7002 26.55 30.9402 25.55 31.1802C24.33 31.4602 23.27 31.9702 22.28 32.0902C20.39 32.3302 18.82 32.3302 17.65 32.1602C15.08 31.8002 14.23 30.3402 13.86 29.7902C13.13 28.7302 12.91 27.3202 13.33 26.0702C14.09 26.1602 15 26.3302 15.78 26.1202C16.83 25.8302 17.69 25.3202 18.4 24.5902C19.51 25.4402 21.05 26.0702 22.73 26.3102C24.27 26.5302 25.96 26.2602 27.45 25.9102C28.7 25.6202 29.67 25.1102 30.45 24.5202C31.4 23.7902 32.16 22.9202 32.46 21.8802C32.76 20.8602 32.75 19.6602 32.49 18.5102C32.22 17.3602 31.6 16.3702 30.88 15.5902C30.15 14.7902 29.13 14.5402 27.95 14.3002C26.99 14.1102 25.88 13.5302 24.64 13.8202C24.47 13.8602 24.29 14.1602 24.12 14.2102C24.6 13.6602 24.96 13.0402 25.32 12.4302C25.97 11.3302 26.7 10.4002 26.81 9.43017C26.94 8.24017 26.35 7.19017 25.81 6.26017C25.28 5.34017 24.56 4.51017 23.55 3.91017C22.54 3.31017 21.48 3.03017 20.41 3.00017C19.33 2.98017 18.28 3.22017 17.3 3.91017C16.5 4.47017 15.63 5.19017 14.98 6.29017C14.33 7.39017 13.98 8.74017 13.69 10.0302C13.38 9.14017 13.11 8.16017 12.62 7.39017C11.94 6.31017 11.08 5.53017 10.26 4.99017C9.25998 4.33017 8.13998 4.43017 7.05998 4.49017C5.99998 4.54017 4.87998 4.57017 3.87998 5.19017C2.87998 5.82017 2.09998 6.66017 1.58998 7.60017C1.08998 8.54017 0.889982 9.65017 1.04998 10.8402C1.17998 11.8102 1.31998 13.0002 1.99998 14.0802C2.67998 15.1602 3.65998 16.2202 4.66998 17.0702C5.71998 17.9502 7.14998 18.3802 8.29998 18.7902C8.08998 19.7302 8.19998 20.7302 8.47998 21.7202C8.67998 22.4502 8.54998 23.1302 8.97998 23.7102C8.36998 25.0902 8.18998 26.6802 8.24998 28.2402C8.30998 29.7402 8.82998 31.2602 9.73998 32.6002C10.42 33.6002 11.4 34.6002 12.78 35.3502C13.83 35.9202 15.16 36.1902 16.73 36.4302C17.92 36.6102 19.25 36.5002 20.8 36.4202C22.11 36.3502 23.56 36.4002 25.16 36.0902C26.48 35.8302 27.87 35.3902 29.39 34.9502C30.7 34.5702 32.18 34.4002 33.66 33.8602C35.19 33.3002 36.6 32.7102 37.98 32.4702C39.62 32.1902 41.18 31.8802 42.55 32.0402C44.48 32.2602 45.93 33.4102 47.21 34.5002C48.19 35.3302 49.31 36.1402 49.75 37.3202C50.2 38.5202 50.22 39.9102 49.99 41.1602C49.81 42.1502 48.98 43.0802 47.19 43.8602C46.79 42.7402 46.56 42.3602 45.84 41.4602C45.11 40.5502 44.07 39.8702 43.09 39.2602C42.11 38.6502 40.95 38.4702 39.8 38.2102C38.69 37.9602 37.69 37.8502 36.55 37.7102C36.14 36.1002 35.62 35.5702 34.58 35.7102C33.54 35.8502 33.55 37.9702 33.55 37.9702C32.23 38.2402 7.60998 43.3302 5.81998 44.3002C5.36998 45.9002 4.86998 46.3402 4.67998 47.8602C4.46998 49.5102 4.28998 51.1102 4.42998 52.6402C4.56998 54.1202 5.14998 55.4602 5.56998 56.8302C5.98998 58.1902 6.86998 58.7602 7.79998 59.9802C9.80998 60.3702 33.81 58.0802 35.72 58.8102C35.72 58.8102 36.08 60.9902 37.35 60.8402C38.61 60.6902 38.5 59.5302 38.46 58.4302C39.65 58.3002 40.98 57.9302 42 57.4402C43.06 56.9302 44.2 56.5302 45.02 55.7202C45.84 54.9002 46.65 53.9502 47.17 52.9102C47.68 51.8802 47.76 49.0502 47.76 49.0502C47.85 49.0302 49.34 48.7602 49.43 48.7302C50.4 48.3802 50.67 48.4502 51.45 47.8002C52.22 47.1502 52.8 46.2802 53.33 45.4002C53.94 44.3902 54.37 43.2402 54.59 41.9902C54.63 41.7902 54.52 41.3602 54.54 41.1602C54.85 41.1302 55.29 41.2302 55.6 41.1002C56.78 40.6302 57.95 39.8402 59.13 38.9302C60.03 38.2402 60.96 37.5802 61.61 36.5802C62.33 35.4602 63.02 34.3202 63.26 33.1002C63.53 31.7602 63.49 30.3902 63.43 29.2202H63.41ZM10.65 14.0402C10.65 14.0402 14.14 8.51017 19.35 12.2802C23.9 15.5702 20.13 21.7002 20.13 21.7002C20.13 21.7002 23.02 15.9302 18.2 13.2302C14.61 11.2202 10.65 14.0402 10.65 14.0402ZM9.51998 58.9202C7.92998 59.1002 6.30998 55.5202 5.84998 52.3602C5.38998 49.1902 6.66998 45.2902 7.93998 45.1402C9.20998 44.9902 10.9 47.9402 11.61 51.7002C12.31 55.4602 11.11 58.7402 9.51998 58.9202Z" fill="#FF8831"/>
</g>
<defs>
<clipPath id="clip0_1300_569">
<rect width="62.46" height="57.83" fill="white" transform="translate(1 3)"/>
</clipPath>
</defs>
</svg>
