<svg width="64" height="64" viewBox="0 0 64 64" fill="none" xmlns="http://www.w3.org/2000/svg">
<path d="M62.0085 31.0174C61.96 29.8182 61.597 28.6431 61.4034 27.4438C61.2097 26.2688 60.9919 25.0937 60.6531 23.9187C60.3142 22.7437 59.9996 21.5807 59.5397 20.4784C59.0678 19.3518 58.3901 18.3584 57.7971 17.3166C57.192 16.2627 56.7805 15.0877 56.0665 14.1307C55.3404 13.1616 54.4207 12.35 53.5857 11.4778C52.7507 10.6056 51.952 9.6849 51.0202 8.92173C50.0883 8.15856 49.0234 7.56498 48.0068 6.91083C46.9903 6.25668 45.998 5.56619 44.9088 5.04529C43.8197 4.52439 42.67 4.14886 41.5204 3.76122C40.3828 3.37358 39.1726 3.26455 37.9988 3.01016C36.8249 2.76788 35.6995 2.11373 34.4893 2.01682C33.2912 1.91991 32.069 2.27121 30.8588 2.31967C29.6607 2.36813 28.4627 2.3439 27.2525 2.52561C26.0786 2.71943 24.8927 2.93748 23.7188 3.27667C22.545 3.61585 21.4558 4.13675 20.3546 4.59708C19.2291 5.06952 18.0068 5.33602 16.9782 5.9296C15.9254 6.5353 15.054 7.41961 14.098 8.13433C13.1299 8.86116 12.077 9.5032 11.2057 10.3269C10.3344 11.1628 9.59619 12.144 8.83379 13.0768C8.07139 14.0096 7.58732 15.1361 6.94593 16.1537C6.29244 17.1713 5.57845 18.1283 5.05807 19.2185C4.5377 20.3088 3.88421 21.3506 3.49696 22.4893C3.10971 23.628 3.09761 24.8757 2.85557 26.0507C2.61354 27.2258 2.25049 28.3766 2.15368 29.588C2.05686 30.7873 1.97215 31.9865 2.00846 33.1979C2.05686 34.3972 2.46832 35.548 2.66195 36.7594C2.85557 37.9344 2.96449 39.1216 3.30333 40.2967C3.64218 41.4717 4.12625 42.562 4.58611 43.6643C5.05807 44.7909 5.17909 46.075 5.77207 47.1168C6.37715 48.1707 7.39369 48.9581 8.10769 49.9151C8.83379 50.8842 9.43887 51.9381 10.2739 52.8103C11.1089 53.6825 11.8592 54.6879 12.7789 55.4511C13.7108 56.2143 15.0056 56.4929 16.0222 57.1349C17.0387 57.7891 17.9221 58.6492 19.0113 59.1701C20.1004 59.691 21.1654 60.3209 22.3029 60.7085C23.4405 61.0962 24.6628 61.29 25.8366 61.5323C27.0105 61.7745 28.2206 61.8836 29.4308 61.9805C30.6289 62.0774 31.8269 61.8836 33.0371 61.8351C34.2352 61.7867 35.409 61.6655 36.6071 61.4717C37.7809 61.2779 39.0032 61.2658 40.1771 60.9387C41.3509 60.5995 42.4522 60.1149 43.5534 59.6546C44.6789 59.1822 45.6954 58.5523 46.7362 57.9587C47.789 57.353 48.7934 56.7231 49.7495 56.0083C50.7176 55.2815 51.722 54.6152 52.5934 53.7915C53.4647 52.9556 54.4812 52.2288 55.2436 51.3082C56.006 50.3754 56.5869 49.2851 57.2283 48.2676C57.8818 47.25 58.1843 46.0507 58.7047 44.9726C59.2251 43.8824 59.6728 42.8042 60.0601 41.6534C60.4473 40.5147 60.7741 39.376 61.0161 38.201C61.2582 37.0259 61.5607 35.8751 61.6696 34.6637C61.7664 33.4644 62.0569 32.2652 62.0206 31.0538L62.0085 31.0174ZM30.4231 40.9145C26.1755 45.1907 22.1093 48.1343 19.8221 47.7709C17.9826 47.4802 15.3929 45.1907 13.3961 43.204C10.1408 39.9575 8.84589 35.9841 10.4917 34.3124C11.2662 33.5371 12.5369 33.4039 14.0133 33.8036C15.0056 34.0701 16.0343 33.5735 16.4336 32.6286C17.0266 31.1991 17.9342 30.2664 19.0355 30.1331C20.7781 29.9272 22.5208 31.8291 23.5131 34.7122C23.6462 35.0877 24.1182 35.1846 24.3844 34.906C29.0315 30.23 34.1505 27.7709 35.8205 29.4305C37.4905 31.0901 35.0702 36.2264 30.411 40.9145H30.4231ZM47.6922 45.8206C47.3776 46.6201 46.7967 47.5165 46.0585 48.3039C45.3808 49.0308 44.5458 49.6486 43.7834 50.23C42.2949 51.3687 40.758 52.3863 39.221 52.6286C38.2408 52.7861 37.2969 52.8466 36.4619 52.6286C35.53 52.3742 34.7797 51.8169 34.2231 51.078C33.2428 49.7939 33.4122 48.098 34.0778 46.3172C34.3804 45.4935 34.7555 44.6334 35.288 43.846C35.7842 43.1313 36.4256 42.4772 37.2122 41.8836C38.0714 41.2173 38.979 40.7449 39.9108 40.4784C40.9516 40.1755 41.9923 40.1271 42.9484 40.1028C44.6184 40.0665 46.0464 39.9938 46.9298 41.1567C47.9342 42.4772 48.4183 44.0156 47.7043 45.8448L47.6922 45.8206ZM55.1347 31.7685L53.38 30.1089C52.436 29.2246 50.9354 30.1452 51.2864 31.3808C51.6857 32.7618 50.8749 34.2034 49.4953 34.6031L48.5877 34.8696C46.8451 35.3663 45.1387 33.9732 45.284 32.1682L45.647 27.5407C45.7317 26.5232 44.7636 25.7358 43.7834 26.0144L40.8669 26.8503C39.4752 27.25 38.3013 25.7479 39.0153 24.4881L40.8427 21.2779C41.5688 20.0059 40.3828 18.4917 38.9669 18.8914L19.0355 24.585C14.0375 26.0144 9.99555 20.4057 12.912 16.0931C13.8318 14.7243 14.8725 13.5613 15.9254 12.5559C19.1323 9.75759 21.601 8.75213 25.05 7.77091C38.4828 3.93081 52.4724 11.72 56.2965 25.1664C56.8774 27.2137 57.192 29.273 57.2646 31.3082C56.95 32.1077 55.8729 32.4348 55.171 31.7685H55.1347Z" fill="#009345"/>
</svg>
