<svg preserveAspectRatio="none" width="100%" height="100%" overflow="visible" style="display: block;" viewBox="0 0 195 142" fill="none" xmlns="http://www.w3.org/2000/svg">
<g id="Frame 86">
<path id="Vector" d="M60.0086 29.0174C59.9602 27.8182 59.5971 26.6431 59.4035 25.4438C59.2099 24.2688 58.992 23.0937 58.6532 21.9187C58.3143 20.7437 57.9997 19.5807 57.5398 18.4784C57.0679 17.3518 56.3902 16.3584 55.7972 15.3166C55.1921 14.2627 54.7807 13.0877 54.0667 12.1307C53.3406 11.1616 52.4208 10.35 51.5858 9.47776C50.7508 8.60556 49.9521 7.6849 49.0203 6.92173C48.0884 6.15856 47.0235 5.56498 46.007 4.91083C44.9904 4.25668 43.9981 3.56619 42.9089 3.04529C41.8198 2.52439 40.6701 2.14886 39.5205 1.76122C38.3829 1.37358 37.1728 1.26455 35.9989 1.01016C34.825 0.767883 33.6996 0.113734 32.4894 0.016823C31.2914 -0.0800879 30.0691 0.271214 28.8589 0.31967C27.6609 0.368125 26.4628 0.343898 25.2526 0.525606C24.0788 0.719427 22.8928 0.937477 21.7189 1.27667C20.5451 1.61585 19.4559 2.13675 18.3547 2.59708C17.2292 3.06952 16.007 3.33602 14.9783 3.9296C13.9255 4.5353 13.0542 5.41961 12.0981 6.13433C11.13 6.86116 10.0772 7.5032 9.20584 8.32694C8.33452 9.1628 7.59632 10.144 6.83391 11.0768C6.07151 12.0096 5.58744 13.1361 4.94605 14.1537C4.29256 15.1713 3.57857 16.1283 3.0582 17.2185C2.53782 18.3088 1.88434 19.3506 1.49708 20.4893C1.10983 21.628 1.09773 22.8757 0.855695 24.0507C0.613662 25.2258 0.250612 26.3766 0.153799 27.588C0.056986 28.7873 -0.0277256 29.9865 0.00857941 31.1979C0.056986 32.3972 0.468442 33.548 0.662069 34.7594C0.855695 35.9344 0.96461 37.1216 1.30346 38.2967C1.6423 39.4717 2.12637 40.562 2.58623 41.6643C3.0582 42.7909 3.17921 44.075 3.77219 45.1168C4.37728 46.1707 5.39382 46.9581 6.10781 47.9151C6.83391 48.8842 7.43899 49.9381 8.27401 50.8103C9.10902 51.6825 9.85933 52.6879 10.7791 53.4511C11.7109 54.2143 13.0058 54.4929 14.0223 55.1349C15.0388 55.7891 15.9223 56.6492 17.0114 57.1701C18.1006 57.691 19.1655 58.3209 20.3031 58.7085C21.4406 59.0962 22.6629 59.29 23.8367 59.5323C25.0106 59.7745 26.2208 59.8836 27.4309 59.9805C28.629 60.0774 29.8271 59.8836 31.0372 59.8351C32.2353 59.7867 33.4091 59.6655 34.6072 59.4717C35.7811 59.2779 37.0033 59.2658 38.1772 58.9387C39.3511 58.5995 40.4523 58.1149 41.5536 57.6546C42.679 57.1822 43.6955 56.5523 44.7363 55.9587C45.7891 55.353 46.7936 54.7231 47.7496 54.0083C48.7177 53.2815 49.7222 52.6152 50.5935 51.7915C51.4648 50.9556 52.4814 50.2288 53.2438 49.3082C54.0062 48.3754 54.587 47.2851 55.2284 46.2676C55.8819 45.25 56.1845 44.0507 56.7048 42.9726C57.2252 41.8824 57.673 40.8042 58.0602 39.6534C58.4475 38.5147 58.7742 37.376 59.0162 36.201C59.2583 35.0259 59.5608 33.8751 59.6697 32.6637C59.7665 31.4644 60.057 30.2652 60.0207 29.0538L60.0086 29.0174ZM28.4233 38.9145C24.1756 43.1907 20.1094 46.1343 17.8222 45.7709C15.9828 45.4802 13.393 43.1907 11.3962 41.204C8.14089 37.9575 6.84601 33.9841 8.49184 32.3124C9.26635 31.5371 10.537 31.4039 12.0134 31.8036C13.0058 32.0701 14.0344 31.5735 14.4338 30.6286C15.0267 29.1991 15.9344 28.2664 17.0356 28.1331C18.7782 27.9272 20.5209 29.8291 21.5132 32.7122C21.6463 33.0877 22.1183 33.1846 22.3845 32.906C27.0316 28.23 32.1506 25.7709 33.8206 27.4305C35.4906 29.0901 33.0703 34.2264 28.4112 38.9145H28.4233ZM45.6923 43.8206C45.3777 44.6201 44.7968 45.5165 44.0586 46.3039C43.3809 47.0308 42.5459 47.6486 41.7835 48.23C40.295 49.3687 38.7581 50.3863 37.2212 50.6286C36.2409 50.7861 35.297 50.8466 34.462 50.6286C33.5302 50.3742 32.7799 49.8169 32.2232 49.078C31.2429 47.7939 31.4124 46.098 32.078 44.3172C32.3805 43.4935 32.7557 42.6334 33.2881 41.846C33.7843 41.1313 34.4257 40.4772 35.2123 39.8836C36.0715 39.2173 36.9791 38.7449 37.911 38.4784C38.9517 38.1755 39.9924 38.1271 40.9485 38.1028C42.6185 38.0665 44.0465 37.9938 44.9299 39.1567C45.9344 40.4772 46.4184 42.0156 45.7044 43.8448L45.6923 43.8206ZM53.1348 29.7685L51.3801 28.1089C50.4362 27.2246 48.9356 28.1452 49.2865 29.3808C49.6859 30.7618 48.8751 32.2034 47.4955 32.6031L46.5878 32.8696C44.8452 33.3663 43.1389 31.9732 43.2841 30.1682L43.6471 25.5407C43.7319 24.5232 42.7637 23.7358 41.7835 24.0144L38.867 24.8503C37.4753 25.25 36.3014 23.7479 37.0154 22.4881L38.8428 19.2779C39.5689 18.0059 38.3829 16.4917 36.967 16.8914L17.0356 22.585C12.0376 24.0144 7.99567 18.4057 10.9122 14.0931C11.8319 12.7243 12.8726 11.5613 13.9255 10.5559C17.1324 7.75759 19.6012 6.75213 23.0501 5.77091C36.483 1.93081 50.4725 9.72003 54.2966 23.1664C54.8775 25.2137 55.1921 27.273 55.2647 29.3082C54.9501 30.1077 53.873 30.4348 53.1711 29.7685H53.1348Z" fill="var(--fill-0, #009345)"/>
</g>
</svg>
