<svg preserveAspectRatio="none" width="100%" height="100%" overflow="visible" style="display: block;" viewBox="0 0 62.46 57.83" fill="none" xmlns="http://www.w3.org/2000/svg">
<g id="Layer_1" clip-path="url(#clip0_0_28)">
<path id="Vector" d="M46.6096 22.5801C47.0696 23.4501 47.6996 24.1701 48.2696 24.8001C49.3596 26.0001 51.2196 25.8101 52.0096 24.4001C52.3196 23.8601 52.5496 23.2101 52.7896 22.5401C53.1696 21.4601 53.4596 20.2701 53.3196 19.0301C53.1896 17.9101 52.8196 16.8601 52.2896 15.9601C51.8696 15.2501 51.3196 14.6501 50.8296 14.1201C49.7396 12.9201 47.8496 13.1001 47.0596 14.5101C46.6896 15.1601 46.3396 15.9301 46.0896 16.7601C45.7896 17.7301 45.6796 18.8001 45.7996 19.8801C45.9096 20.8501 46.1896 21.7601 46.6196 22.5701L46.6096 22.5801Z" fill="var(--fill-0, #FF8831)"/>
<path id="Vector_2" d="M62.41 26.22C62.35 25.13 61.56 24.37 60.74 23.84C59.92 23.31 58.87 22.85 57.86 23.25C56.77 23.68 55.62 24.4 54.51 25.2C53.5 25.93 52.72 26.96 52.01 28.08C51.71 28.54 51.37 28.92 51.16 29.41C51.16 29.41 49.61 33.4 50.65 35.49C50.65 35.49 49.17 32.71 50.56 28.83C50.15 28.5 49.71 28.22 49.29 27.87C48.59 27.28 47.78 26.46 46.54 25.89C45.61 25.47 44.52 25.17 43.27 24.92C42.25 24.72 41.13 24.56 39.88 24.57C38.52 24.57 36.96 24.39 35.31 24.73C33.95 25.01 32.46 25.42 30.9 25.98C29.77 26.39 28.81 27.03 27.81 27.34C26.64 27.7 25.55 27.94 24.55 28.18C23.33 28.46 22.27 28.97 21.28 29.09C19.39 29.33 17.82 29.33 16.65 29.16C14.08 28.8 13.23 27.34 12.86 26.79C12.13 25.73 11.91 24.32 12.33 23.07C13.09 23.16 14 23.33 14.78 23.12C15.83 22.83 16.69 22.32 17.4 21.59C18.51 22.44 20.05 23.07 21.73 23.31C23.27 23.53 24.96 23.26 26.45 22.91C27.7 22.62 28.67 22.11 29.45 21.52C30.4 20.79 31.16 19.92 31.46 18.88C31.76 17.86 31.75 16.66 31.49 15.51C31.22 14.36 30.6 13.37 29.88 12.59C29.15 11.79 28.13 11.54 26.95 11.3C25.99 11.11 24.88 10.53 23.64 10.82C23.47 10.86 23.29 11.16 23.12 11.21C23.6 10.66 23.96 10.04 24.32 9.43C24.97 8.33 25.7 7.4 25.81 6.43C25.94 5.24 25.35 4.19 24.81 3.26C24.28 2.34 23.56 1.51 22.55 0.91C21.54 0.31 20.48 0.03 19.41 0C18.33 -0.02 17.28 0.22 16.3 0.91C15.5 1.47 14.63 2.19 13.98 3.29C13.33 4.39 12.98 5.74 12.69 7.03C12.38 6.14 12.11 5.16 11.62 4.39C10.94 3.31 10.08 2.53 9.26 1.99C8.26 1.33 7.14 1.43 6.06 1.49C5 1.54 3.88 1.57 2.88 2.19C1.88 2.82 1.1 3.66 0.59 4.6C0.09 5.54 -0.11 6.65 0.05 7.84C0.18 8.81 0.32 10 1 11.08C1.68 12.16 2.66 13.22 3.67 14.07C4.72 14.95 6.15 15.38 7.3 15.79C7.09 16.73 7.2 17.73 7.48 18.72C7.68 19.45 7.55 20.13 7.98 20.71C7.37 22.09 7.19 23.68 7.25 25.24C7.31 26.74 7.83 28.26 8.74 29.6C9.42 30.6 10.4 31.6 11.78 32.35C12.83 32.92 14.16 33.19 15.73 33.43C16.92 33.61 18.25 33.5 19.8 33.42C21.11 33.35 22.56 33.4 24.16 33.09C25.48 32.83 26.87 32.39 28.39 31.95C29.7 31.57 31.18 31.4 32.66 30.86C34.19 30.3 35.6 29.71 36.98 29.47C38.62 29.19 40.18 28.88 41.55 29.04C43.48 29.26 44.93 30.41 46.21 31.5C47.19 32.33 48.31 33.14 48.75 34.32C49.2 35.52 49.22 36.91 48.99 38.16C48.81 39.15 47.98 40.08 46.19 40.86C45.79 39.74 45.56 39.36 44.84 38.46C44.11 37.55 43.07 36.87 42.09 36.26C41.11 35.65 39.95 35.47 38.8 35.21C37.69 34.96 36.69 34.85 35.55 34.71C35.14 33.1 34.62 32.57 33.58 32.71C32.54 32.85 32.55 34.97 32.55 34.97C31.23 35.24 6.61 40.33 4.82 41.3C4.37 42.9 3.87 43.34 3.68 44.86C3.47 46.51 3.29 48.11 3.43 49.64C3.57 51.12 4.15 52.46 4.57 53.83C4.99 55.19 5.87 55.76 6.8 56.98C8.81 57.37 32.81 55.08 34.72 55.81C34.72 55.81 35.08 57.99 36.35 57.84C37.61 57.69 37.5 56.53 37.46 55.43C38.65 55.3 39.98 54.93 41 54.44C42.06 53.93 43.2 53.53 44.02 52.72C44.84 51.9 45.65 50.95 46.17 49.91C46.68 48.88 46.76 46.05 46.76 46.05C46.85 46.03 48.34 45.76 48.43 45.73C49.4 45.38 49.67 45.45 50.45 44.8C51.22 44.15 51.8 43.28 52.33 42.4C52.94 41.39 53.37 40.24 53.59 38.99C53.63 38.79 53.52 38.36 53.54 38.16C53.85 38.13 54.29 38.23 54.6 38.1C55.78 37.63 56.95 36.84 58.13 35.93C59.03 35.24 59.96 34.58 60.61 33.58C61.33 32.46 62.02 31.32 62.26 30.1C62.53 28.76 62.49 27.39 62.43 26.22H62.41ZM9.65 11.04C9.65 11.04 13.14 5.51 18.35 9.28C22.9 12.57 19.13 18.7 19.13 18.7C19.13 18.7 22.02 12.93 17.2 10.23C13.61 8.22 9.65 11.04 9.65 11.04ZM8.52 55.92C6.93 56.1 5.31 52.52 4.85 49.36C4.39 46.19 5.67 42.29 6.94 42.14C8.21 41.99 9.9 44.94 10.61 48.7C11.31 52.46 10.11 55.74 8.52 55.92Z" fill="var(--fill-0, #FF8831)"/>
</g>
<defs>
<clipPath id="clip0_0_28">
<rect width="62.46" height="57.83" fill="white"/>
</clipPath>
</defs>
</svg>
