<svg preserveAspectRatio="none" width="100%" height="100%" overflow="visible" style="display: block;" viewBox="0 0 68.08 47.47" fill="none" xmlns="http://www.w3.org/2000/svg">
<g id="Layer_1" clip-path="url(#clip0_0_47)">
<path id="Vector" d="M67.93 46.83C66.16 39.8 65.7 32.15 64.4 24.9C63.01 17.59 62.99 9.84 60.37 2.85C57.22 -2 26.77 0.91 15.59 0.46C14.41 0.41 13.23 0.49 12.07 0.7C10.5 0.98 8.79 1 7.86 2.5C4.94 9.58 5.13 17.63 3.61 25.09C2.33 32.28 1.95 39.89 0.08 46.83C1.86265e-09 46.96 -0.01 47.07 0.02 47.14C0.06 47.24 0.18 47.34 0.34 47.34C0.66 47.34 1.06 47.34 1.43 47.34H2.2C3.2 47.34 3.59 47.33 3.66 46.23C3.96 44.26 4.06 42.23 4.8 40.37C5.03 39.78 5.39 39.36 6.03 39.05C6.09 39.02 6.17 38.93 6.21 38.85C10.29 38.39 14.91 38.9 19.13 38.81C19.87 38.79 20.54 39.28 20.74 40C21.16 41.55 20.57 44.05 20.7 45.32C20.56 46.64 20.53 47.46 22.11 47.36C23.55 47.12 31.86 48.25 31.25 46.23C31.48 43.63 30.51 38.37 34.53 38.76C34.77 38.76 35.02 38.76 35.26 38.76C36.8 39.66 36.67 42.13 36.82 43.69C37.03 44.94 36.12 47.46 38.13 47.29C38.34 47.41 38.55 47.36 38.77 47.33C38.72 47.31 38.67 47.29 38.63 47.28C40.54 47.28 42.04 47.33 43.2 47.38C42.14 47.38 41.07 47.38 40.01 47.38C41.37 47.46 42.8 47.48 44.19 47.43C48.42 47.63 46.82 47.33 47.08 40.4C47.13 39.84 47.23 39.13 47.83 38.74C51.72 38.73 55.61 38.74 59.5 38.82C60.09 38.91 60.6 39.13 60.98 39.65C62.27 41.73 62.16 44.29 62.63 46.63C63.28 47.97 66.19 47.14 67.49 47.4C67.87 47.5 68.33 47.14 67.94 46.84L67.93 46.83ZM22.16 20.57C21.85 24 22.05 27.53 21.33 30.9C20.91 32.3 12.56 31.62 8.43 31.59V31.55C6.6 29.99 8.86 22.2 8.87 19.54C9.12 12.69 11.59 9.15 18.2 7.08C19.2 7.48 20.09 8.14 20.78 9.1C23.4 12.35 22.29 16.76 22.17 20.58L22.16 20.57ZM31.52 27.95C32.06 23.23 29.93 12.69 34.25 10.11C37.71 13.95 36.23 19.62 36.61 24.42C36.3 26.61 37.47 30.13 35.49 31.64C35.36 31.64 35.24 31.64 35.11 31.65C31.98 31.94 31.33 30.93 31.53 27.94L31.52 27.95ZM59.77 31.32C55.61 31.79 51.35 31.79 47.08 31.71C45.55 29.66 46.15 23.01 45.67 20.09C45.42 15.7 44.77 9.7 49.25 7.07C51.95 7.76 54.46 9.05 56.4 10.87C58.86 13.12 58.77 16.64 59.22 19.7C59.21 22.39 61.35 29.53 59.78 31.31L59.77 31.32Z" fill="var(--fill-0, #A50C6E)"/>
</g>
<defs>
<clipPath id="clip0_0_47">
<rect width="68.08" height="47.47" fill="white"/>
</clipPath>
</defs>
</svg>
