<svg width="1115" height="442" viewBox="0 0 1115 442" fill="none" xmlns="http://www.w3.org/2000/svg">
<path d="M184.811 86.119C177.232 170.071 171.402 234.201 165.572 283.173C146.916 440 125.928 440 39.6441 440L0.000119584 32.483H77.5391L102.025 389.279L141.086 32.483H228.536L268.18 389.279L293.249 32.483H370.788L329.395 440C241.945 440 222.123 440 203.467 280.258C197.637 231.869 191.807 168.322 184.811 86.119ZM537.021 110.022C602.317 110.022 616.892 155.496 616.892 258.104C616.892 409.101 594.738 441.749 504.373 441.749C414.008 441.749 392.437 409.101 392.437 258.104C392.437 119.933 411.093 74.459 478.721 74.459C506.705 74.459 523.612 83.204 533.523 110.022C478.138 111.771 465.312 146.168 465.312 258.104C465.312 365.959 477.555 389.279 504.373 389.279C531.191 389.279 546.349 349.052 546.349 241.78C546.349 175.901 542.851 135.091 533.523 110.022C534.689 110.022 535.855 110.022 537.021 110.022ZM728.509 76.208V117.018C732.59 114.686 737.837 114.103 743.667 113.52C733.173 139.755 728.509 182.897 728.509 251.691V438.834H655.051V76.208H728.509ZM795.554 75.625C852.105 75.625 865.514 117.601 865.514 251.691H792.639C792.639 124.597 787.392 112.937 748.914 112.937C746.582 112.937 745.416 113.52 743.667 113.52C754.744 84.37 771.651 75.625 795.554 75.625ZM1114.53 438.834H1038.16L994.434 276.76L967.616 317.57V438.834H894.741V-21.153H967.616V212.047L1034.66 77.957H1113.95L1045.16 209.715L1114.53 438.834Z" fill="#EFEFEF"/>
</svg>
